<svg version="1.1" width="1000" height="1000" xmlns="http://www.w3.org/2000/svg" style="background-color:rgb(152,253,224)"><line stroke="#a1b53b" stroke-width="5" opacity="0.8917314486058705" x1="145" y1="956" x2="-74" y2="662" /><line stroke="#36d" stroke-width="5" opacity="0.8917314486058705" x1="644" y1="395" x2="525" y2="481" /><line stroke="rgb(249,207,247)" stroke-width="4" opacity="0.8917314486058705" x1="268" y1="563" x2="216" y2="895" /><line stroke="rgba(1,172,172,0.422)" stroke-width="1" opacity="0.8917314486058705" x1="958" y1="117" x2="214" y2="182" /><line stroke="0xfcb69c" stroke-width="2" opacity="0.8917314486058705" x1="328" y1="323" x2="-86" y2="447" /><line stroke="#9e8562" stroke-width="2" opacity="0.8917314486058705" x1="199" y1="677" x2="1081" y2="984" /><line stroke="rgba(192,226,78,0.5104)" stroke-width="1" opacity="0.8917314486058705" x1="73" y1="555" x2="441" y2="2" /><line stroke="rgb(160,118,47)" stroke-width="4" opacity="0.8917314486058705" x1="425" y1="132" x2="116" y2="397" /><line stroke="rgb(210,149,79)" stroke-width="3" opacity="0.8917314486058705" x1="657" y1="53" x2="-48" y2="676" /><line stroke="GreenYellow" stroke-width="4" opacity="0.8917314486058705" x1="143" y1="-56" x2="812" y2="633" /><line stroke="#b0b" stroke-width="2" opacity="0.8917314486058705" x1="558" y1="253" x2="678" y2="630" /><line stroke="rgba(38,124,213,0.9523)" stroke-width="4" opacity="0.8917314486058705" x1="-68" y1="778" x2="185" y2="460" /><line stroke="Snow" stroke-width="4" opacity="0.8917314486058705" x1="599" y1="835" x2="431" y2="1044" /><line stroke="rgb(83,75,9)" stroke-width="2" opacity="0.8917314486058705" x1="737" y1="663" x2="70" y2="831" /><line stroke="rgb(217,195,177)" stroke-width="5" opacity="0.8917314486058705" x1="192" y1="-62" x2="178" y2="1093" /><line stroke="rgb(44,86,89)" stroke-width="2" opacity="0.8917314486058705" x1="332" y1="-15" x2="34" y2="940" /><line stroke="rgba(81,178,41,0.1555)" stroke-width="2" opacity="0.8917314486058705" x1="208" y1="592" x2="50" y2="815" /><line stroke="#f62" stroke-width="2" opacity="0.8917314486058705" x1="271" y1="-46" x2="-90" y2="-51" /><line stroke="rgba(66,130,129,0.6611)" stroke-width="2" opacity="0.8917314486058705" x1="418" y1="168" x2="519" y2="1055" /><line stroke="rgba(136,148,178,0.3377)" stroke-width="5" opacity="0.8917314486058705" x1="727" y1="-28" x2="349" y2="1052" /><line stroke="Tomato" stroke-width="5" opacity="0.8917314486058705" x1="146" y1="135" x2="715" y2="6" /><line stroke="rgba(36,208,136,0.3351)" stroke-width="3" opacity="0.8917314486058705" x1="46" y1="346" x2="250" y2="217" /><circle cx="882" cy="493" r="580" opacity="0.8917314486058705" fill="SandyBrown"/><circle cx="194" cy="923" r="595" opacity="0.8917314486058705" fill="#db5"/><circle cx="767" cy="633" r="253" opacity="0.8917314486058705" fill="#b106ec"/><circle cx="171" cy="437" r="864" opacity="0.8917314486058705" fill="rgb(50,42,0)"/><circle cx="684" cy="606" r="883" opacity="0.8917314486058705" fill="DarkBlue"/><circle cx="250" cy="1038" r="307" opacity="0.8917314486058705" fill="#5bd"/><circle cx="635" cy="302" r="278" opacity="0.8917314486058705" fill="0xfea477"/><circle cx="1097" cy="336" r="693" opacity="0.8917314486058705" fill="#a2f"/><circle cx="166" cy="402" r="54" opacity="0.8917314486058705" fill="DarkBlue"/><circle cx="48" cy="674" r="616" opacity="0.8917314486058705" fill="rgba(255,155,145,0.1873)"/><polygon fill="DodgerBlue" points="72,545 13,650 23,1141" opacity="0.8917314486058705"/> <polygon fill="GhostWhite" points="618,695 1686,1594 844,613" opacity="0.8917314486058705"/> <polygon fill="#c80887" points="478,93 715,1132 1434,1035" opacity="0.8917314486058705"/> <polygon fill="#4fc929" points="49,-67 272,888 640,210" opacity="0.8917314486058705"/> <polygon fill="0xb0baff" points="510,-87 1175,663 1177,389" opacity="0.8917314486058705"/> <polygon fill="#8d1f40" points="-9,48 926,636 213,970" opacity="0.8917314486058705"/> <polygon fill="rgb(89,78,73)" points="656,973 904,1423 1198,2061" opacity="0.8917314486058705"/> <polygon fill="rgba(26,188,141,0.3674)" points="807,257 972,850 1815,912" opacity="0.8917314486058705"/> <polygon fill="0xbe5ac2" points="1052,1037 1224,1188 1272,1037" opacity="0.8917314486058705"/> <polygon fill="#f5fea0" points="758,788 855,1069 1701,1231" opacity="0.8917314486058705"/> <polygon fill="rgba(171,0,48,0.085)" points="274,426 175,1262 1189,833" opacity="0.8917314486058705"/> </svg>