<svg version="1.1" width="1000" height="1000" xmlns="http://www.w3.org/2000/svg" style="background-color:rgba(80,160,49,0.0303)"><line stroke="0x33068f" stroke-width="2" opacity="0.3" x1="1027" y1="311" x2="-18" y2="236" /><line stroke="rgba(33,22,56,0.4682)" stroke-width="2" opacity="0.3" x1="287" y1="635" x2="1042" y2="963" /><line stroke="#fc8bbe" stroke-width="3" opacity="0.3" x1="306" y1="771" x2="516" y2="168" /><line stroke="0x97fb07" stroke-width="3" opacity="0.3" x1="860" y1="162" x2="690" y2="779" /><line stroke="rgb(174,147,132)" stroke-width="2" opacity="0.3" x1="649" y1="384" x2="-67" y2="467" /><line stroke="rgb(101,251,248)" stroke-width="3" opacity="0.3" x1="181" y1="-98" x2="562" y2="706" /><line stroke="#25e69f" stroke-width="5" opacity="0.3" x1="336" y1="624" x2="61" y2="376" /><line stroke="#60f" stroke-width="5" opacity="0.3" x1="174" y1="-36" x2="488" y2="931" /><line stroke="rgba(55,211,72,0.7302)" stroke-width="5" opacity="0.3" x1="-85" y1="439" x2="332" y2="4" /><line stroke="rgba(135,188,100,0.9981)" stroke-width="4" opacity="0.3" x1="750" y1="210" x2="248" y2="163" /><line stroke="rgb(174,132,60)" stroke-width="3" opacity="0.3" x1="119" y1="670" x2="763" y2="1009" /><line stroke="0x5cab45" stroke-width="2" opacity="0.3" x1="203" y1="227" x2="630" y2="304" /><line stroke="#57e012" stroke-width="3" opacity="0.3" x1="293" y1="505" x2="800" y2="421" /><line stroke="LawnGreen" stroke-width="4" opacity="0.3" x1="880" y1="431" x2="337" y2="62" /><line stroke="0x8b93d0" stroke-width="2" opacity="0.3" x1="1041" y1="938" x2="454" y2="250" /><line stroke="0xbd9ee2" stroke-width="2" opacity="0.3" x1="242" y1="1067" x2="337" y2="824" /><line stroke="Azure" stroke-width="2" opacity="0.3" x1="115" y1="312" x2="539" y2="566" /><line stroke="#0a42c1" stroke-width="1" opacity="0.3" x1="996" y1="540" x2="559" y2="-73" /><line stroke="rgba(33,214,153,0.6809)" stroke-width="2" opacity="0.3" x1="65" y1="1056" x2="877" y2="648" /><line stroke="#fe0cf1" stroke-width="3" opacity="0.3" x1="787" y1="1021" x2="510" y2="-37" /><line stroke="0x3093b0" stroke-width="2" opacity="0.3" x1="724" y1="431" x2="1056" y2="462" /><circle cx="603" cy="998" r="15" opacity="0.3" fill="0x9db022"/><circle cx="-91" cy="415" r="266" opacity="0.3" fill="0xfce112"/><circle cx="13" cy="846" r="448" opacity="0.3" fill="rgba(147,33,178,0.2541)"/><circle cx="875" cy="180" r="31" opacity="0.3" fill="LightSalmon"/><circle cx="433" cy="151" r="500" opacity="0.3" fill="AliceBlue"/><circle cx="793" cy="952" r="147" opacity="0.3" fill="#ecc"/><circle cx="672" cy="600" r="465" opacity="0.3" fill="#760"/><circle cx="241" cy="226" r="838" opacity="0.3" fill="rgb(164,205,132)"/><circle cx="-41" cy="244" r="74" opacity="0.3" fill="0xabf20c"/><circle cx="14" cy="105" r="68" opacity="0.3" fill="rgba(79,57,29,0.2918)"/><circle cx="-53" cy="560" r="459" opacity="0.3" fill="0x628eef"/><circle cx="-58" cy="432" r="592" opacity="0.3" fill="#76f"/><circle cx="987" cy="48" r="801" opacity="0.3" fill="rgba(167,151,70,0.3582)"/><polygon fill="Peru" points="175,854 670,1948 790,1106" opacity="0.3"/> <polygon fill="#1cdd6e" points="780,51 1313,402 1112,1032" opacity="0.3"/> <polygon fill="rgb(152,46,148)" points="886,-47 1534,472 1960,417" opacity="0.3"/> <polygon fill="#871" points="693,294 1187,1384 738,1221" opacity="0.3"/> <polygon fill="#76d3e7" points="420,807 1303,837 1075,1612" opacity="0.3"/> <polygon fill="rgba(66,82,65,0.1284)" points="13,656 985,1107 592,1430" opacity="0.3"/> <polygon fill="#551440" points="669,727 591,856 1662,1769" opacity="0.3"/> <polygon fill="PapayaWhip" points="589,528 697,1424 838,472" opacity="0.3"/> <polygon fill="rgba(14,21,185,0.8608)" points="438,1025 870,1943 449,1108" opacity="0.3"/> <polygon fill="#a14" points="325,729 1153,923 1351,1351" opacity="0.3"/> <polygon fill="#72368e" points="297,784 1132,1363 484,783" opacity="0.3"/> </svg>