<svg version="1.1" width="1000" height="1000" xmlns="http://www.w3.org/2000/svg" style="background-color:rgb(217,118,9)"><line stroke="rgba(32,124,214,0.5694)" stroke-width="1" opacity="0.5837848479912506" x1="419" y1="126" x2="298" y2="610" /><line stroke="#95906e" stroke-width="4" opacity="0.5837848479912506" x1="-40" y1="799" x2="617" y2="-96" /><line stroke="rgb(240,164,61)" stroke-width="2" opacity="0.5837848479912506" x1="370" y1="-57" x2="322" y2="731" /><line stroke="rgba(11,140,249,0.3661)" stroke-width="4" opacity="0.5837848479912506" x1="505" y1="-44" x2="76" y2="332" /><line stroke="#44c" stroke-width="3" opacity="0.5837848479912506" x1="933" y1="1051" x2="644" y2="1021" /><line stroke="rgb(109,7,25)" stroke-width="2" opacity="0.5837848479912506" x1="227" y1="405" x2="2" y2="62" /><line stroke="#d942b3" stroke-width="4" opacity="0.5837848479912506" x1="618" y1="970" x2="-8" y2="470" /><line stroke="PaleGoldenRod" stroke-width="5" opacity="0.5837848479912506" x1="1045" y1="855" x2="492" y2="922" /><line stroke="rgba(78,1,165,0.2823)" stroke-width="1" opacity="0.5837848479912506" x1="722" y1="-41" x2="91" y2="791" /><line stroke="#78aaa0" stroke-width="2" opacity="0.5837848479912506" x1="629" y1="689" x2="767" y2="1064" /><line stroke="rgba(236,196,128,0.7365)" stroke-width="3" opacity="0.5837848479912506" x1="121" y1="343" x2="41" y2="57" /><line stroke="rgba(17,89,216,0.7334)" stroke-width="1" opacity="0.5837848479912506" x1="448" y1="206" x2="894" y2="447" /><line stroke="rgb(130,152,154)" stroke-width="4" opacity="0.5837848479912506" x1="565" y1="-3" x2="519" y2="85" /><line stroke="#808" stroke-width="3" opacity="0.5837848479912506" x1="1000" y1="865" x2="769" y2="507" /><line stroke="#72c" stroke-width="4" opacity="0.5837848479912506" x1="592" y1="974" x2="88" y2="-66" /><line stroke="#220" stroke-width="5" opacity="0.5837848479912506" x1="201" y1="-77" x2="430" y2="788" /><line stroke="rgba(27,176,192,0.6853)" stroke-width="4" opacity="0.5837848479912506" x1="252" y1="1096" x2="969" y2="-23" /><line stroke="#863456" stroke-width="2" opacity="0.5837848479912506" x1="521" y1="151" x2="751" y2="969" /><line stroke="Tan" stroke-width="4" opacity="0.5837848479912506" x1="128" y1="139" x2="862" y2="1010" /><line stroke="rgba(229,149,127,0.0481)" stroke-width="5" opacity="0.5837848479912506" x1="213" y1="-16" x2="558" y2="490" /><line stroke="rgb(173,147,130)" stroke-width="4" opacity="0.5837848479912506" x1="382" y1="290" x2="-63" y2="60" /><line stroke="0x083547" stroke-width="4" opacity="0.5837848479912506" x1="103" y1="818" x2="-11" y2="983" /><line stroke="rgba(130,181,28,0.8531)" stroke-width="5" opacity="0.5837848479912506" x1="513" y1="1056" x2="238" y2="618" /><line stroke="#cf2" stroke-width="3" opacity="0.5837848479912506" x1="953" y1="588" x2="795" y2="188" /><line stroke="0xfeb22a" stroke-width="1" opacity="0.5837848479912506" x1="201" y1="598" x2="-95" y2="-90" /><circle cx="862" cy="1025" r="170" opacity="0.5837848479912506" fill="#e4dc44"/><circle cx="-2" cy="-9" r="759" opacity="0.5837848479912506" fill="#5ecf18"/><circle cx="1001" cy="225" r="752" opacity="0.5837848479912506" fill="PaleGoldenRod"/><circle cx="373" cy="1015" r="727" opacity="0.5837848479912506" fill="#464"/><circle cx="0" cy="815" r="81" opacity="0.5837848479912506" fill="rgba(32,165,96,0.8313)"/><circle cx="737" cy="764" r="947" opacity="0.5837848479912506" fill="rgb(129,167,226)"/><circle cx="119" cy="34" r="525" opacity="0.5837848479912506" fill="rgb(91,26,52)"/><circle cx="503" cy="436" r="936" opacity="0.5837848479912506" fill="0x9f9ff9"/><polygon fill="rgba(222,231,251,0.7106)" points="118,650 201,1527 975,771" opacity="0.5837848479912506"/> <polygon fill="#c44" points="31,586 689,607 372,650" opacity="0.5837848479912506"/> <polygon fill="rgba(9,198,68,0.9064)" points=" 619,1047 1304,2126 1546,2016 1697,1121 919,1029 1062,2115 1354,2026 850,1489" opacity="0.5837848479912506" /></svg>