<svg version="1.1" width="1000" height="1000" xmlns="http://www.w3.org/2000/svg" style="background-color:Thistle"><line stroke="rgb(44,163,247)" stroke-width="4" opacity="0.9933222026453925" x1="494" y1="775" x2="832" y2="964" /><line stroke="#50a1ec" stroke-width="2" opacity="0.9933222026453925" x1="139" y1="106" x2="839" y2="136" /><line stroke="rgba(217,222,86,0.5669)" stroke-width="2" opacity="0.9933222026453925" x1="313" y1="-54" x2="458" y2="-57" /><line stroke="rgba(43,250,29,0.6217)" stroke-width="4" opacity="0.9933222026453925" x1="-27" y1="742" x2="-98" y2="924" /><line stroke="0x45a6b8" stroke-width="3" opacity="0.9933222026453925" x1="411" y1="191" x2="182" y2="346" /><line stroke="PaleGoldenRod" stroke-width="5" opacity="0.9933222026453925" x1="262" y1="414" x2="741" y2="49" /><line stroke="#834" stroke-width="3" opacity="0.9933222026453925" x1="861" y1="647" x2="946" y2="478" /><line stroke="rgba(241,244,215,0.1406)" stroke-width="5" opacity="0.9933222026453925" x1="480" y1="262" x2="1009" y2="402" /><circle cx="902" cy="200" r="289" opacity="0.9933222026453925" fill="#9e2949"/><circle cx="796" cy="913" r="850" opacity="0.9933222026453925" fill="#599eed"/><circle cx="168" cy="131" r="180" opacity="0.9933222026453925" fill="rgba(195,53,247,0.5336)"/><circle cx="683" cy="433" r="733" opacity="0.9933222026453925" fill="0xd9d3ae"/><polygon fill="#2fd" points="666,195 704,198 1011,744" opacity="0.9933222026453925"/> <polygon fill="DimGray" points="460,741 590,1822 1198,1261" opacity="0.9933222026453925"/> <polygon fill="rgba(228,226,215,0.0662)" points="354,40 1277,962 1444,-20" opacity="0.9933222026453925"/> <polygon fill="rgba(167,34,81,0.8098)" points="1031,184 952,872 952,473" opacity="0.9933222026453925"/> <polygon fill="rgba(28,220,181,0.5166)" points="689,545 666,1500 852,1590" opacity="0.9933222026453925"/> <polygon fill="#468224" points="639,957 1066,1851 620,1821" opacity="0.9933222026453925"/> <polygon fill="0x363ed0" points="172,219 846,250 76,793" opacity="0.9933222026453925"/> <polygon fill="0xcaee94" points="73,729 808,1582 754,1273" opacity="0.9933222026453925"/> <polygon fill="Cyan" points="948,996 1632,1306 1635,1502" opacity="0.9933222026453925"/> <polygon fill="Orchid" points="654,970 817,1827 560,1619" opacity="0.9933222026453925"/> <polygon fill="MintCream" points="414,-16 682,489 1004,57" opacity="0.9933222026453925"/> <polygon fill="rgba(210,177,245,0.7783)" points="935,622 871,989 1377,580" opacity="0.9933222026453925"/> <polygon fill="rgba(136,0,61,0.9659)" points="228,399 1114,1134 844,683" opacity="0.9933222026453925"/> <polygon fill="rgb(38,224,249)" points=" 720,176 1283,1228 1097,188 1182,822 1497,197" opacity="0.9933222026453925" /></svg>