<svg version="1.1" width="1000" height="1000" xmlns="http://www.w3.org/2000/svg" style="background-color:rgba(117,127,251,0.4797)"><line stroke="0xb40ff2" stroke-width="5" opacity="0.5505270592300175" x1="923" y1="483" x2="966" y2="775" /><line stroke="rgb(125,78,62)" stroke-width="2" opacity="0.5505270592300175" x1="780" y1="480" x2="-58" y2="1091" /><line stroke="LightSeaGreen" stroke-width="3" opacity="0.5505270592300175" x1="430" y1="832" x2="963" y2="724" /><line stroke="rgb(65,36,90)" stroke-width="3" opacity="0.5505270592300175" x1="329" y1="-95" x2="-98" y2="499" /><line stroke="rgb(133,196,211)" stroke-width="4" opacity="0.5505270592300175" x1="990" y1="-55" x2="-72" y2="14" /><line stroke="rgba(194,71,102,0.8079)" stroke-width="4" opacity="0.5505270592300175" x1="6" y1="340" x2="-96" y2="530" /><line stroke="rgba(130,244,84,0.3336)" stroke-width="2" opacity="0.5505270592300175" x1="905" y1="871" x2="284" y2="840" /><line stroke="rgb(20,112,250)" stroke-width="3" opacity="0.5505270592300175" x1="320" y1="976" x2="698" y2="-75" /><line stroke="rgba(145,32,191,0.84)" stroke-width="1" opacity="0.5505270592300175" x1="924" y1="581" x2="142" y2="1041" /><line stroke="rgb(231,197,179)" stroke-width="1" opacity="0.5505270592300175" x1="504" y1="122" x2="749" y2="1100" /><line stroke="#5fa93a" stroke-width="2" opacity="0.5505270592300175" x1="256" y1="712" x2="481" y2="152" /><circle cx="378" cy="936" r="358" opacity="0.5505270592300175" fill="0x6a6dc6"/><circle cx="832" cy="743" r="267" opacity="0.5505270592300175" fill="SpringGreen"/><polygon fill="Black" points="306,80 574,530 587,1067" opacity="0.5505270592300175"/> <polygon fill="rgb(149,97,179)" points="977,-67 1132,678 1585,230" opacity="0.5505270592300175"/> <polygon fill="0x0fd3a8" points="568,251 548,799 1592,653" opacity="0.5505270592300175"/> <polygon fill="rgb(3,25,201)" points="932,388 857,813 1966,703" opacity="0.5505270592300175"/> <polygon fill="PaleTurquoise" points=" 198,235 168,189 1293,1116 646,903 789,619 1261,693 557,674 690,626" opacity="0.5505270592300175" /></svg>