<svg version="1.1" width="1000" height="1000" xmlns="http://www.w3.org/2000/svg" style="background-color:rgb(159,2,155)"><line stroke="#071" stroke-width="3" opacity="0.9336365154664814" x1="961" y1="550" x2="366" y2="578" /><line stroke="0x50961b" stroke-width="3" opacity="0.9336365154664814" x1="531" y1="962" x2="781" y2="238" /><line stroke="#bdcb00" stroke-width="1" opacity="0.9336365154664814" x1="320" y1="977" x2="-74" y2="129" /><line stroke="SeaShell" stroke-width="2" opacity="0.9336365154664814" x1="442" y1="1053" x2="401" y2="76" /><line stroke="Pink" stroke-width="1" opacity="0.9336365154664814" x1="391" y1="616" x2="457" y2="91" /><circle cx="689" cy="976" r="13" opacity="0.9336365154664814" fill="rgb(47,129,17)"/><circle cx="931" cy="432" r="337" opacity="0.9336365154664814" fill="#8a2"/><circle cx="189" cy="394" r="512" opacity="0.9336365154664814" fill="rgba(34,43,197,0.1248)"/><circle cx="549" cy="985" r="633" opacity="0.9336365154664814" fill="#4e325d"/><circle cx="1035" cy="845" r="226" opacity="0.9336365154664814" fill="rgb(146,243,113)"/><circle cx="974" cy="118" r="934" opacity="0.9336365154664814" fill="0x9dbd7a"/><circle cx="908" cy="698" r="61" opacity="0.9336365154664814" fill="rgba(87,33,120,0.1848)"/><circle cx="130" cy="81" r="165" opacity="0.9336365154664814" fill="#563"/><polygon fill="#0e1821" points="215,439 760,977 639,625" opacity="0.9336365154664814"/> <polygon fill="#37d" points="1088,324 1770,811 2109,255" opacity="0.9336365154664814"/> <polygon fill="#0dd" points="1030,168 1550,521 2025,1231" opacity="0.9336365154664814"/> <polygon fill="#74024d" points="162,401 98,786 757,851" opacity="0.9336365154664814"/> <polygon fill="rgba(57,214,58,0.0382)" points="559,141 752,264 500,302" opacity="0.9336365154664814"/> <polygon fill="#cf6" points="1019,406 2044,1501 2063,1451" opacity="0.9336365154664814"/> <polygon fill="#d0f" points="330,826 638,1411 299,804" opacity="0.9336365154664814"/> <polygon fill="#b06763" points="63,-64 367,243 1093,765" opacity="0.9336365154664814"/> <polygon fill="#93f" points="401,413 546,500 1475,547" opacity="0.9336365154664814"/> <polygon fill="0xf009f5" points="-17,781 145,1254 603,751" opacity="0.9336365154664814"/> <polygon fill="0xd3cdab" points="150,210 676,274 111,824" opacity="0.9336365154664814"/> <polygon fill="#8bad6a" points="588,222 825,625 1120,201" opacity="0.9336365154664814"/> <polygon fill="rgb(103,187,13)" points="814,575 975,1286 951,1287" opacity="0.9336365154664814"/> <polygon fill="rgba(68,230,76,0.0456)" points="792,816 1307,1109 1359,1356" opacity="0.9336365154664814"/> <polygon fill="Red" points="67,1075 922,1618 628,2111" opacity="0.9336365154664814"/> <polygon fill="rgba(134,89,168,0.9199)" points="92,340 1118,1036 1161,411" opacity="0.9336365154664814"/> <polygon fill="#845187" points="143,854 1209,1163 109,959" opacity="0.9336365154664814"/> <polygon fill="#6e5" points="565,331 807,591 1121,890" opacity="0.9336365154664814"/> <polygon fill="rgb(250,11,81)" points="6,448 330,925 516,357" opacity="0.9336365154664814"/> <polygon fill="0xd57695" points="69,646 314,1488 955,553" opacity="0.9336365154664814"/> <polygon fill="rgba(43,28,26,0.1252)" points=" 731,277 1400,1369 1040,1167 1478,387 1762,1209 1337,728 1675,1316" opacity="0.9336365154664814" /></svg>