<svg version="1.1" width="1000" height="1000" xmlns="http://www.w3.org/2000/svg" style="background-color:Aqua"><line stroke="0xa58164" stroke-width="3" opacity="0.7774105864324827" x1="991" y1="418" x2="112" y2="70" /><line stroke="MediumBlue" stroke-width="5" opacity="0.7774105864324827" x1="613" y1="28" x2="557" y2="296" /><line stroke="OrangeRed" stroke-width="3" opacity="0.7774105864324827" x1="599" y1="-65" x2="578" y2="751" /><line stroke="0x7c8001" stroke-width="5" opacity="0.7774105864324827" x1="313" y1="465" x2="74" y2="79" /><line stroke="#6b4594" stroke-width="3" opacity="0.7774105864324827" x1="565" y1="470" x2="360" y2="332" /><line stroke="rgb(86,168,8)" stroke-width="4" opacity="0.7774105864324827" x1="661" y1="857" x2="483" y2="951" /><line stroke="Pink" stroke-width="2" opacity="0.7774105864324827" x1="808" y1="-82" x2="266" y2="360" /><line stroke="#f86c3a" stroke-width="1" opacity="0.7774105864324827" x1="129" y1="227" x2="645" y2="146" /><line stroke="rgba(239,115,110,0.4228)" stroke-width="2" opacity="0.7774105864324827" x1="412" y1="-43" x2="597" y2="-33" /><line stroke="MediumVioletRed" stroke-width="3" opacity="0.7774105864324827" x1="924" y1="375" x2="77" y2="798" /><line stroke="rgb(85,164,32)" stroke-width="4" opacity="0.7774105864324827" x1="475" y1="680" x2="264" y2="959" /><line stroke="rgba(35,6,184,0.4065)" stroke-width="5" opacity="0.7774105864324827" x1="667" y1="179" x2="659" y2="425" /><line stroke="0x0a0f7d" stroke-width="3" opacity="0.7774105864324827" x1="737" y1="562" x2="450" y2="1060" /><line stroke="#d8d33f" stroke-width="3" opacity="0.7774105864324827" x1="284" y1="1066" x2="566" y2="424" /><line stroke="0xdb4c23" stroke-width="2" opacity="0.7774105864324827" x1="396" y1="910" x2="93" y2="-82" /><line stroke="#2f3" stroke-width="3" opacity="0.7774105864324827" x1="651" y1="10" x2="349" y2="716" /><line stroke="#c95" stroke-width="5" opacity="0.7774105864324827" x1="779" y1="371" x2="958" y2="-52" /><line stroke="SkyBlue" stroke-width="4" opacity="0.7774105864324827" x1="831" y1="245" x2="943" y2="257" /><polygon fill="#7ff" points="1001,897 1270,1846 1458,1855" opacity="0.7774105864324827"/> <polygon fill="rgb(55,131,77)" points="210,479 334,913 688,935" opacity="0.7774105864324827"/> <polygon fill="Brown" points="633,823 1225,771 928,1344" opacity="0.7774105864324827"/> <polygon fill="rgb(26,155,108)" points="51,2 393,708 508,998" opacity="0.7774105864324827"/> <polygon fill="SkyBlue" points="223,797 541,1632 1137,1731" opacity="0.7774105864324827"/> <polygon fill="Teal" points="199,428 859,429 1294,1379" opacity="0.7774105864324827"/> <polygon fill="LightSalmon" points="796,879 1078,1480 1586,863" opacity="0.7774105864324827"/> <polygon fill="#0dc" points="127,263 524,206 858,535" opacity="0.7774105864324827"/> <polygon fill="Moccasin" points="142,-5 272,841 1074,1006" opacity="0.7774105864324827"/> <polygon fill="0xf4d938" points="704,296 1328,769 1092,626" opacity="0.7774105864324827"/> </svg>