<svg version="1.1" width="1000" height="1000" xmlns="http://www.w3.org/2000/svg" style="background-color:rgba(189,136,38,0.322)"><line stroke="0xec0e0d" stroke-width="5" opacity="0.3" x1="155" y1="931" x2="673" y2="645" /><line stroke="0x81e5af" stroke-width="3" opacity="0.3" x1="645" y1="122" x2="372" y2="1009" /><line stroke="#0cd10f" stroke-width="5" opacity="0.3" x1="574" y1="692" x2="189" y2="276" /><line stroke="rgba(67,194,213,0.3149)" stroke-width="4" opacity="0.3" x1="723" y1="611" x2="512" y2="453" /><line stroke="#9e5" stroke-width="3" opacity="0.3" x1="435" y1="907" x2="278" y2="490" /><line stroke="rgb(83,122,200)" stroke-width="3" opacity="0.3" x1="941" y1="274" x2="493" y2="338" /><line stroke="rgba(201,139,213,0.9257)" stroke-width="4" opacity="0.3" x1="1015" y1="105" x2="548" y2="580" /><line stroke="rgb(58,221,79)" stroke-width="5" opacity="0.3" x1="460" y1="375" x2="787" y2="109" /><circle cx="427" cy="451" r="88" opacity="0.3" fill="#5259f8"/><circle cx="277" cy="900" r="424" opacity="0.3" fill="#aefd77"/><polygon fill="#b70845" points="448,331 1099,577 1177,856" opacity="0.3"/> <polygon fill="rgba(110,9,254,0.3811)" points="239,769 741,945 549,840" opacity="0.3"/> <polygon fill="0x78740b" points="762,14 1225,972 873,929" opacity="0.3"/> <polygon fill="rgba(14,199,226,0.4287)" points="132,-3 674,277 399,543" opacity="0.3"/> <polygon fill="rgb(121,188,171)" points="1095,548 1704,645 1244,882" opacity="0.3"/> <polygon fill="rgba(239,212,218,0.8825)" points="-81,934 149,1498 230,1302" opacity="0.3"/> <polygon fill="#18a" points="592,471 1577,1077 526,1080" opacity="0.3"/> <polygon fill="Coral" points="679,461 987,837 865,464" opacity="0.3"/> <polygon fill="rgba(255,28,102,0.5676)" points="137,12 863,804 968,1011" opacity="0.3"/> <polygon fill="#664b18" points="494,224 438,351 1170,841" opacity="0.3"/> <polygon fill="rgb(40,7,51)" points="800,968 863,1593 1271,1400" opacity="0.3"/> <polygon fill="rgb(18,85,39)" points="581,169 603,605 671,1218" opacity="0.3"/> <polygon fill="0x65aa50" points="-19,520 559,1472 -80,858" opacity="0.3"/> <polygon fill="rgb(55,227,146)" points="-42,516 -113,905 -94,891" opacity="0.3"/> <polygon fill="rgba(169,205,245,0.8278)" points="-27,470 -96,1144 222,703" opacity="0.3"/> </svg>