<svg version="1.1" width="1000" height="1000" xmlns="http://www.w3.org/2000/svg" style="background-color:rgba(189,239,76,0.6267)"><line stroke="DarkOrchid" stroke-width="5" opacity="0.5080598892000538" x1="965" y1="1008" x2="-46" y2="697" /><line stroke="#9eff83" stroke-width="3" opacity="0.5080598892000538" x1="992" y1="869" x2="611" y2="844" /><line stroke="0x83f929" stroke-width="5" opacity="0.5080598892000538" x1="-78" y1="942" x2="495" y2="813" /><line stroke="0x8e946a" stroke-width="4" opacity="0.5080598892000538" x1="626" y1="714" x2="1028" y2="455" /><line stroke="#7fbf0f" stroke-width="2" opacity="0.5080598892000538" x1="1083" y1="168" x2="920" y2="999" /><line stroke="#0f6" stroke-width="5" opacity="0.5080598892000538" x1="507" y1="196" x2="112" y2="379" /><line stroke="White" stroke-width="2" opacity="0.5080598892000538" x1="980" y1="926" x2="370" y2="17" /><line stroke="#d08" stroke-width="5" opacity="0.5080598892000538" x1="646" y1="247" x2="998" y2="844" /><line stroke="0xba907c" stroke-width="2" opacity="0.5080598892000538" x1="485" y1="348" x2="511" y2="555" /><line stroke="#988" stroke-width="5" opacity="0.5080598892000538" x1="-30" y1="1086" x2="648" y2="968" /><line stroke="0x33862e" stroke-width="1" opacity="0.5080598892000538" x1="400" y1="548" x2="914" y2="139" /><line stroke="0xc80819" stroke-width="1" opacity="0.5080598892000538" x1="708" y1="941" x2="644" y2="592" /><line stroke="rgb(237,203,212)" stroke-width="5" opacity="0.5080598892000538" x1="676" y1="-89" x2="-43" y2="201" /><line stroke="GhostWhite" stroke-width="4" opacity="0.5080598892000538" x1="250" y1="605" x2="846" y2="989" /><line stroke="0xa878ba" stroke-width="2" opacity="0.5080598892000538" x1="645" y1="-42" x2="108" y2="840" /><line stroke="rgba(177,190,97,0.2787)" stroke-width="5" opacity="0.5080598892000538" x1="52" y1="181" x2="125" y2="891" /><line stroke="#6d1" stroke-width="3" opacity="0.5080598892000538" x1="927" y1="145" x2="369" y2="452" /><line stroke="0x9040da" stroke-width="3" opacity="0.5080598892000538" x1="188" y1="282" x2="556" y2="1012" /><line stroke="0xa13148" stroke-width="2" opacity="0.5080598892000538" x1="77" y1="-9" x2="308" y2="483" /><line stroke="0x4ce447" stroke-width="4" opacity="0.5080598892000538" x1="-54" y1="-64" x2="786" y2="-72" /><line stroke="rgba(141,198,126,0.5077)" stroke-width="1" opacity="0.5080598892000538" x1="58" y1="164" x2="123" y2="465" /><line stroke="rgba(27,78,208,0.3805)" stroke-width="4" opacity="0.5080598892000538" x1="-78" y1="233" x2="64" y2="895" /><line stroke="#508b12" stroke-width="4" opacity="0.5080598892000538" x1="724" y1="-58" x2="735" y2="-4" /><line stroke="0xe7547a" stroke-width="2" opacity="0.5080598892000538" x1="477" y1="982" x2="886" y2="504" /><circle cx="296" cy="583" r="754" opacity="0.5080598892000538" fill="MediumSpringGreen"/><circle cx="443" cy="271" r="813" opacity="0.5080598892000538" fill="rgb(198,2,204)"/><circle cx="1049" cy="210" r="606" opacity="0.5080598892000538" fill="Plum"/><circle cx="834" cy="574" r="980" opacity="0.5080598892000538" fill="#ae60dc"/><circle cx="798" cy="72" r="668" opacity="0.5080598892000538" fill="#1f1a11"/><circle cx="772" cy="341" r="315" opacity="0.5080598892000538" fill="#72e"/><circle cx="928" cy="715" r="729" opacity="0.5080598892000538" fill="0xdd9655"/><circle cx="-97" cy="-61" r="499" opacity="0.5080598892000538" fill="rgb(210,40,130)"/><circle cx="800" cy="995" r="602" opacity="0.5080598892000538" fill="BlanchedAlmond"/><circle cx="717" cy="793" r="415" opacity="0.5080598892000538" fill="0x0eaf23"/><circle cx="290" cy="418" r="379" opacity="0.5080598892000538" fill="0x184630"/><circle cx="621" cy="476" r="368" opacity="0.5080598892000538" fill="#ae5"/><circle cx="98" cy="1096" r="26" opacity="0.5080598892000538" fill="rgba(255,43,177,0.9286)"/><circle cx="59" cy="532" r="49" opacity="0.5080598892000538" fill="rgb(209,189,74)"/><polygon fill="0x9f5d4d" points="310,460 670,761 1167,1536" opacity="0.5080598892000538"/> <polygon fill="Lime" points="-6,405 15,381 466,567" opacity="0.5080598892000538"/> <polygon fill="rgba(50,216,111,0.7473)" points="197,580 320,1316 1089,947" opacity="0.5080598892000538"/> <polygon fill="#a88" points="894,-13 1661,585 1159,874" opacity="0.5080598892000538"/> <polygon fill="#59e" points="779,856 1403,1940 1697,1659" opacity="0.5080598892000538"/> <polygon fill="Azure" points="332,872 1147,1441 1399,878" opacity="0.5080598892000538"/> <polygon fill="#18c" points="530,64 1244,768 1295,714" opacity="0.5080598892000538"/> <polygon fill="#f09" points="26,314 844,363 734,1222" opacity="0.5080598892000538"/> <polygon fill="#dec4d7" points="953,746 1954,1698 1812,1785" opacity="0.5080598892000538"/> <polygon fill="rgb(219,31,163)" points="482,1058 1033,1311 880,1671" opacity="0.5080598892000538"/> <polygon fill="#5e2b03" points="836,769 1690,1588 1545,1448" opacity="0.5080598892000538"/> <polygon fill="#fe3a4f" points="1054,30 1403,228 2032,-9" opacity="0.5080598892000538"/> <polygon fill="rgb(95,108,66)" points="122,339 977,624 129,1056" opacity="0.5080598892000538"/> <polygon fill="rgb(105,35,117)" points="607,523 963,896 802,733" opacity="0.5080598892000538"/> <polygon fill="#be3e9b" points="223,435 861,635 715,979" opacity="0.5080598892000538"/> <polygon fill="#6986c0" points="275,550 885,1011 1211,495" opacity="0.5080598892000538"/> <polygon fill="DarkOrange" points=" 31,173 918,1144 1059,699 1021,1167 107,346 129,1122 1081,407 944,777 1039,599" opacity="0.5080598892000538" /></svg>