<svg version="1.1" width="1000" height="1000" xmlns="http://www.w3.org/2000/svg" style="background-color:rgb(167,208,86)"><line stroke="#566" stroke-width="1" opacity="0.7970566820437304" x1="888" y1="303" x2="1086" y2="156" /><line stroke="rgb(125,53,46)" stroke-width="1" opacity="0.7970566820437304" x1="755" y1="528" x2="-70" y2="433" /><line stroke="0x5e4c9d" stroke-width="4" opacity="0.7970566820437304" x1="-88" y1="779" x2="40" y2="617" /><line stroke="rgba(105,34,121,0.7521)" stroke-width="2" opacity="0.7970566820437304" x1="949" y1="-97" x2="765" y2="52" /><line stroke="rgba(223,92,112,0.7804)" stroke-width="5" opacity="0.7970566820437304" x1="651" y1="-45" x2="-93" y2="224" /><line stroke="0x8bc692" stroke-width="1" opacity="0.7970566820437304" x1="765" y1="1094" x2="227" y2="-85" /><line stroke="#39c" stroke-width="2" opacity="0.7970566820437304" x1="695" y1="991" x2="204" y2="157" /><line stroke="#7210c3" stroke-width="1" opacity="0.7970566820437304" x1="554" y1="989" x2="697" y2="834" /><line stroke="Silver" stroke-width="1" opacity="0.7970566820437304" x1="24" y1="-92" x2="662" y2="639" /><line stroke="#f8a" stroke-width="4" opacity="0.7970566820437304" x1="539" y1="585" x2="889" y2="913" /><line stroke="rgba(101,133,242,0.8891)" stroke-width="3" opacity="0.7970566820437304" x1="241" y1="659" x2="1072" y2="801" /><line stroke="#c27b8f" stroke-width="5" opacity="0.7970566820437304" x1="360" y1="690" x2="62" y2="292" /><line stroke="rgb(76,154,39)" stroke-width="3" opacity="0.7970566820437304" x1="1070" y1="520" x2="324" y2="936" /><line stroke="rgba(91,41,118,0.3225)" stroke-width="3" opacity="0.7970566820437304" x1="564" y1="527" x2="778" y2="-41" /><line stroke="DeepSkyBlue" stroke-width="3" opacity="0.7970566820437304" x1="-68" y1="1099" x2="773" y2="655" /><line stroke="#e04ef1" stroke-width="3" opacity="0.7970566820437304" x1="489" y1="-60" x2="711" y2="744" /><line stroke="#cf1" stroke-width="5" opacity="0.7970566820437304" x1="446" y1="3" x2="893" y2="728" /><line stroke="rgba(95,227,218,0.8985)" stroke-width="3" opacity="0.7970566820437304" x1="1025" y1="31" x2="1066" y2="197" /><line stroke="rgb(220,144,178)" stroke-width="2" opacity="0.7970566820437304" x1="865" y1="718" x2="438" y2="219" /><line stroke="0x17d24f" stroke-width="2" opacity="0.7970566820437304" x1="810" y1="580" x2="666" y2="444" /><line stroke="#042265" stroke-width="3" opacity="0.7970566820437304" x1="898" y1="985" x2="599" y2="376" /><line stroke="rgba(166,77,29,0.9263)" stroke-width="3" opacity="0.7970566820437304" x1="956" y1="-13" x2="963" y2="134" /><line stroke="#7bd" stroke-width="1" opacity="0.7970566820437304" x1="177" y1="409" x2="502" y2="-13" /><line stroke="0x71c77d" stroke-width="2" opacity="0.7970566820437304" x1="447" y1="409" x2="412" y2="203" /><line stroke="0x2e5977" stroke-width="5" opacity="0.7970566820437304" x1="393" y1="413" x2="279" y2="419" /><circle cx="230" cy="476" r="164" opacity="0.7970566820437304" fill="#4ff"/><circle cx="403" cy="523" r="622" opacity="0.7970566820437304" fill="rgba(185,52,254,0.0378)"/><circle cx="-17" cy="843" r="955" opacity="0.7970566820437304" fill="Azure"/><circle cx="853" cy="87" r="689" opacity="0.7970566820437304" fill="rgb(27,17,25)"/><circle cx="896" cy="732" r="802" opacity="0.7970566820437304" fill="rgb(250,72,102)"/><polygon fill="MediumVioletRed" points="308,496 555,942 265,736" opacity="0.7970566820437304"/> <polygon fill="#ec164f" points="853,880 1150,1372 1698,1450" opacity="0.7970566820437304"/> <polygon fill="rgb(53,114,170)" points="109,241 1014,539 1087,269" opacity="0.7970566820437304"/> <polygon fill="0x505c12" points="287,833 986,1103 1178,1383" opacity="0.7970566820437304"/> <polygon fill="rgba(153,233,63,0.2983)" points="471,412 1426,1066 1522,352" opacity="0.7970566820437304"/> <polygon fill="rgba(98,112,94,0.4403)" points="482,798 1094,1376 849,898" opacity="0.7970566820437304"/> <polygon fill="rgba(176,228,22,0.583)" points="186,513 596,1319 688,548" opacity="0.7970566820437304"/> <polygon fill="rgba(254,234,137,0.025)" points="918,400 1093,767 1739,719" opacity="0.7970566820437304"/> <polygon fill="0x424739" points="719,744 1131,683 1319,1364" opacity="0.7970566820437304"/> <polygon fill="rgb(65,17,53)" points="281,134 374,639 666,861" opacity="0.7970566820437304"/> <polygon fill="LavenderBlush" points="385,1066 851,2098 1065,1822" opacity="0.7970566820437304"/> <polygon fill="Aqua" points="1097,523 2138,1605 1419,833" opacity="0.7970566820437304"/> <polygon fill="0x081b59" points="359,207 490,903 308,976" opacity="0.7970566820437304"/> <polygon fill="MediumVioletRed" points=" 187,670 1208,983 842,1037 596,877 1100,1380 825,1061 952,1450" opacity="0.7970566820437304" /></svg>