<svg version="1.1" width="1000" height="1000" xmlns="http://www.w3.org/2000/svg" style="background-color:rgba(240,153,184,0.0483)"><line stroke="rgba(41,216,84,0.2052)" stroke-width="3" opacity="0.3848590791047215" x1="890" y1="412" x2="645" y2="861" /><line stroke="0xdd16b3" stroke-width="3" opacity="0.3848590791047215" x1="308" y1="37" x2="815" y2="-47" /><line stroke="#0fb" stroke-width="4" opacity="0.3848590791047215" x1="788" y1="407" x2="936" y2="541" /><line stroke="#3fa0e8" stroke-width="3" opacity="0.3848590791047215" x1="469" y1="276" x2="508" y2="721" /><line stroke="rgb(131,190,30)" stroke-width="2" opacity="0.3848590791047215" x1="988" y1="194" x2="1019" y2="501" /><line stroke="YellowGreen" stroke-width="3" opacity="0.3848590791047215" x1="722" y1="1081" x2="340" y2="555" /><line stroke="rgb(213,218,37)" stroke-width="1" opacity="0.3848590791047215" x1="240" y1="552" x2="412" y2="597" /><line stroke="#73b5ae" stroke-width="2" opacity="0.3848590791047215" x1="447" y1="272" x2="56" y2="492" /><line stroke="PaleGoldenRod" stroke-width="2" opacity="0.3848590791047215" x1="237" y1="11" x2="757" y2="-22" /><line stroke="#ed7" stroke-width="2" opacity="0.3848590791047215" x1="1051" y1="641" x2="634" y2="951" /><line stroke="0x080bb7" stroke-width="3" opacity="0.3848590791047215" x1="70" y1="705" x2="1065" y2="84" /><line stroke="0xdd8485" stroke-width="1" opacity="0.3848590791047215" x1="21" y1="-36" x2="712" y2="256" /><line stroke="#965dd4" stroke-width="3" opacity="0.3848590791047215" x1="130" y1="1035" x2="735" y2="570" /><line stroke="Linen" stroke-width="1" opacity="0.3848590791047215" x1="644" y1="779" x2="212" y2="310" /><line stroke="rgba(208,85,230,0.1242)" stroke-width="3" opacity="0.3848590791047215" x1="668" y1="686" x2="280" y2="509" /><line stroke="0xdf569b" stroke-width="3" opacity="0.3848590791047215" x1="729" y1="78" x2="0" y2="137" /><line stroke="#18d" stroke-width="5" opacity="0.3848590791047215" x1="502" y1="266" x2="633" y2="67" /><line stroke="0x01148e" stroke-width="2" opacity="0.3848590791047215" x1="716" y1="351" x2="658" y2="1099" /><line stroke="#969" stroke-width="5" opacity="0.3848590791047215" x1="994" y1="36" x2="862" y2="381" /><line stroke="#bc67ee" stroke-width="3" opacity="0.3848590791047215" x1="463" y1="382" x2="471" y2="991" /><line stroke="rgba(104,117,16,0.3045)" stroke-width="3" opacity="0.3848590791047215" x1="604" y1="-16" x2="1002" y2="236" /><line stroke="#baf" stroke-width="1" opacity="0.3848590791047215" x1="859" y1="34" x2="827" y2="-24" /><line stroke="AliceBlue" stroke-width="5" opacity="0.3848590791047215" x1="961" y1="290" x2="751" y2="205" /><line stroke="0xed2256" stroke-width="1" opacity="0.3848590791047215" x1="254" y1="898" x2="135" y2="497" /><line stroke="0x46814c" stroke-width="5" opacity="0.3848590791047215" x1="-14" y1="250" x2="797" y2="806" /><line stroke="0x2249e4" stroke-width="3" opacity="0.3848590791047215" x1="994" y1="897" x2="614" y2="210" /><line stroke="0x30480a" stroke-width="1" opacity="0.3848590791047215" x1="889" y1="261" x2="11" y2="877" /><line stroke="Fuchsia" stroke-width="4" opacity="0.3848590791047215" x1="139" y1="301" x2="833" y2="1068" /><line stroke="#5fd" stroke-width="5" opacity="0.3848590791047215" x1="533" y1="487" x2="966" y2="602" /><line stroke="0x55e071" stroke-width="1" opacity="0.3848590791047215" x1="123" y1="676" x2="746" y2="253" /><circle cx="846" cy="209" r="676" opacity="0.3848590791047215" fill="0xc0f14b"/><circle cx="270" cy="82" r="885" opacity="0.3848590791047215" fill="#d33"/></svg>