<svg version="1.1" width="1000" height="1000" xmlns="http://www.w3.org/2000/svg" style="background-color:rgb(105,125,201)"><line stroke="ForestGreen" stroke-width="1" opacity="0.3" x1="523" y1="475" x2="475" y2="-40" /><line stroke="#727" stroke-width="1" opacity="0.3" x1="994" y1="1077" x2="162" y2="700" /><line stroke="#a2590d" stroke-width="1" opacity="0.3" x1="268" y1="911" x2="11" y2="7" /><line stroke="rgb(141,64,253)" stroke-width="4" opacity="0.3" x1="233" y1="780" x2="992" y2="880" /><line stroke="#116" stroke-width="5" opacity="0.3" x1="933" y1="574" x2="213" y2="332" /><line stroke="rgb(78,191,135)" stroke-width="5" opacity="0.3" x1="491" y1="220" x2="-100" y2="157" /><line stroke="#67031b" stroke-width="5" opacity="0.3" x1="411" y1="1004" x2="488" y2="1073" /><line stroke="rgba(3,176,30,0.685)" stroke-width="1" opacity="0.3" x1="561" y1="808" x2="954" y2="53" /><line stroke="0xd00881" stroke-width="2" opacity="0.3" x1="466" y1="859" x2="1051" y2="646" /><line stroke="rgb(228,105,137)" stroke-width="4" opacity="0.3" x1="764" y1="938" x2="959" y2="832" /><line stroke="rgba(47,240,119,0.3268)" stroke-width="1" opacity="0.3" x1="323" y1="-82" x2="712" y2="951" /><line stroke="rgb(31,138,59)" stroke-width="3" opacity="0.3" x1="17" y1="825" x2="151" y2="102" /><line stroke="LightCyan" stroke-width="4" opacity="0.3" x1="23" y1="43" x2="1083" y2="-17" /><line stroke="rgb(204,15,44)" stroke-width="5" opacity="0.3" x1="682" y1="-73" x2="345" y2="256" /><line stroke="PaleVioletRed" stroke-width="2" opacity="0.3" x1="582" y1="656" x2="229" y2="626" /><line stroke="rgb(207,130,95)" stroke-width="2" opacity="0.3" x1="97" y1="678" x2="952" y2="896" /><line stroke="rgba(242,19,23,0.4835)" stroke-width="5" opacity="0.3" x1="928" y1="747" x2="186" y2="551" /><line stroke="#945101" stroke-width="5" opacity="0.3" x1="940" y1="688" x2="823" y2="357" /><line stroke="#02a" stroke-width="5" opacity="0.3" x1="728" y1="135" x2="253" y2="560" /><line stroke="0xa50460" stroke-width="1" opacity="0.3" x1="492" y1="893" x2="59" y2="1055" /><line stroke="RosyBrown" stroke-width="3" opacity="0.3" x1="508" y1="-42" x2="855" y2="439" /><line stroke="#042" stroke-width="4" opacity="0.3" x1="342" y1="560" x2="503" y2="97" /><circle cx="817" cy="702" r="423" opacity="0.3" fill="Fuchsia"/><circle cx="-54" cy="1098" r="520" opacity="0.3" fill="rgba(54,222,141,0.5232)"/><circle cx="394" cy="23" r="286" opacity="0.3" fill="rgba(81,230,120,0.2385)"/><circle cx="281" cy="916" r="694" opacity="0.3" fill="#318"/><circle cx="-85" cy="-26" r="687" opacity="0.3" fill="rgba(238,70,100,0.6679)"/><circle cx="965" cy="365" r="4" opacity="0.3" fill="rgb(143,28,237)"/><circle cx="319" cy="7" r="63" opacity="0.3" fill="rgb(173,150,27)"/><circle cx="142" cy="514" r="920" opacity="0.3" fill="SeaGreen"/><circle cx="138" cy="175" r="260" opacity="0.3" fill="0x524890"/><circle cx="831" cy="997" r="996" opacity="0.3" fill="Moccasin"/><circle cx="621" cy="133" r="348" opacity="0.3" fill="rgba(236,70,235,0.3709)"/><polygon fill="0x0906a6" points="817,370 1868,521 1811,561" opacity="0.3"/> <polygon fill="0x642dca" points="246,1057 1244,1611 643,1540" opacity="0.3"/> <polygon fill="#6a7728" points="941,1007 1110,1365 1882,1129" opacity="0.3"/> <polygon fill="0x8bce8e" points="295,657 1127,701 1031,1082" opacity="0.3"/> <polygon fill="rgba(174,77,165,0.232)" points="655,342 1161,452 1292,619" opacity="0.3"/> <polygon fill="0x0569e7" points="572,-71 1418,1013 1393,447" opacity="0.3"/> <polygon fill="Yellow" points="320,917 325,993 1247,1383" opacity="0.3"/> <polygon fill="rgb(235,206,172)" points="626,304 813,297 758,433" opacity="0.3"/> <polygon fill="rgb(75,136,145)" points="385,274 1222,1201 1354,577" opacity="0.3"/> </svg>