<svg version="1.1" width="1000" height="1000" xmlns="http://www.w3.org/2000/svg" style="background-color:0xb235a4"><line stroke="rgb(131,67,70)" stroke-width="5" opacity="0.9216281275166005" x1="-79" y1="159" x2="693" y2="661" /><line stroke="#5dc" stroke-width="1" opacity="0.9216281275166005" x1="464" y1="515" x2="95" y2="614" /><line stroke="0x3533b8" stroke-width="3" opacity="0.9216281275166005" x1="298" y1="21" x2="324" y2="48" /><line stroke="#344405" stroke-width="3" opacity="0.9216281275166005" x1="883" y1="946" x2="-84" y2="186" /><circle cx="650" cy="955" r="823" opacity="0.9216281275166005" fill="#4fa295"/><circle cx="461" cy="990" r="769" opacity="0.9216281275166005" fill="#640319"/><circle cx="-46" cy="82" r="907" opacity="0.9216281275166005" fill="rgba(122,243,206,0.6562)"/><circle cx="0" cy="939" r="147" opacity="0.9216281275166005" fill="rgba(100,250,166,0.2132)"/><circle cx="287" cy="300" r="81" opacity="0.9216281275166005" fill="rgba(212,89,201,0.7305)"/><circle cx="684" cy="21" r="690" opacity="0.9216281275166005" fill="rgba(181,39,228,0.5459)"/><polygon fill="#8df" points="-36,553 333,1502 817,542" opacity="0.9216281275166005"/> <polygon fill="#864" points="-42,310 1033,871 -84,1399" opacity="0.9216281275166005"/> <polygon fill="0x5a47a5" points="826,899 1170,801 1234,1000" opacity="0.9216281275166005"/> <polygon fill="rgba(121,154,56,0.4524)" points="414,281 918,385 782,1258" opacity="0.9216281275166005"/> <polygon fill="#582e90" points="343,891 1374,1199 783,1485" opacity="0.9216281275166005"/> <polygon fill="rgb(164,178,41)" points="912,659 1636,685 2007,880" opacity="0.9216281275166005"/> <polygon fill="0x02de92" points="-75,26 945,1109 784,342" opacity="0.9216281275166005"/> <polygon fill="GreenYellow" points="900,710 1354,1142 1193,1265" opacity="0.9216281275166005"/> <polygon fill="LightGray" points="1073,504 2170,1348 2029,909" opacity="0.9216281275166005"/> <polygon fill="rgba(130,116,33,0.2849)" points="219,197 488,482 485,788" opacity="0.9216281275166005"/> <polygon fill="0xbc10c5" points="25,652 188,1022 581,1324" opacity="0.9216281275166005"/> <polygon fill="DarkViolet" points="534,373 911,529 570,1402" opacity="0.9216281275166005"/> <polygon fill="#724b5d" points="274,962 1086,1936 813,906" opacity="0.9216281275166005"/> <polygon fill="0x052a55" points="-3,637 53,1640 773,602" opacity="0.9216281275166005"/> <polygon fill="rgba(152,63,97,0.2046)" points=" 454,330 801,1148 1125,455 440,1395 1277,859 900,1072 437,949 1234,1358" opacity="0.9216281275166005" /></svg>