<svg version="1.1" width="1000" height="1000" xmlns="http://www.w3.org/2000/svg" style="background-color:rgb(163,180,33)"><circle cx="155" cy="164" r="100" opacity="0.3" fill="DarkKhaki"/><circle cx="1045" cy="960" r="359" opacity="0.3" fill="PapayaWhip"/><polygon fill="rgba(67,87,237,0.9769)" points="830,1085 1322,1425 835,2067" opacity="0.3"/> <polygon fill="#b07" points="262,190 511,1056 248,172" opacity="0.3"/> <polygon fill="#1dc" points="894,641 1588,1691 1746,1488" opacity="0.3"/> <polygon fill="rgb(240,15,208)" points="617,631 1089,1508 1340,1709" opacity="0.3"/> <polygon fill="#f17ffc" points="733,397 1082,1405 1695,776" opacity="0.3"/> <polygon fill="0xa4f411" points="736,-46 1553,278 1452,873" opacity="0.3"/> <polygon fill="rgb(56,86,152)" points="333,791 699,980 521,760" opacity="0.3"/> <polygon fill="#708f53" points="114,744 677,1713 1184,1023" opacity="0.3"/> <polygon fill="#562" points="216,981 652,2011 614,1335" opacity="0.3"/> <polygon fill="MidnightBlue" points="442,314 1493,531 1350,958" opacity="0.3"/> <polygon fill="rgba(138,85,253,0.9349)" points="103,123 148,696 1096,597" opacity="0.3"/> <polygon fill="rgba(175,229,218,0.2062)" points="394,-95 1008,-92 1252,436" opacity="0.3"/> <polygon fill="rgba(129,90,184,0.6951)" points="-79,218 587,719 -174,931" opacity="0.3"/> <polygon fill="#f7a0f2" points="42,255 250,319 364,354" opacity="0.3"/> <polygon fill="#4a6" points="-61,775 39,1631 412,1450" opacity="0.3"/> <polygon fill="#716" points="957,500 1063,417 1226,961" opacity="0.3"/> <polygon fill="#936" points="386,419 1080,1012 637,1400" opacity="0.3"/> <polygon fill="rgb(8,59,130)" points="-58,737 358,736 978,1281" opacity="0.3"/> <polygon fill="rgba(162,107,209,0.0347)" points="745,-39 1745,861 935,391" opacity="0.3"/> <polygon fill="Yellow" points="535,915 469,863 788,1937" opacity="0.3"/> </svg>