<svg version="1.1" width="1000" height="1000" xmlns="http://www.w3.org/2000/svg" style="background-color:0x899bf0"><line stroke="rgba(6,83,110,0.2568)" stroke-width="1" opacity="0.8569423932836164" x1="730" y1="371" x2="1014" y2="275" /><line stroke="rgba(3,218,74,0.3691)" stroke-width="5" opacity="0.8569423932836164" x1="852" y1="842" x2="897" y2="191" /><line stroke="#275ef8" stroke-width="4" opacity="0.8569423932836164" x1="-8" y1="916" x2="-12" y2="978" /><line stroke="LightSlateGray" stroke-width="4" opacity="0.8569423932836164" x1="613" y1="211" x2="84" y2="947" /><line stroke="rgb(53,73,237)" stroke-width="3" opacity="0.8569423932836164" x1="153" y1="1099" x2="970" y2="458" /><line stroke="0xe5c344" stroke-width="3" opacity="0.8569423932836164" x1="180" y1="264" x2="729" y2="508" /><line stroke="rgb(241,194,189)" stroke-width="5" opacity="0.8569423932836164" x1="821" y1="748" x2="698" y2="-84" /><line stroke="#0c0" stroke-width="5" opacity="0.8569423932836164" x1="996" y1="21" x2="24" y2="999" /><line stroke="#acffa3" stroke-width="2" opacity="0.8569423932836164" x1="-99" y1="337" x2="926" y2="1034" /><line stroke="#0109e9" stroke-width="5" opacity="0.8569423932836164" x1="213" y1="203" x2="613" y2="818" /><line stroke="0x51c470" stroke-width="1" opacity="0.8569423932836164" x1="183" y1="1025" x2="166" y2="106" /><line stroke="0x90823a" stroke-width="5" opacity="0.8569423932836164" x1="348" y1="392" x2="-66" y2="1048" /><line stroke="#a4b" stroke-width="3" opacity="0.8569423932836164" x1="878" y1="575" x2="528" y2="908" /><line stroke="#b24328" stroke-width="3" opacity="0.8569423932836164" x1="-78" y1="53" x2="996" y2="268" /><line stroke="rgb(98,246,124)" stroke-width="2" opacity="0.8569423932836164" x1="475" y1="-66" x2="530" y2="851" /><line stroke="rgba(229,228,109,0.7716)" stroke-width="4" opacity="0.8569423932836164" x1="-24" y1="1099" x2="849" y2="153" /><line stroke="LightPink" stroke-width="3" opacity="0.8569423932836164" x1="488" y1="257" x2="670" y2="1" /><line stroke="DarkGoldenRod" stroke-width="1" opacity="0.8569423932836164" x1="1042" y1="854" x2="334" y2="292" /><line stroke="Plum" stroke-width="1" opacity="0.8569423932836164" x1="-88" y1="-99" x2="266" y2="631" /><line stroke="0xa0759d" stroke-width="2" opacity="0.8569423932836164" x1="862" y1="93" x2="1022" y2="717" /><line stroke="0x5e5862" stroke-width="3" opacity="0.8569423932836164" x1="613" y1="72" x2="276" y2="560" /><line stroke="#3501cd" stroke-width="4" opacity="0.8569423932836164" x1="956" y1="723" x2="-86" y2="195" /><line stroke="rgba(143,189,63,0.0688)" stroke-width="1" opacity="0.8569423932836164" x1="3" y1="185" x2="-33" y2="212" /><line stroke="rgba(192,131,99,0.1991)" stroke-width="4" opacity="0.8569423932836164" x1="627" y1="919" x2="553" y2="215" /><circle cx="469" cy="708" r="644" opacity="0.8569423932836164" fill="RebeccaPurple"/><polygon fill="#f74" points="191,377 202,825 963,959" opacity="0.8569423932836164"/> <polygon fill="Gray" points="1083,-8 1997,934 1672,388" opacity="0.8569423932836164"/> <polygon fill="rgb(18,38,175)" points="672,1031 1686,1240 607,1751" opacity="0.8569423932836164"/> <polygon fill="0xa73a37" points="322,911 902,926 1332,1899" opacity="0.8569423932836164"/> <polygon fill="#a4b" points="-24,718 886,1524 296,766" opacity="0.8569423932836164"/> <polygon fill="rgba(180,211,63,0.1852)" points="278,827 716,848 1325,878" opacity="0.8569423932836164"/> <polygon fill="#a23" points="-44,308 287,294 346,1166" opacity="0.8569423932836164"/> <polygon fill="NavajoWhite" points="-43,182 995,591 453,1114" opacity="0.8569423932836164"/> <polygon fill="0x5f1d05" points="659,733 828,1506 799,872" opacity="0.8569423932836164"/> <polygon fill="PaleVioletRed" points="486,528 1108,625 834,1187" opacity="0.8569423932836164"/> <polygon fill="#72c2f7" points=" -77,473 181,544 -111,1102 148,1464 -140,1070 35,655 543,1213" opacity="0.8569423932836164" /></svg>