<svg version="1.1" width="1000" height="1000" xmlns="http://www.w3.org/2000/svg" style="background-color:rgba(188,75,24,0.2494)"><line stroke="rgb(15,194,244)" stroke-width="1" opacity="0.3219158067775454" x1="-74" y1="652" x2="-74" y2="868" /><line stroke="SeaShell" stroke-width="2" opacity="0.3219158067775454" x1="364" y1="784" x2="956" y2="698" /><line stroke="rgba(135,203,137,0.6684)" stroke-width="1" opacity="0.3219158067775454" x1="1015" y1="956" x2="903" y2="683" /><line stroke="#27e" stroke-width="1" opacity="0.3219158067775454" x1="422" y1="376" x2="499" y2="88" /><line stroke="#ea6" stroke-width="5" opacity="0.3219158067775454" x1="335" y1="938" x2="-86" y2="201" /><line stroke="#367d5e" stroke-width="4" opacity="0.3219158067775454" x1="943" y1="-73" x2="669" y2="584" /><line stroke="DarkRed" stroke-width="1" opacity="0.3219158067775454" x1="320" y1="182" x2="68" y2="1016" /><line stroke="Crimson" stroke-width="3" opacity="0.3219158067775454" x1="558" y1="715" x2="-89" y2="552" /><line stroke="Cyan" stroke-width="2" opacity="0.3219158067775454" x1="890" y1="149" x2="712" y2="415" /><line stroke="#df3" stroke-width="4" opacity="0.3219158067775454" x1="286" y1="53" x2="734" y2="351" /><line stroke="0x229977" stroke-width="5" opacity="0.3219158067775454" x1="572" y1="638" x2="817" y2="324" /><line stroke="0xaf6813" stroke-width="5" opacity="0.3219158067775454" x1="342" y1="558" x2="1043" y2="81" /><line stroke="0x712900" stroke-width="5" opacity="0.3219158067775454" x1="402" y1="343" x2="958" y2="361" /><line stroke="#203" stroke-width="3" opacity="0.3219158067775454" x1="311" y1="101" x2="78" y2="367" /><line stroke="rgb(145,160,231)" stroke-width="3" opacity="0.3219158067775454" x1="807" y1="734" x2="313" y2="1056" /><line stroke="DarkGray" stroke-width="2" opacity="0.3219158067775454" x1="422" y1="258" x2="654" y2="914" /><line stroke="#dfe" stroke-width="3" opacity="0.3219158067775454" x1="243" y1="900" x2="928" y2="1091" /><line stroke="rgba(215,69,32,0.2921)" stroke-width="4" opacity="0.3219158067775454" x1="724" y1="418" x2="683" y2="272" /><line stroke="rgba(197,153,160,0.8505)" stroke-width="2" opacity="0.3219158067775454" x1="410" y1="216" x2="-33" y2="342" /><line stroke="0x5b7ed9" stroke-width="5" opacity="0.3219158067775454" x1="1097" y1="145" x2="183" y2="719" /><line stroke="PaleVioletRed" stroke-width="3" opacity="0.3219158067775454" x1="725" y1="286" x2="889" y2="51" /><line stroke="0x5209c3" stroke-width="3" opacity="0.3219158067775454" x1="208" y1="168" x2="880" y2="784" /><circle cx="160" cy="956" r="116" opacity="0.3219158067775454" fill="rgb(34,59,238)"/><circle cx="-14" cy="363" r="373" opacity="0.3219158067775454" fill="#285"/><circle cx="916" cy="442" r="765" opacity="0.3219158067775454" fill="#9c1"/><circle cx="464" cy="727" r="214" opacity="0.3219158067775454" fill="rgba(76,197,198,0.9211)"/><circle cx="454" cy="-41" r="597" opacity="0.3219158067775454" fill="#493310"/><circle cx="337" cy="-14" r="1017" opacity="0.3219158067775454" fill="rgb(43,52,48)"/><circle cx="289" cy="924" r="439" opacity="0.3219158067775454" fill="0xf0ec4d"/><circle cx="535" cy="479" r="252" opacity="0.3219158067775454" fill="#9eb"/><circle cx="-33" cy="535" r="393" opacity="0.3219158067775454" fill="#2ec13d"/><polygon fill="#bcbf4a" points="926,550 1057,786 1258,1166" opacity="0.3219158067775454"/> <polygon fill="rgba(29,101,247,0.7398)" points="520,188 946,743 743,1286" opacity="0.3219158067775454"/> <polygon fill="rgb(92,115,185)" points="788,895 1444,1843 1272,1990" opacity="0.3219158067775454"/> <polygon fill="#2f6" points="198,258 571,1231 790,1074" opacity="0.3219158067775454"/> <polygon fill="#251" points="941,1073 964,1070 1047,1474" opacity="0.3219158067775454"/> <polygon fill="#4f83c1" points="355,793 712,1714 864,898" opacity="0.3219158067775454"/> <polygon fill="rgb(179,249,154)" points="102,178 729,364 456,372" opacity="0.3219158067775454"/> <polygon fill="#659" points="475,520 425,1076 1015,1316" opacity="0.3219158067775454"/> <polygon fill="rgba(25,183,84,0.5405)" points="862,1031 1142,1558 1424,1625" opacity="0.3219158067775454"/> <polygon fill="#def" points="560,443 658,1377 1513,748" opacity="0.3219158067775454"/> <polygon fill="0xee2e90" points="129,1066 1143,1897 859,2159" opacity="0.3219158067775454"/> <polygon fill="#296815" points="695,-5 758,-19 1768,-79" opacity="0.3219158067775454"/> <polygon fill="0x068164" points="698,-49 1442,593 662,809" opacity="0.3219158067775454"/> <polygon fill="0xc68fdb" points="982,-99 1415,504 1641,398" opacity="0.3219158067775454"/> <polygon fill="rgb(170,234,112)" points="152,297 154,225 704,415" opacity="0.3219158067775454"/> <polygon fill="0x3c74df" points="-3,1088 335,2170 1012,1136" opacity="0.3219158067775454"/> </svg>