<svg version="1.1" width="1000" height="1000" xmlns="http://www.w3.org/2000/svg" style="background-color:0x26c100"><line stroke="HoneyDew" stroke-width="4" opacity="0.6396595032832455" x1="197" y1="68" x2="152" y2="597" /><line stroke="rgba(131,136,7,0.1697)" stroke-width="1" opacity="0.6396595032832455" x1="140" y1="138" x2="491" y2="628" /><line stroke="Peru" stroke-width="3" opacity="0.6396595032832455" x1="437" y1="360" x2="1011" y2="113" /><line stroke="Yellow" stroke-width="3" opacity="0.6396595032832455" x1="188" y1="-13" x2="99" y2="986" /><line stroke="#e8381c" stroke-width="4" opacity="0.6396595032832455" x1="431" y1="427" x2="914" y2="593" /><line stroke="rgb(175,86,85)" stroke-width="4" opacity="0.6396595032832455" x1="473" y1="464" x2="535" y2="544" /><line stroke="#0b578d" stroke-width="4" opacity="0.6396595032832455" x1="225" y1="1001" x2="1058" y2="556" /><line stroke="rgba(164,35,204,0.7837)" stroke-width="4" opacity="0.6396595032832455" x1="911" y1="396" x2="9" y2="353" /><line stroke="0x992035" stroke-width="5" opacity="0.6396595032832455" x1="409" y1="237" x2="-17" y2="418" /><line stroke="0x50531a" stroke-width="3" opacity="0.6396595032832455" x1="363" y1="508" x2="102" y2="566" /><line stroke="#64bfbd" stroke-width="5" opacity="0.6396595032832455" x1="298" y1="141" x2="-62" y2="33" /><line stroke="#83b895" stroke-width="5" opacity="0.6396595032832455" x1="1023" y1="527" x2="858" y2="493" /><line stroke="0xa122c9" stroke-width="4" opacity="0.6396595032832455" x1="843" y1="512" x2="917" y2="291" /><line stroke="#2d1" stroke-width="5" opacity="0.6396595032832455" x1="512" y1="345" x2="195" y2="579" /><line stroke="rgba(236,126,151,0.1888)" stroke-width="3" opacity="0.6396595032832455" x1="229" y1="697" x2="1009" y2="163" /><line stroke="rgba(25,103,96,0.7516)" stroke-width="1" opacity="0.6396595032832455" x1="436" y1="423" x2="254" y2="269" /><line stroke="LawnGreen" stroke-width="3" opacity="0.6396595032832455" x1="114" y1="191" x2="847" y2="731" /><line stroke="Orchid" stroke-width="5" opacity="0.6396595032832455" x1="222" y1="423" x2="441" y2="1096" /><line stroke="0x65ad30" stroke-width="4" opacity="0.6396595032832455" x1="579" y1="875" x2="662" y2="910" /><line stroke="rgb(84,49,203)" stroke-width="5" opacity="0.6396595032832455" x1="158" y1="550" x2="567" y2="826" /><line stroke="rgba(129,189,12,0.8017)" stroke-width="4" opacity="0.6396595032832455" x1="375" y1="760" x2="716" y2="276" /><line stroke="rgba(106,118,239,0.5002)" stroke-width="3" opacity="0.6396595032832455" x1="537" y1="668" x2="577" y2="776" /><circle cx="580" cy="722" r="91" opacity="0.6396595032832455" fill="#e58"/><circle cx="68" cy="20" r="472" opacity="0.6396595032832455" fill="rgba(226,70,11,0.4712)"/><circle cx="146" cy="884" r="268" opacity="0.6396595032832455" fill="#cbb5ba"/><circle cx="530" cy="929" r="543" opacity="0.6396595032832455" fill="rgb(138,46,138)"/><circle cx="647" cy="4" r="56" opacity="0.6396595032832455" fill="0xaf7456"/><circle cx="847" cy="682" r="245" opacity="0.6396595032832455" fill="#807"/></svg>