<svg version="1.1" width="1000" height="1000" xmlns="http://www.w3.org/2000/svg" style="background-color:rgba(119,46,248,0.4282)"><line stroke="#b716fe" stroke-width="2" opacity="0.3" x1="421" y1="-75" x2="663" y2="204" /><line stroke="#d73" stroke-width="5" opacity="0.3" x1="-45" y1="719" x2="617" y2="159" /><line stroke="#028" stroke-width="1" opacity="0.3" x1="686" y1="448" x2="584" y2="581" /><line stroke="rgb(46,143,216)" stroke-width="3" opacity="0.3" x1="1002" y1="7" x2="44" y2="906" /><line stroke="rgb(19,151,187)" stroke-width="3" opacity="0.3" x1="431" y1="687" x2="967" y2="1012" /><line stroke="rgba(213,52,53,0.2208)" stroke-width="3" opacity="0.3" x1="744" y1="166" x2="1033" y2="619" /><line stroke="#59e2bc" stroke-width="1" opacity="0.3" x1="-48" y1="65" x2="754" y2="709" /><line stroke="0xe5ac51" stroke-width="1" opacity="0.3" x1="906" y1="81" x2="-45" y2="81" /><line stroke="LightSlateGray" stroke-width="5" opacity="0.3" x1="216" y1="1044" x2="1034" y2="309" /><line stroke="#b90" stroke-width="1" opacity="0.3" x1="577" y1="1050" x2="-42" y2="583" /><circle cx="-93" cy="446" r="536" opacity="0.3" fill="Black"/><circle cx="330" cy="69" r="637" opacity="0.3" fill="rgb(79,82,88)"/><circle cx="514" cy="621" r="905" opacity="0.3" fill="rgba(186,120,17,0.4634)"/><polygon fill="#221b09" points="-88,6 787,210 715,934" opacity="0.3"/> <polygon fill="rgba(206,203,206,0.4233)" points="750,1061 1646,1147 890,1082" opacity="0.3"/> <polygon fill="Tan" points="260,760 1047,714 364,1425" opacity="0.3"/> <polygon fill="0x8df973" points="698,752 771,1724 1046,1795" opacity="0.3"/> <polygon fill="rgb(218,92,116)" points="1002,735 1677,981 1372,1443" opacity="0.3"/> <polygon fill="#0e1" points="508,19 1363,31 1046,163" opacity="0.3"/> <polygon fill="#a32ae7" points="890,648 1926,1437 1531,756" opacity="0.3"/> <polygon fill="0x9f10f1" points="1054,346 2129,1398 1032,926" opacity="0.3"/> <polygon fill="0xccd538" points="888,809 1761,1549 1895,1257" opacity="0.3"/> <polygon fill="PapayaWhip" points="318,-90 361,503 578,235" opacity="0.3"/> <polygon fill="#60f" points="660,131 814,792 1021,719" opacity="0.3"/> <polygon fill="#c87" points="397,528 837,1029 1416,1604" opacity="0.3"/> <polygon fill="0x16fdf4" points="624,140 1264,62 1095,296" opacity="0.3"/> <polygon fill="DarkSlateBlue" points="-69,411 463,1380 573,1369" opacity="0.3"/> </svg>