<svg version="1.1" width="1000" height="1000" xmlns="http://www.w3.org/2000/svg" style="background-color:DodgerBlue"><line stroke="rgba(44,218,81,0.6792)" stroke-width="2" opacity="0.3" x1="773" y1="836" x2="79" y2="392" /><line stroke="#e7795b" stroke-width="2" opacity="0.3" x1="230" y1="-23" x2="587" y2="918" /><line stroke="RosyBrown" stroke-width="3" opacity="0.3" x1="771" y1="191" x2="302" y2="916" /><line stroke="0xfa764d" stroke-width="5" opacity="0.3" x1="544" y1="914" x2="-8" y2="673" /><line stroke="#767" stroke-width="2" opacity="0.3" x1="850" y1="220" x2="457" y2="-43" /><line stroke="rgb(164,30,78)" stroke-width="4" opacity="0.3" x1="144" y1="449" x2="1049" y2="434" /><line stroke="rgba(110,9,201,0.9705)" stroke-width="3" opacity="0.3" x1="720" y1="-55" x2="1091" y2="-6" /><line stroke="rgba(154,122,56,0.6061)" stroke-width="3" opacity="0.3" x1="1094" y1="227" x2="994" y2="485" /><line stroke="0x5aef54" stroke-width="4" opacity="0.3" x1="899" y1="391" x2="333" y2="720" /><line stroke="#23e" stroke-width="4" opacity="0.3" x1="465" y1="651" x2="-30" y2="225" /><line stroke="#7653bf" stroke-width="1" opacity="0.3" x1="-5" y1="659" x2="904" y2="378" /><line stroke="0x36a577" stroke-width="3" opacity="0.3" x1="232" y1="128" x2="439" y2="501" /><line stroke="rgba(88,4,71,0.6106)" stroke-width="5" opacity="0.3" x1="601" y1="263" x2="860" y2="676" /><line stroke="#5bc" stroke-width="3" opacity="0.3" x1="828" y1="503" x2="840" y2="394" /><line stroke="rgba(167,16,168,0.7624)" stroke-width="4" opacity="0.3" x1="448" y1="147" x2="329" y2="817" /><line stroke="#778328" stroke-width="3" opacity="0.3" x1="-23" y1="1034" x2="960" y2="860" /><line stroke="Moccasin" stroke-width="4" opacity="0.3" x1="610" y1="971" x2="846" y2="738" /><line stroke="#a48" stroke-width="4" opacity="0.3" x1="654" y1="825" x2="642" y2="581" /><line stroke="rgba(236,144,72,0.4818)" stroke-width="2" opacity="0.3" x1="81" y1="188" x2="-19" y2="696" /><line stroke="rgba(36,71,171,0.767)" stroke-width="4" opacity="0.3" x1="1083" y1="597" x2="686" y2="639" /><line stroke="#13d" stroke-width="3" opacity="0.3" x1="460" y1="557" x2="-10" y2="41" /><line stroke="#3deb28" stroke-width="5" opacity="0.3" x1="96" y1="78" x2="254" y2="-31" /><line stroke="0xe00113" stroke-width="3" opacity="0.3" x1="15" y1="775" x2="-54" y2="-62" /><line stroke="#ad7d66" stroke-width="5" opacity="0.3" x1="69" y1="1018" x2="796" y2="944" /><circle cx="581" cy="164" r="206" opacity="0.3" fill="#dc7"/><circle cx="436" cy="-84" r="791" opacity="0.3" fill="rgb(240,161,170)"/><circle cx="989" cy="1023" r="605" opacity="0.3" fill="rgba(134,94,9,0.4889)"/><circle cx="918" cy="682" r="358" opacity="0.3" fill="rgba(134,111,111,0.9535)"/><circle cx="665" cy="783" r="991" opacity="0.3" fill="0x58708c"/><polygon fill="0xcdd1b6" points="655,743 1678,1211 1305,1589" opacity="0.3"/> <polygon fill="0x17b0ec" points="830,447 745,1080 1726,534" opacity="0.3"/> <polygon fill="rgb(121,43,94)" points="833,878 1198,1589 767,1114" opacity="0.3"/> <polygon fill="rgba(15,56,171,0.0745)" points="536,343 482,970 502,1009" opacity="0.3"/> <polygon fill="rgb(131,69,135)" points="423,233 667,436 670,400" opacity="0.3"/> <polygon fill="rgb(176,213,14)" points="274,717 1044,647 1198,1428" opacity="0.3"/> <polygon fill="#534" points="41,598 838,1658 610,680" opacity="0.3"/> <polygon fill="#a0dd72" points="1056,643 1756,1052 1874,655" opacity="0.3"/> <polygon fill="LightSeaGreen" points="800,987 1225,1443 1064,1024" opacity="0.3"/> <polygon fill="#315fdc" points="737,611 1013,659 770,1390" opacity="0.3"/> <polygon fill="rgb(144,180,66)" points="899,343 1724,476 1168,838" opacity="0.3"/> <polygon fill="rgba(175,78,127,0.6762)" points="-18,412 316,757 446,495" opacity="0.3"/> <polygon fill="Aquamarine" points="628,1096 842,1260 684,2089" opacity="0.3"/> <polygon fill="#751f4c" points="319,335 1148,325 256,320" opacity="0.3"/> <polygon fill="rgba(4,222,238,0.9982)" points="223,627 207,1204 990,1154" opacity="0.3"/> <polygon fill="Ivory" points="242,419 780,1432 379,1099" opacity="0.3"/> <polygon fill="rgba(164,225,233,0.9021)" points="559,1027 1411,1136 624,1578" opacity="0.3"/> <polygon fill="rgba(113,236,56,0.0094)" points="-50,836 24,1673 507,1435" opacity="0.3"/> <polygon fill="0x439e40" points="-72,479 449,570 950,1000" opacity="0.3"/> <polygon fill="0xe9576e" points="365,16 1110,180 265,365" opacity="0.3"/> <polygon fill="rgba(253,224,46,0.427)" points=" 903,480 1822,1030 1675,389 1771,1263 1078,766 1524,555 1204,1102" opacity="0.3" /></svg>