<svg version="1.1" width="1000" height="1000" xmlns="http://www.w3.org/2000/svg" style="background-color:#ed1206"><line stroke="Coral" stroke-width="5" opacity="0.5656311786586061" x1="313" y1="543" x2="508" y2="499" /><line stroke="#aab19d" stroke-width="4" opacity="0.5656311786586061" x1="-5" y1="736" x2="157" y2="1044" /><line stroke="rgba(171,223,107,0.5514)" stroke-width="1" opacity="0.5656311786586061" x1="848" y1="106" x2="1025" y2="765" /><line stroke="#ed0" stroke-width="5" opacity="0.5656311786586061" x1="357" y1="980" x2="466" y2="890" /><line stroke="rgb(76,216,154)" stroke-width="2" opacity="0.5656311786586061" x1="19" y1="-10" x2="390" y2="557" /><line stroke="0x9b28bd" stroke-width="3" opacity="0.5656311786586061" x1="840" y1="789" x2="231" y2="295" /><line stroke="SeaGreen" stroke-width="4" opacity="0.5656311786586061" x1="145" y1="246" x2="287" y2="813" /><line stroke="#dde" stroke-width="4" opacity="0.5656311786586061" x1="861" y1="-99" x2="-4" y2="454" /><line stroke="rgba(89,28,218,0.6137)" stroke-width="1" opacity="0.5656311786586061" x1="278" y1="-92" x2="429" y2="632" /><circle cx="512" cy="61" r="154" opacity="0.5656311786586061" fill="#02d"/><circle cx="94" cy="93" r="625" opacity="0.5656311786586061" fill="rgba(200,177,18,0.2743)"/><circle cx="1007" cy="504" r="917" opacity="0.5656311786586061" fill="0xf0eee6"/><circle cx="707" cy="127" r="512" opacity="0.5656311786586061" fill="RebeccaPurple"/><circle cx="638" cy="-62" r="392" opacity="0.5656311786586061" fill="#78a"/><polygon fill="0xa34ccc" points="270,-68 276,1002 1362,346" opacity="0.5656311786586061"/> <polygon fill="#59c" points="1025,1033 1342,1208 1965,1312" opacity="0.5656311786586061"/> <polygon fill="rgb(4,193,73)" points="269,706 793,1278 222,1434" opacity="0.5656311786586061"/> <polygon fill="#e405c8" points="651,489 1128,1133 1584,1350" opacity="0.5656311786586061"/> <polygon fill="rgb(112,242,79)" points="1084,691 1735,1742 1911,1230" opacity="0.5656311786586061"/> <polygon fill="0x13715c" points="506,503 1362,695 1577,531" opacity="0.5656311786586061"/> <polygon fill="#fad031" points="322,-9 266,159 950,429" opacity="0.5656311786586061"/> <polygon fill="#60f" points="978,619 1402,1155 1802,1617" opacity="0.5656311786586061"/> <polygon fill="#a9c427" points="490,158 1204,608 1467,957" opacity="0.5656311786586061"/> <polygon fill="Ivory" points="1049,20 1343,266 1771,770" opacity="0.5656311786586061"/> <polygon fill="#9a5" points="894,668 1620,724 964,1366" opacity="0.5656311786586061"/> <polygon fill="rgb(105,23,23)" points="243,4 750,484 535,337" opacity="0.5656311786586061"/> <polygon fill="rgb(165,47,108)" points="174,231 414,887 1020,561" opacity="0.5656311786586061"/> <polygon fill="rgba(246,226,67,0.8926)" points="473,817 733,1287 443,1124" opacity="0.5656311786586061"/> <polygon fill="#865" points="478,331 771,397 755,385" opacity="0.5656311786586061"/> <polygon fill="#dc13ee" points="1002,823 1399,1546 1721,857" opacity="0.5656311786586061"/> <polygon fill="#5ce4e0" points="1078,636 1971,1734 1521,1547" opacity="0.5656311786586061"/> <polygon fill="rgb(105,142,96)" points="177,-76 196,-138 759,903" opacity="0.5656311786586061"/> <polygon fill="#ec9" points=" 721,1038 783,1189 947,1099 1384,2004 1625,2044 1202,1801 1264,1554 990,1132" opacity="0.5656311786586061" /></svg>