<svg version="1.1" width="1000" height="1000" xmlns="http://www.w3.org/2000/svg" style="background-color:rgba(124,53,24,0.6488)"><line stroke="Chocolate" stroke-width="1" opacity="0.8163499921688349" x1="408" y1="857" x2="203" y2="760" /><line stroke="#f26d8f" stroke-width="1" opacity="0.8163499921688349" x1="789" y1="207" x2="-99" y2="1050" /><line stroke="rgb(48,222,173)" stroke-width="2" opacity="0.8163499921688349" x1="915" y1="258" x2="676" y2="391" /><line stroke="rgb(200,185,94)" stroke-width="4" opacity="0.8163499921688349" x1="486" y1="746" x2="-27" y2="1047" /><line stroke="0xe3603c" stroke-width="2" opacity="0.8163499921688349" x1="180" y1="242" x2="686" y2="883" /><line stroke="#98c" stroke-width="2" opacity="0.8163499921688349" x1="363" y1="857" x2="53" y2="645" /><line stroke="rgb(168,114,137)" stroke-width="3" opacity="0.8163499921688349" x1="1068" y1="638" x2="379" y2="565" /><line stroke="0x57b99a" stroke-width="5" opacity="0.8163499921688349" x1="582" y1="762" x2="329" y2="55" /><line stroke="#29b" stroke-width="2" opacity="0.8163499921688349" x1="949" y1="1016" x2="14" y2="60" /><line stroke="DarkSalmon" stroke-width="1" opacity="0.8163499921688349" x1="1050" y1="733" x2="5" y2="611" /><line stroke="Linen" stroke-width="1" opacity="0.8163499921688349" x1="385" y1="807" x2="1034" y2="816" /><line stroke="#6ce1c9" stroke-width="5" opacity="0.8163499921688349" x1="377" y1="881" x2="580" y2="525" /><line stroke="#fc0838" stroke-width="3" opacity="0.8163499921688349" x1="1046" y1="1058" x2="393" y2="1081" /><line stroke="rgba(129,7,247,0.5052)" stroke-width="2" opacity="0.8163499921688349" x1="615" y1="17" x2="147" y2="691" /><line stroke="#715" stroke-width="4" opacity="0.8163499921688349" x1="868" y1="876" x2="777" y2="428" /><line stroke="#345d59" stroke-width="3" opacity="0.8163499921688349" x1="184" y1="-70" x2="1059" y2="551" /><line stroke="rgba(146,41,24,0.5941)" stroke-width="2" opacity="0.8163499921688349" x1="-1" y1="503" x2="724" y2="1100" /><line stroke="0xfb7313" stroke-width="5" opacity="0.8163499921688349" x1="-6" y1="985" x2="742" y2="146" /><circle cx="-75" cy="118" r="987" opacity="0.8163499921688349" fill="rgba(9,125,39,0.5692)"/><circle cx="368" cy="837" r="404" opacity="0.8163499921688349" fill="#35c6d9"/><circle cx="737" cy="498" r="738" opacity="0.8163499921688349" fill="#0469ff"/><circle cx="197" cy="621" r="219" opacity="0.8163499921688349" fill="#a53198"/><circle cx="461" cy="955" r="344" opacity="0.8163499921688349" fill="Plum"/><circle cx="295" cy="344" r="668" opacity="0.8163499921688349" fill="0xa900a4"/><circle cx="811" cy="3" r="792" opacity="0.8163499921688349" fill="#202930"/><circle cx="471" cy="466" r="256" opacity="0.8163499921688349" fill="AliceBlue"/><circle cx="660" cy="37" r="432" opacity="0.8163499921688349" fill="rgba(135,236,95,0.6943)"/><circle cx="438" cy="1051" r="65" opacity="0.8163499921688349" fill="0xbabb88"/><circle cx="589" cy="946" r="877" opacity="0.8163499921688349" fill="rgba(142,54,36,0.4603)"/><circle cx="901" cy="373" r="910" opacity="0.8163499921688349" fill="#165d52"/><circle cx="1055" cy="421" r="598" opacity="0.8163499921688349" fill="DarkBlue"/><circle cx="738" cy="802" r="310" opacity="0.8163499921688349" fill="ForestGreen"/><circle cx="736" cy="1018" r="308" opacity="0.8163499921688349" fill="#283"/><polygon fill="0x1b37a6" points="864,1000 1845,1722 1552,1067" opacity="0.8163499921688349"/> <polygon fill="0x686aa1" points="508,994 1009,1310 974,1306" opacity="0.8163499921688349"/> <polygon fill="Sienna" points="343,898 1436,1731 668,1966" opacity="0.8163499921688349"/> <polygon fill="#00ed64" points="118,140 281,342 633,297" opacity="0.8163499921688349"/> <polygon fill="#432" points="317,886 558,1101 632,1426" opacity="0.8163499921688349"/> </svg>