<svg version="1.1" width="1000" height="1000" xmlns="http://www.w3.org/2000/svg" style="background-color:rgba(120,144,235,0.9444)"><line stroke="RosyBrown" stroke-width="4" opacity="0.7596337290091963" x1="-84" y1="813" x2="787" y2="474" /><line stroke="rgb(62,58,251)" stroke-width="4" opacity="0.7596337290091963" x1="350" y1="581" x2="746" y2="61" /><line stroke="rgba(179,103,229,0.8544)" stroke-width="2" opacity="0.7596337290091963" x1="328" y1="535" x2="1041" y2="690" /><line stroke="#00b4b2" stroke-width="2" opacity="0.7596337290091963" x1="973" y1="741" x2="712" y2="580" /><line stroke="#5bcab2" stroke-width="3" opacity="0.7596337290091963" x1="1038" y1="344" x2="115" y2="144" /><line stroke="rgba(196,219,113,0.8486)" stroke-width="2" opacity="0.7596337290091963" x1="-52" y1="805" x2="907" y2="781" /><line stroke="#3c9" stroke-width="2" opacity="0.7596337290091963" x1="-82" y1="591" x2="79" y2="963" /><line stroke="#b51bce" stroke-width="5" opacity="0.7596337290091963" x1="843" y1="800" x2="433" y2="842" /><circle cx="440" cy="-89" r="1079" opacity="0.7596337290091963" fill="0x28e6bf"/><circle cx="369" cy="402" r="780" opacity="0.7596337290091963" fill="rgb(130,35,181)"/><circle cx="870" cy="750" r="325" opacity="0.7596337290091963" fill="rgba(78,193,58,0.0708)"/><circle cx="671" cy="1029" r="606" opacity="0.7596337290091963" fill="rgb(66,84,116)"/><circle cx="781" cy="-94" r="409" opacity="0.7596337290091963" fill="Black"/><circle cx="581" cy="993" r="320" opacity="0.7596337290091963" fill="rgba(103,123,163,0.0027)"/><circle cx="1014" cy="1043" r="1082" opacity="0.7596337290091963" fill="LemonChiffon"/><circle cx="602" cy="1045" r="295" opacity="0.7596337290091963" fill="SeaShell"/><polygon fill="rgba(98,5,213,0.8022)" points="208,358 1139,1372 931,583" opacity="0.7596337290091963"/> <polygon fill="LightPink" points="321,453 794,1505 582,1525" opacity="0.7596337290091963"/> <polygon fill="0x85ed63" points="400,175 698,443 374,829" opacity="0.7596337290091963"/> <polygon fill="#554" points="-85,190 941,854 -107,167" opacity="0.7596337290091963"/> <polygon fill="0x2be452" points="1001,508 1351,907 1136,723" opacity="0.7596337290091963"/> <polygon fill="DarkOrchid" points=" 1044,212 1386,257 1033,143 1889,591 1243,1092 1060,487 1548,737 1907,1036 1061,1249" opacity="0.7596337290091963" /></svg>