<svg version="1.1" width="1000" height="1000" xmlns="http://www.w3.org/2000/svg" style="background-color:rgba(62,3,94,0.16)"><circle cx="-92" cy="179" r="27" opacity="0.7570127978083192" fill="#966"/><circle cx="877" cy="1099" r="131" opacity="0.7570127978083192" fill="#651"/><circle cx="562" cy="710" r="79" opacity="0.7570127978083192" fill="#c13"/><circle cx="1024" cy="1100" r="676" opacity="0.7570127978083192" fill="PapayaWhip"/><polygon fill="rgb(228,115,26)" points="521,136 951,220 1095,833" opacity="0.7570127978083192"/> <polygon fill="#4c7" points="647,42 642,248 832,1127" opacity="0.7570127978083192"/> <polygon fill="rgb(225,166,13)" points="325,772 1368,1224 505,1050" opacity="0.7570127978083192"/> <polygon fill="HoneyDew" points="612,1026 1190,1439 758,1782" opacity="0.7570127978083192"/> <polygon fill="0xa80aa7" points="342,652 253,1557 1424,670" opacity="0.7570127978083192"/> <polygon fill="#d48" points="436,259 802,196 392,745" opacity="0.7570127978083192"/> <polygon fill="DarkTurquoise" points="92,704 330,1547 269,762" opacity="0.7570127978083192"/> <polygon fill="0x23060d" points="202,710 410,1313 810,1711" opacity="0.7570127978083192"/> <polygon fill="0xb630e3" points="869,466 1791,1192 1437,1438" opacity="0.7570127978083192"/> <polygon fill="rgb(82,194,152)" points="-88,1066 -1,1870 782,1225" opacity="0.7570127978083192"/> <polygon fill="#28f" points="21,207 633,1248 1074,841" opacity="0.7570127978083192"/> <polygon fill="#32f" points="1087,622 1424,1430 1986,854" opacity="0.7570127978083192"/> <polygon fill="#a03" points="968,49 1869,691 1914,518" opacity="0.7570127978083192"/> <polygon fill="0xbd1a05" points="-48,918 770,1910 -43,910" opacity="0.7570127978083192"/> <polygon fill="rgb(193,154,126)" points="363,1052 573,1290 310,1887" opacity="0.7570127978083192"/> <polygon fill="#2dae03" points="-86,461 966,565 39,1278" opacity="0.7570127978083192"/> <polygon fill="rgb(117,72,129)" points="768,875 708,1691 1806,1071" opacity="0.7570127978083192"/> <polygon fill="DarkBlue" points=" 1093,553 1624,664 1140,1276 1629,978 1901,782 1939,1241" opacity="0.7570127978083192" /></svg>