<svg version="1.1" width="1000" height="1000" xmlns="http://www.w3.org/2000/svg" style="background-color:#aca358"><line stroke="rgba(166,233,101,0.722)" stroke-width="2" opacity="0.9132782441276401" x1="1065" y1="12" x2="-20" y2="1014" /><line stroke="#146d26" stroke-width="3" opacity="0.9132782441276401" x1="1088" y1="359" x2="727" y2="575" /><line stroke="PeachPuff" stroke-width="1" opacity="0.9132782441276401" x1="1068" y1="406" x2="763" y2="916" /><line stroke="rgba(211,120,226,0.2577)" stroke-width="2" opacity="0.9132782441276401" x1="477" y1="352" x2="273" y2="271" /><line stroke="#544" stroke-width="4" opacity="0.9132782441276401" x1="645" y1="771" x2="568" y2="115" /><line stroke="#a40590" stroke-width="5" opacity="0.9132782441276401" x1="378" y1="42" x2="-9" y2="705" /><line stroke="0x7c7f31" stroke-width="1" opacity="0.9132782441276401" x1="993" y1="126" x2="98" y2="639" /><line stroke="rgb(154,152,212)" stroke-width="5" opacity="0.9132782441276401" x1="297" y1="752" x2="309" y2="196" /><line stroke="#012" stroke-width="4" opacity="0.9132782441276401" x1="380" y1="536" x2="1029" y2="1040" /><line stroke="rgba(65,71,8,0.5265)" stroke-width="4" opacity="0.9132782441276401" x1="-65" y1="347" x2="417" y2="302" /><line stroke="#44b90f" stroke-width="3" opacity="0.9132782441276401" x1="367" y1="54" x2="-62" y2="318" /><circle cx="910" cy="254" r="424" opacity="0.9132782441276401" fill="rgb(118,209,27)"/><circle cx="955" cy="974" r="767" opacity="0.9132782441276401" fill="#88d"/><circle cx="897" cy="439" r="886" opacity="0.9132782441276401" fill="#3721a7"/><circle cx="332" cy="175" r="632" opacity="0.9132782441276401" fill="rgb(94,15,61)"/><circle cx="1093" cy="459" r="944" opacity="0.9132782441276401" fill="0xf16c0d"/><circle cx="-73" cy="356" r="468" opacity="0.9132782441276401" fill="Moccasin"/><circle cx="1002" cy="163" r="333" opacity="0.9132782441276401" fill="rgb(12,146,37)"/><circle cx="1014" cy="-38" r="2" opacity="0.9132782441276401" fill="0x61717e"/><circle cx="421" cy="495" r="412" opacity="0.9132782441276401" fill="DarkSalmon"/><circle cx="-65" cy="471" r="467" opacity="0.9132782441276401" fill="#e25"/><circle cx="949" cy="1029" r="933" opacity="0.9132782441276401" fill="#ecf893"/><circle cx="235" cy="1006" r="443" opacity="0.9132782441276401" fill="#5c5"/><polygon fill="rgb(200,158,228)" points="435,98 508,495 418,100" opacity="0.9132782441276401"/> <polygon fill="rgba(228,109,215,0.554)" points="911,629 986,1103 848,1125" opacity="0.9132782441276401"/> <polygon fill="0x52253a" points="532,258 626,505 561,342" opacity="0.9132782441276401"/> <polygon fill="rgb(252,192,13)" points="-2,1024 -56,1174 765,1077" opacity="0.9132782441276401"/> <polygon fill="#7d7" points="1008,948 1811,856 1190,1699" opacity="0.9132782441276401"/> <polygon fill="rgba(81,129,143,0.7389)" points="1081,985 1367,1065 2038,2037" opacity="0.9132782441276401"/> <polygon fill="#ccc" points="643,467 863,712 1533,1094" opacity="0.9132782441276401"/> <polygon fill="#a8a" points=" -74,6 469,557 853,199 508,729 -74,-54" opacity="0.9132782441276401" /></svg>