<svg version="1.1" width="1000" height="1000" xmlns="http://www.w3.org/2000/svg" style="background-color:rgba(217,222,40,0.0867)"><line stroke="rgba(44,60,74,0.5796)" stroke-width="5" opacity="0.3" x1="1046" y1="866" x2="341" y2="887" /><line stroke="rgb(242,65,214)" stroke-width="5" opacity="0.3" x1="983" y1="642" x2="753" y2="1003" /><line stroke="rgb(229,250,229)" stroke-width="4" opacity="0.3" x1="270" y1="-63" x2="65" y2="956" /><line stroke="rgba(8,137,177,0.6982)" stroke-width="2" opacity="0.3" x1="973" y1="214" x2="398" y2="911" /><line stroke="rgb(181,203,39)" stroke-width="1" opacity="0.3" x1="850" y1="863" x2="861" y2="517" /><line stroke="rgba(113,32,223,0.8994)" stroke-width="5" opacity="0.3" x1="117" y1="675" x2="219" y2="1089" /><line stroke="#7d86d1" stroke-width="4" opacity="0.3" x1="312" y1="261" x2="260" y2="119" /><line stroke="#bee2b8" stroke-width="1" opacity="0.3" x1="229" y1="-99" x2="854" y2="643" /><line stroke="rgb(224,198,215)" stroke-width="5" opacity="0.3" x1="1053" y1="232" x2="74" y2="990" /><line stroke="MediumSlateBlue" stroke-width="2" opacity="0.3" x1="743" y1="5" x2="824" y2="675" /><line stroke="#b37" stroke-width="4" opacity="0.3" x1="456" y1="798" x2="1038" y2="850" /><line stroke="#b49618" stroke-width="2" opacity="0.3" x1="38" y1="1019" x2="162" y2="332" /><line stroke="0xb130ed" stroke-width="2" opacity="0.3" x1="535" y1="831" x2="17" y2="572" /><line stroke="#3cb" stroke-width="1" opacity="0.3" x1="128" y1="-11" x2="1096" y2="38" /><circle cx="185" cy="535" r="752" opacity="0.3" fill="0x0e963c"/><circle cx="465" cy="735" r="731" opacity="0.3" fill="#65b"/><circle cx="374" cy="650" r="777" opacity="0.3" fill="0x6895a8"/><circle cx="584" cy="701" r="864" opacity="0.3" fill="#5fd"/><circle cx="322" cy="247" r="777" opacity="0.3" fill="rgba(172,233,44,0.1811)"/><circle cx="548" cy="423" r="313" opacity="0.3" fill="rgb(207,67,127)"/><circle cx="987" cy="560" r="355" opacity="0.3" fill="#edb4c1"/><circle cx="1015" cy="288" r="100" opacity="0.3" fill="rgb(120,134,128)"/><circle cx="640" cy="81" r="35" opacity="0.3" fill="0x168cbe"/><circle cx="41" cy="659" r="306" opacity="0.3" fill="0x2bf4b0"/><polygon fill="0xeb10cf" points="446,141 1368,811 510,372" opacity="0.3"/> <polygon fill="#af6" points="1090,563 1547,1517 1071,628" opacity="0.3"/> <polygon fill="#8c9" points="124,785 620,689 1167,1023" opacity="0.3"/> <polygon fill="0x308c12" points="228,131 821,179 1068,858" opacity="0.3"/> <polygon fill="rgb(202,209,122)" points="182,488 257,480 277,933" opacity="0.3"/> <polygon fill="MistyRose" points="-96,-1 520,356 220,419" opacity="0.3"/> <polygon fill="GhostWhite" points="824,151 1293,1130 1695,101" opacity="0.3"/> </svg>