<svg version="1.1" width="1000" height="1000" xmlns="http://www.w3.org/2000/svg" style="background-color:#e2e55d"><line stroke="0x635341" stroke-width="5" opacity="0.9097980125450851" x1="465" y1="837" x2="203" y2="722" /><line stroke="#6fd" stroke-width="3" opacity="0.9097980125450851" x1="-95" y1="1002" x2="984" y2="631" /><line stroke="#251acc" stroke-width="3" opacity="0.9097980125450851" x1="12" y1="675" x2="1096" y2="1094" /><line stroke="Violet" stroke-width="3" opacity="0.9097980125450851" x1="911" y1="23" x2="652" y2="893" /><line stroke="Pink" stroke-width="2" opacity="0.9097980125450851" x1="792" y1="322" x2="579" y2="831" /><line stroke="rgb(197,73,113)" stroke-width="5" opacity="0.9097980125450851" x1="-29" y1="579" x2="176" y2="816" /><line stroke="LemonChiffon" stroke-width="1" opacity="0.9097980125450851" x1="303" y1="610" x2="1039" y2="641" /><line stroke="Chocolate" stroke-width="2" opacity="0.9097980125450851" x1="378" y1="339" x2="740" y2="-74" /><line stroke="#268575" stroke-width="5" opacity="0.9097980125450851" x1="489" y1="776" x2="1019" y2="933" /><line stroke="DarkOliveGreen" stroke-width="3" opacity="0.9097980125450851" x1="193" y1="310" x2="327" y2="721" /><line stroke="DarkGoldenRod" stroke-width="2" opacity="0.9097980125450851" x1="114" y1="1076" x2="-63" y2="1001" /><line stroke="rgb(44,144,253)" stroke-width="2" opacity="0.9097980125450851" x1="397" y1="20" x2="875" y2="880" /><line stroke="rgb(131,22,84)" stroke-width="1" opacity="0.9097980125450851" x1="393" y1="723" x2="559" y2="654" /><line stroke="rgba(107,216,8,0.7096)" stroke-width="4" opacity="0.9097980125450851" x1="940" y1="890" x2="-1" y2="876" /><line stroke="rgb(181,193,91)" stroke-width="2" opacity="0.9097980125450851" x1="704" y1="356" x2="227" y2="-79" /><line stroke="rgba(218,131,33,0.9993)" stroke-width="3" opacity="0.9097980125450851" x1="174" y1="640" x2="272" y2="-63" /><line stroke="#d4e7e9" stroke-width="3" opacity="0.9097980125450851" x1="576" y1="249" x2="655" y2="1014" /><line stroke="Cyan" stroke-width="5" opacity="0.9097980125450851" x1="392" y1="-91" x2="1070" y2="652" /><line stroke="rgb(178,157,229)" stroke-width="5" opacity="0.9097980125450851" x1="953" y1="605" x2="1078" y2="137" /><line stroke="0x3f4a66" stroke-width="1" opacity="0.9097980125450851" x1="208" y1="874" x2="932" y2="729" /><line stroke="#2c8755" stroke-width="3" opacity="0.9097980125450851" x1="599" y1="521" x2="834" y2="-71" /><line stroke="rgba(133,243,213,0.151)" stroke-width="3" opacity="0.9097980125450851" x1="181" y1="434" x2="437" y2="500" /><line stroke="#2a5a7f" stroke-width="3" opacity="0.9097980125450851" x1="811" y1="140" x2="277" y2="975" /><line stroke="0x28c404" stroke-width="1" opacity="0.9097980125450851" x1="775" y1="270" x2="-1" y2="1002" /><line stroke="0x22e6ac" stroke-width="2" opacity="0.9097980125450851" x1="141" y1="953" x2="566" y2="993" /><line stroke="rgb(167,175,68)" stroke-width="4" opacity="0.9097980125450851" x1="638" y1="771" x2="868" y2="924" /><circle cx="523" cy="386" r="872" opacity="0.9097980125450851" fill="0x13eb48"/><polygon fill="rgb(12,78,159)" points="975,806 1151,1131 1225,897" opacity="0.9097980125450851"/> <polygon fill="#787a2d" points="255,291 719,460 799,601" opacity="0.9097980125450851"/> <polygon fill="Azure" points="1015,113 1938,459 1164,974" opacity="0.9097980125450851"/> <polygon fill="rgba(110,144,193,0.3989)" points="830,-31 1755,-22 1766,548" opacity="0.9097980125450851"/> <polygon fill="rgb(201,175,112)" points="648,498 1714,1155 1460,1130" opacity="0.9097980125450851"/> <polygon fill="#a74c40" points="318,574 474,1133 1100,1016" opacity="0.9097980125450851"/> <polygon fill="#dfe2cd" points="926,713 1822,922 1150,867" opacity="0.9097980125450851"/> <polygon fill="BlanchedAlmond" points="518,501 724,1519 927,1384" opacity="0.9097980125450851"/> <polygon fill="MintCream" points="761,648 797,993 802,921" opacity="0.9097980125450851"/> <polygon fill="#87fb34" points="691,419 815,1012 1768,529" opacity="0.9097980125450851"/> <polygon fill="#514649" points="512,776 1391,1136 527,1074" opacity="0.9097980125450851"/> <polygon fill="GhostWhite" points="231,1000 1192,1622 272,1338" opacity="0.9097980125450851"/> <polygon fill="0x30a535" points="629,407 1107,544 983,1447" opacity="0.9097980125450851"/> <polygon fill="#eec" points="117,850 1012,928 1180,1265" opacity="0.9097980125450851"/> </svg>