<svg version="1.1" width="1000" height="1000" xmlns="http://www.w3.org/2000/svg" style="background-color:#40bd7b"><line stroke="0xbd088e" stroke-width="2" opacity="0.6707436658890982" x1="1012" y1="1033" x2="243" y2="122" /><line stroke="#b6e" stroke-width="3" opacity="0.6707436658890982" x1="104" y1="326" x2="891" y2="280" /><line stroke="#c7c" stroke-width="4" opacity="0.6707436658890982" x1="435" y1="1008" x2="392" y2="1026" /><line stroke="rgb(206,183,169)" stroke-width="3" opacity="0.6707436658890982" x1="130" y1="799" x2="125" y2="-34" /><line stroke="0x47c6b2" stroke-width="2" opacity="0.6707436658890982" x1="694" y1="420" x2="51" y2="125" /><line stroke="#042" stroke-width="4" opacity="0.6707436658890982" x1="548" y1="1038" x2="901" y2="644" /><line stroke="rgba(234,116,178,0.7089)" stroke-width="4" opacity="0.6707436658890982" x1="136" y1="-76" x2="34" y2="-23" /><line stroke="rgba(81,124,136,0.9034)" stroke-width="3" opacity="0.6707436658890982" x1="323" y1="550" x2="715" y2="495" /><line stroke="rgb(102,46,235)" stroke-width="4" opacity="0.6707436658890982" x1="549" y1="281" x2="568" y2="319" /><line stroke="rgb(178,81,112)" stroke-width="4" opacity="0.6707436658890982" x1="1007" y1="183" x2="167" y2="1091" /><line stroke="#f6d4ac" stroke-width="2" opacity="0.6707436658890982" x1="785" y1="408" x2="269" y2="693" /><line stroke="rgba(105,53,41,0.927)" stroke-width="4" opacity="0.6707436658890982" x1="10" y1="974" x2="660" y2="626" /><line stroke="0x463c52" stroke-width="4" opacity="0.6707436658890982" x1="297" y1="716" x2="1026" y2="-68" /><line stroke="rgb(67,75,78)" stroke-width="2" opacity="0.6707436658890982" x1="795" y1="186" x2="988" y2="-51" /><line stroke="#89a" stroke-width="1" opacity="0.6707436658890982" x1="528" y1="185" x2="679" y2="472" /><line stroke="0x4afd06" stroke-width="4" opacity="0.6707436658890982" x1="906" y1="247" x2="320" y2="663" /><line stroke="0x93283e" stroke-width="2" opacity="0.6707436658890982" x1="364" y1="1073" x2="286" y2="36" /><line stroke="0x449e03" stroke-width="3" opacity="0.6707436658890982" x1="343" y1="78" x2="797" y2="874" /><line stroke="#ec3" stroke-width="2" opacity="0.6707436658890982" x1="998" y1="591" x2="440" y2="426" /><line stroke="rgba(177,151,247,0.8711)" stroke-width="1" opacity="0.6707436658890982" x1="166" y1="568" x2="832" y2="37" /><line stroke="0xa5bb64" stroke-width="2" opacity="0.6707436658890982" x1="117" y1="215" x2="-98" y2="208" /><line stroke="0x4b8d81" stroke-width="3" opacity="0.6707436658890982" x1="724" y1="928" x2="398" y2="578" /><line stroke="SeaShell" stroke-width="4" opacity="0.6707436658890982" x1="461" y1="803" x2="68" y2="949" /><line stroke="WhiteSmoke" stroke-width="2" opacity="0.6707436658890982" x1="-78" y1="830" x2="756" y2="1053" /><line stroke="#0df603" stroke-width="4" opacity="0.6707436658890982" x1="19" y1="782" x2="1021" y2="942" /><line stroke="#3a1" stroke-width="5" opacity="0.6707436658890982" x1="856" y1="905" x2="50" y2="442" /><circle cx="566" cy="284" r="907" opacity="0.6707436658890982" fill="#187"/><circle cx="1030" cy="196" r="188" opacity="0.6707436658890982" fill="MediumOrchid"/><circle cx="874" cy="225" r="1030" opacity="0.6707436658890982" fill="#236"/><circle cx="361" cy="547" r="333" opacity="0.6707436658890982" fill="#dc0"/><circle cx="0" cy="834" r="682" opacity="0.6707436658890982" fill="rgb(201,125,157)"/><circle cx="591" cy="1090" r="103" opacity="0.6707436658890982" fill="rgba(32,190,138,0.1552)"/><circle cx="996" cy="664" r="611" opacity="0.6707436658890982" fill="rgba(160,221,116,0.4042)"/><circle cx="821" cy="567" r="839" opacity="0.6707436658890982" fill="GreenYellow"/><polygon fill="rgba(234,156,191,0.6943)" points="841,369 766,662 1135,1016" opacity="0.6707436658890982"/> <polygon fill="rgba(7,54,23,0.5613)" points="62,220 1104,1258 329,139" opacity="0.6707436658890982"/> <polygon fill="#9a3" points="94,917 484,1188 570,991" opacity="0.6707436658890982"/> <polygon fill="#d2c" points="883,850 1493,1614 1763,770" opacity="0.6707436658890982"/> <polygon fill="LightSalmon" points="933,764 1153,1065 2021,1551" opacity="0.6707436658890982"/> <polygon fill="0x92fd9a" points="673,866 1153,1691 887,1946" opacity="0.6707436658890982"/> <polygon fill="#1af" points="1066,1020 1220,1227 1881,940" opacity="0.6707436658890982"/> <polygon fill="rgba(199,92,253,0.009)" points="190,136 211,202 286,810" opacity="0.6707436658890982"/> <polygon fill="0x1f65f8" points="-52,-92 403,589 -5,315" opacity="0.6707436658890982"/> <polygon fill="0x180ca2" points="742,639 1515,804 1657,1015" opacity="0.6707436658890982"/> <polygon fill="#ca94b9" points="892,1026 874,1696 1574,1065" opacity="0.6707436658890982"/> <polygon fill="#54b" points="423,-26 661,356 1062,221" opacity="0.6707436658890982"/> <polygon fill="#3a0" points="684,-11 928,844 1324,481" opacity="0.6707436658890982"/> <polygon fill="rgba(100,184,18,0.0087)" points="615,762 1245,1277 1346,680" opacity="0.6707436658890982"/> <polygon fill="rgba(79,71,212,0.3182)" points="75,587 678,576 1033,657" opacity="0.6707436658890982"/> <polygon fill="#e418f4" points="366,228 928,1259 792,1273" opacity="0.6707436658890982"/> <polygon fill="#443c36" points=" 214,782 217,1498 757,1831 901,1465 499,929 775,1226 1053,1677" opacity="0.6707436658890982" /></svg>