<svg version="1.1" width="1000" height="1000" xmlns="http://www.w3.org/2000/svg" style="background-color:#586"><line stroke="#c882f6" stroke-width="1" opacity="0.3713571152274384" x1="776" y1="871" x2="128" y2="316" /><line stroke="rgba(121,97,212,0.1205)" stroke-width="5" opacity="0.3713571152274384" x1="27" y1="577" x2="765" y2="-25" /><line stroke="rgb(128,35,104)" stroke-width="3" opacity="0.3713571152274384" x1="887" y1="1050" x2="333" y2="488" /><line stroke="#9d6a2e" stroke-width="3" opacity="0.3713571152274384" x1="353" y1="128" x2="68" y2="216" /><line stroke="DodgerBlue" stroke-width="2" opacity="0.3713571152274384" x1="965" y1="1022" x2="918" y2="379" /><line stroke="rgb(202,20,53)" stroke-width="3" opacity="0.3713571152274384" x1="194" y1="230" x2="149" y2="46" /><line stroke="rgb(72,146,40)" stroke-width="1" opacity="0.3713571152274384" x1="837" y1="-95" x2="185" y2="598" /><line stroke="rgb(200,77,220)" stroke-width="2" opacity="0.3713571152274384" x1="59" y1="192" x2="356" y2="340" /><line stroke="rgba(76,164,193,0.3607)" stroke-width="4" opacity="0.3713571152274384" x1="175" y1="1076" x2="840" y2="47" /><line stroke="0xcd3d5b" stroke-width="5" opacity="0.3713571152274384" x1="207" y1="254" x2="25" y2="12" /><line stroke="rgba(150,85,8,0.1645)" stroke-width="4" opacity="0.3713571152274384" x1="108" y1="798" x2="432" y2="288" /><line stroke="SpringGreen" stroke-width="4" opacity="0.3713571152274384" x1="518" y1="732" x2="896" y2="152" /><line stroke="BlueViolet" stroke-width="5" opacity="0.3713571152274384" x1="830" y1="559" x2="684" y2="167" /><line stroke="MediumTurquoise" stroke-width="1" opacity="0.3713571152274384" x1="275" y1="781" x2="525" y2="460" /><line stroke="0x5e6b9d" stroke-width="5" opacity="0.3713571152274384" x1="1092" y1="-62" x2="140" y2="1079" /><line stroke="rgba(120,118,233,0.1153)" stroke-width="1" opacity="0.3713571152274384" x1="-100" y1="-49" x2="662" y2="886" /><line stroke="#c61" stroke-width="1" opacity="0.3713571152274384" x1="379" y1="183" x2="811" y2="994" /><line stroke="#e2d892" stroke-width="4" opacity="0.3713571152274384" x1="1093" y1="925" x2="277" y2="570" /><circle cx="687" cy="925" r="1040" opacity="0.3713571152274384" fill="rgb(232,99,143)"/><circle cx="687" cy="-68" r="397" opacity="0.3713571152274384" fill="0xbe03e3"/><circle cx="634" cy="552" r="13" opacity="0.3713571152274384" fill="#d58"/><circle cx="520" cy="595" r="971" opacity="0.3713571152274384" fill="LightSalmon"/><circle cx="518" cy="253" r="54" opacity="0.3713571152274384" fill="LightGray"/><circle cx="1055" cy="1018" r="431" opacity="0.3713571152274384" fill="#2f357e"/><circle cx="830" cy="369" r="224" opacity="0.3713571152274384" fill="#3b0"/><circle cx="1086" cy="336" r="392" opacity="0.3713571152274384" fill="rgb(28,50,211)"/><polygon fill="rgba(206,206,164,0.1972)" points="615,297 781,1234 965,1278" opacity="0.3713571152274384"/> <polygon fill="rgba(170,41,255,0.9034)" points="425,736 1288,1753 1452,1023" opacity="0.3713571152274384"/> <polygon fill="rgba(20,174,77,0.8336)" points="223,21 533,1013 961,675" opacity="0.3713571152274384"/> <polygon fill="LightSteelBlue" points="680,940 1301,1487 1553,862" opacity="0.3713571152274384"/> <polygon fill="0x6dd7bd" points="651,214 1129,396 616,1040" opacity="0.3713571152274384"/> <polygon fill="rgb(63,205,123)" points="-5,398 328,1243 92,634" opacity="0.3713571152274384"/> <polygon fill="rgba(198,14,227,0.7399)" points="1085,501 1938,983 1054,1562" opacity="0.3713571152274384"/> <polygon fill="rgb(130,199,211)" points="-36,432 656,645 605,1264" opacity="0.3713571152274384"/> <polygon fill="Maroon" points="135,751 360,1020 326,1145" opacity="0.3713571152274384"/> <polygon fill="rgb(66,120,44)" points="672,639 845,1429 1761,1455" opacity="0.3713571152274384"/> <polygon fill="#4c6" points="301,1062 1308,2060 406,1949" opacity="0.3713571152274384"/> <polygon fill="LightSkyBlue" points="960,57 1395,135 1461,355" opacity="0.3713571152274384"/> <polygon fill="rgb(191,115,54)" points="736,272 955,1058 740,340" opacity="0.3713571152274384"/> <polygon fill="MediumSeaGreen" points="1008,1056 1631,1244 1419,1039" opacity="0.3713571152274384"/> <polygon fill="rgb(171,107,10)" points="164,70 924,73 828,1081" opacity="0.3713571152274384"/> <polygon fill="rgba(115,193,112,0.2939)" points="562,164 1503,554 592,1053" opacity="0.3713571152274384"/> <polygon fill="0x4faf25" points="675,529 1062,550 1110,726" opacity="0.3713571152274384"/> <polygon fill="0x577720" points="286,910 226,1319 792,1737" opacity="0.3713571152274384"/> </svg>