<svg version="1.1" width="1000" height="1000" xmlns="http://www.w3.org/2000/svg" style="background-color:rgb(57,235,167)"><line stroke="0x8fc874" stroke-width="4" opacity="0.9463585158272041" x1="727" y1="87" x2="475" y2="1026" /><line stroke="#15a89e" stroke-width="2" opacity="0.9463585158272041" x1="659" y1="729" x2="455" y2="16" /><line stroke="#f26" stroke-width="4" opacity="0.9463585158272041" x1="804" y1="877" x2="655" y2="736" /><line stroke="rgb(123,140,184)" stroke-width="4" opacity="0.9463585158272041" x1="1064" y1="204" x2="777" y2="39" /><line stroke="DarkSeaGreen" stroke-width="3" opacity="0.9463585158272041" x1="334" y1="108" x2="945" y2="351" /><line stroke="#d46497" stroke-width="5" opacity="0.9463585158272041" x1="783" y1="1082" x2="547" y2="305" /><line stroke="#642" stroke-width="1" opacity="0.9463585158272041" x1="1027" y1="765" x2="406" y2="978" /><line stroke="rgba(125,193,123,0.6971)" stroke-width="2" opacity="0.9463585158272041" x1="781" y1="-78" x2="37" y2="995" /><line stroke="#7bf01f" stroke-width="3" opacity="0.9463585158272041" x1="-22" y1="384" x2="702" y2="510" /><line stroke="rgba(217,222,234,0.0096)" stroke-width="2" opacity="0.9463585158272041" x1="295" y1="295" x2="221" y2="974" /><line stroke="#cdfbff" stroke-width="5" opacity="0.9463585158272041" x1="268" y1="-60" x2="-48" y2="888" /><line stroke="rgba(58,86,204,0.2428)" stroke-width="4" opacity="0.9463585158272041" x1="393" y1="657" x2="447" y2="696" /><line stroke="GhostWhite" stroke-width="5" opacity="0.9463585158272041" x1="297" y1="938" x2="893" y2="-51" /><line stroke="#193" stroke-width="1" opacity="0.9463585158272041" x1="581" y1="928" x2="737" y2="928" /><line stroke="#238" stroke-width="4" opacity="0.9463585158272041" x1="960" y1="1064" x2="119" y2="822" /><line stroke="rgb(245,122,70)" stroke-width="2" opacity="0.9463585158272041" x1="93" y1="648" x2="-23" y2="-97" /><line stroke="0x7dea3e" stroke-width="3" opacity="0.9463585158272041" x1="663" y1="468" x2="470" y2="-43" /><line stroke="0xa12eee" stroke-width="1" opacity="0.9463585158272041" x1="536" y1="326" x2="543" y2="919" /><line stroke="#7ef102" stroke-width="3" opacity="0.9463585158272041" x1="456" y1="1076" x2="242" y2="358" /><line stroke="#c66" stroke-width="1" opacity="0.9463585158272041" x1="777" y1="383" x2="782" y2="40" /><line stroke="rgb(133,150,174)" stroke-width="3" opacity="0.9463585158272041" x1="721" y1="426" x2="325" y2="101" /><line stroke="rgba(159,200,180,0.3844)" stroke-width="2" opacity="0.9463585158272041" x1="-90" y1="125" x2="505" y2="309" /><line stroke="rgb(119,77,185)" stroke-width="4" opacity="0.9463585158272041" x1="621" y1="883" x2="762" y2="590" /><line stroke="#7a5" stroke-width="4" opacity="0.9463585158272041" x1="1052" y1="904" x2="30" y2="939" /><line stroke="rgba(71,224,36,0.538)" stroke-width="3" opacity="0.9463585158272041" x1="1007" y1="36" x2="820" y2="150" /><line stroke="#bf8585" stroke-width="5" opacity="0.9463585158272041" x1="257" y1="1065" x2="346" y2="356" /><line stroke="rgb(233,222,166)" stroke-width="2" opacity="0.9463585158272041" x1="770" y1="996" x2="-47" y2="573" /><circle cx="146" cy="477" r="288" opacity="0.9463585158272041" fill="#86e8ab"/><circle cx="981" cy="1072" r="701" opacity="0.9463585158272041" fill="#5e230d"/><circle cx="-89" cy="567" r="1031" opacity="0.9463585158272041" fill="rgb(248,145,164)"/><circle cx="1023" cy="408" r="448" opacity="0.9463585158272041" fill="Coral"/><polygon fill="rgb(77,136,2)" points="870,838 1858,1595 937,1783" opacity="0.9463585158272041"/> <polygon fill="rgb(7,15,86)" points="-61,687 204,632 503,1207" opacity="0.9463585158272041"/> <polygon fill="LightPink" points="1075,753 1227,889 1968,1155" opacity="0.9463585158272041"/> <polygon fill="LightBlue" points="613,255 1237,952 1323,675" opacity="0.9463585158272041"/> <polygon fill="#012f85" points="34,82 731,185 743,561" opacity="0.9463585158272041"/> <polygon fill="#ecb9fb" points="250,358 1224,667 1280,860" opacity="0.9463585158272041"/> <polygon fill="0x1a304c" points="602,635 1585,800 746,1220" opacity="0.9463585158272041"/> <polygon fill="LightGoldenRodYellow" points="17,730 -50,1570 585,825" opacity="0.9463585158272041"/> <polygon fill="0xc1bc47" points="839,181 989,280 1840,160" opacity="0.9463585158272041"/> <polygon fill="rgba(122,144,52,0.0455)" points="543,384 1624,436 1012,1230" opacity="0.9463585158272041"/> <polygon fill="rgba(125,4,157,0.9855)" points="182,684 794,1615 551,1015" opacity="0.9463585158272041"/> <polygon fill="rgb(173,152,46)" points="63,-61 -5,102 532,583" opacity="0.9463585158272041"/> <polygon fill="0x013394" points="-86,237 406,560 133,441" opacity="0.9463585158272041"/> <polygon fill="rgb(39,78,95)" points="586,242 1203,836 1248,462" opacity="0.9463585158272041"/> <polygon fill="#3c5" points="938,89 1921,625 872,994" opacity="0.9463585158272041"/> <polygon fill="ForestGreen" points="679,351 1740,334 1397,1437" opacity="0.9463585158272041"/> <polygon fill="0x1c8ffb" points="1033,1021 2115,1375 1814,1766" opacity="0.9463585158272041"/> <polygon fill="0x555617" points="178,742 864,1409 798,1235" opacity="0.9463585158272041"/> </svg>