<svg version="1.1" width="1000" height="1000" xmlns="http://www.w3.org/2000/svg" style="background-color:#7d9"><line stroke="#bfdbe3" stroke-width="2" opacity="0.7053298106648127" x1="326" y1="955" x2="1087" y2="513" /><line stroke="#96e421" stroke-width="2" opacity="0.7053298106648127" x1="354" y1="-77" x2="274" y2="730" /><line stroke="0xc8a8ae" stroke-width="1" opacity="0.7053298106648127" x1="874" y1="239" x2="651" y2="334" /><line stroke="LightSalmon" stroke-width="5" opacity="0.7053298106648127" x1="-29" y1="262" x2="495" y2="246" /><line stroke="rgb(192,34,203)" stroke-width="2" opacity="0.7053298106648127" x1="901" y1="285" x2="356" y2="316" /><line stroke="#885" stroke-width="2" opacity="0.7053298106648127" x1="1002" y1="998" x2="834" y2="83" /><line stroke="#dd2" stroke-width="3" opacity="0.7053298106648127" x1="497" y1="449" x2="966" y2="99" /><line stroke="rgba(20,244,30,0.2468)" stroke-width="5" opacity="0.7053298106648127" x1="238" y1="501" x2="621" y2="923" /><circle cx="502" cy="344" r="202" opacity="0.7053298106648127" fill="#d35463"/><circle cx="1057" cy="-46" r="305" opacity="0.7053298106648127" fill="#f2d"/><circle cx="668" cy="529" r="910" opacity="0.7053298106648127" fill="0xbbb8ce"/><polygon fill="#4b8" points="85,116 490,647 1031,495" opacity="0.7053298106648127"/> <polygon fill="#fd3" points="176,809 579,1445 710,1480" opacity="0.7053298106648127"/> <polygon fill="#dd2b08" points="997,385 1316,1092 1361,308" opacity="0.7053298106648127"/> <polygon fill="rgba(39,26,211,0.283)" points="-7,232 -2,933 791,1022" opacity="0.7053298106648127"/> <polygon fill="Snow" points="546,719 677,1186 669,1234" opacity="0.7053298106648127"/> <polygon fill="rgba(65,44,132,0.1957)" points="676,533 742,727 951,1512" opacity="0.7053298106648127"/> <polygon fill="#06a76f" points="416,469 1336,523 589,1084" opacity="0.7053298106648127"/> <polygon fill="#1ec" points="248,495 1336,1571 847,1340" opacity="0.7053298106648127"/> <polygon fill="#369" points="313,330 1291,1033 289,1377" opacity="0.7053298106648127"/> <polygon fill="#23b" points="-1,569 59,1021 741,514" opacity="0.7053298106648127"/> <polygon fill="0x017416" points="189,139 721,900 731,1212" opacity="0.7053298106648127"/> <polygon fill="0xd4a611" points="175,75 675,699 840,977" opacity="0.7053298106648127"/> <polygon fill="rgba(18,234,33,0.7962)" points="854,592 839,1084 1507,556" opacity="0.7053298106648127"/> <polygon fill="0x0ecffe" points="593,919 640,1587 1295,882" opacity="0.7053298106648127"/> <polygon fill="Cornsilk" points="918,413 1207,1396 1923,1299" opacity="0.7053298106648127"/> <polygon fill="0xe7e137" points="52,173 840,89 168,1232" opacity="0.7053298106648127"/> </svg>