<svg version="1.1" width="1000" height="1000" xmlns="http://www.w3.org/2000/svg" style="background-color:rgb(8,172,170)"><line stroke="#87c197" stroke-width="5" opacity="0.40515930808535616" x1="763" y1="894" x2="945" y2="703" /><line stroke="Silver" stroke-width="3" opacity="0.40515930808535616" x1="187" y1="996" x2="795" y2="302" /><line stroke="Tomato" stroke-width="5" opacity="0.40515930808535616" x1="977" y1="776" x2="911" y2="758" /><line stroke="rgba(208,55,190,0.8852)" stroke-width="1" opacity="0.40515930808535616" x1="221" y1="275" x2="238" y2="91" /><line stroke="rgb(255,49,229)" stroke-width="5" opacity="0.40515930808535616" x1="297" y1="10" x2="7" y2="265" /><line stroke="0xe5a563" stroke-width="3" opacity="0.40515930808535616" x1="769" y1="861" x2="917" y2="1014" /><line stroke="0xdb3ba5" stroke-width="5" opacity="0.40515930808535616" x1="639" y1="674" x2="101" y2="775" /><line stroke="0xb46e83" stroke-width="3" opacity="0.40515930808535616" x1="372" y1="805" x2="112" y2="22" /><line stroke="rgba(238,166,133,0.1109)" stroke-width="3" opacity="0.40515930808535616" x1="820" y1="927" x2="953" y2="-20" /><line stroke="0x78ff5d" stroke-width="5" opacity="0.40515930808535616" x1="919" y1="577" x2="951" y2="-100" /><line stroke="LimeGreen" stroke-width="5" opacity="0.40515930808535616" x1="812" y1="-25" x2="15" y2="-40" /><line stroke="#72c" stroke-width="2" opacity="0.40515930808535616" x1="533" y1="71" x2="823" y2="-84" /><line stroke="rgba(122,116,138,0.9203)" stroke-width="3" opacity="0.40515930808535616" x1="1060" y1="193" x2="939" y2="614" /><line stroke="0xabe0b1" stroke-width="5" opacity="0.40515930808535616" x1="354" y1="18" x2="947" y2="728" /><line stroke="0x9aee54" stroke-width="2" opacity="0.40515930808535616" x1="1066" y1="533" x2="145" y2="533" /><line stroke="LawnGreen" stroke-width="2" opacity="0.40515930808535616" x1="306" y1="549" x2="844" y2="1025" /><circle cx="975" cy="99" r="1024" opacity="0.40515930808535616" fill="#208086"/><circle cx="196" cy="234" r="930" opacity="0.40515930808535616" fill="rgb(207,145,99)"/><circle cx="939" cy="838" r="114" opacity="0.40515930808535616" fill="#2e2"/><circle cx="143" cy="327" r="112" opacity="0.40515930808535616" fill="Linen"/><circle cx="-61" cy="3" r="411" opacity="0.40515930808535616" fill="LightPink"/><circle cx="1041" cy="579" r="550" opacity="0.40515930808535616" fill="0x59d4bd"/><circle cx="940" cy="751" r="265" opacity="0.40515930808535616" fill="rgb(219,147,205)"/><circle cx="1008" cy="919" r="386" opacity="0.40515930808535616" fill="AliceBlue"/><circle cx="11" cy="793" r="716" opacity="0.40515930808535616" fill="#280"/><polygon fill="#b64" points="-30,166 90,545 435,1041" opacity="0.40515930808535616"/> <polygon fill="#ade" points="962,442 1435,837 2058,1310" opacity="0.40515930808535616"/> <polygon fill="0x205fe3" points="-67,407 139,1116 165,560" opacity="0.40515930808535616"/> <polygon fill="rgb(88,70,190)" points="154,716 622,1051 818,744" opacity="0.40515930808535616"/> <polygon fill="rgb(118,182,122)" points=" 183,222 757,727 100,826 809,930 914,1055" opacity="0.40515930808535616" /></svg>