<svg version="1.1" width="1000" height="1000" xmlns="http://www.w3.org/2000/svg" style="background-color:Azure"><line stroke="0xe4d186" stroke-width="4" opacity="0.3" x1="916" y1="10" x2="20" y2="832" /><line stroke="rgba(137,170,84,0.0694)" stroke-width="1" opacity="0.3" x1="993" y1="736" x2="93" y2="422" /><line stroke="0x2879a0" stroke-width="1" opacity="0.3" x1="879" y1="912" x2="537" y2="858" /><line stroke="rgba(63,53,3,0.9385)" stroke-width="1" opacity="0.3" x1="832" y1="369" x2="550" y2="30" /><line stroke="0x42061c" stroke-width="4" opacity="0.3" x1="1038" y1="957" x2="34" y2="898" /><line stroke="rgba(36,232,245,0.0856)" stroke-width="4" opacity="0.3" x1="444" y1="141" x2="228" y2="-23" /><line stroke="Maroon" stroke-width="1" opacity="0.3" x1="1013" y1="172" x2="1016" y2="526" /><line stroke="OrangeRed" stroke-width="4" opacity="0.3" x1="274" y1="628" x2="95" y2="480" /><line stroke="SlateGray" stroke-width="4" opacity="0.3" x1="276" y1="636" x2="335" y2="378" /><line stroke="0x1c004d" stroke-width="2" opacity="0.3" x1="711" y1="819" x2="289" y2="155" /><line stroke="rgb(78,224,99)" stroke-width="4" opacity="0.3" x1="372" y1="5" x2="413" y2="1060" /><line stroke="SeaGreen" stroke-width="4" opacity="0.3" x1="257" y1="366" x2="806" y2="1088" /><line stroke="#b46" stroke-width="1" opacity="0.3" x1="571" y1="324" x2="763" y2="124" /><line stroke="rgb(136,220,184)" stroke-width="1" opacity="0.3" x1="736" y1="930" x2="867" y2="-44" /><circle cx="30" cy="492" r="748" opacity="0.3" fill="LavenderBlush"/><circle cx="949" cy="826" r="590" opacity="0.3" fill="rgba(129,28,230,0.7621)"/><circle cx="605" cy="-92" r="402" opacity="0.3" fill="rgba(93,139,208,0.3266)"/><circle cx="179" cy="293" r="972" opacity="0.3" fill="rgba(173,20,31,0.4787)"/><circle cx="237" cy="23" r="454" opacity="0.3" fill="rgba(187,223,229,0.3185)"/><polygon fill="#0d3873" points="-2,-54 619,972 38,-76" opacity="0.3"/> <polygon fill="GoldenRod" points="963,346 1234,915 1760,381" opacity="0.3"/> <polygon fill="#454" points="80,522 995,1330 59,775" opacity="0.3"/> <polygon fill="0x8d3ae6" points="752,524 821,1165 1385,1053" opacity="0.3"/> <polygon fill="rgb(71,150,7)" points="1068,335 1398,405 2153,1279" opacity="0.3"/> <polygon fill="rgba(188,237,254,0.5229)" points="1095,1088 1261,1448 1641,1586" opacity="0.3"/> <polygon fill="rgba(169,101,63,0.0274)" points="888,682 1009,745 1416,1317" opacity="0.3"/> <polygon fill="#b30" points="121,385 98,346 57,474" opacity="0.3"/> <polygon fill="0xe7d3f0" points="286,335 697,830 208,1220" opacity="0.3"/> <polygon fill="rgba(84,141,58,0.9925)" points="1063,200 1992,1076 1180,799" opacity="0.3"/> <polygon fill="0x947d7f" points="635,257 811,979 1710,232" opacity="0.3"/> <polygon fill="LavenderBlush" points="478,749 1417,1699 1286,980" opacity="0.3"/> <polygon fill="rgba(228,251,149,0.7877)" points="-8,548 -76,1110 377,1619" opacity="0.3"/> <polygon fill="DarkKhaki" points="440,219 1402,834 599,559" opacity="0.3"/> <polygon fill="0xbf93cd" points="228,269 895,959 1120,1099" opacity="0.3"/> </svg>