<svg version="1.1" width="1000" height="1000" xmlns="http://www.w3.org/2000/svg" style="background-color:0xd13276"><line stroke="SandyBrown" stroke-width="5" opacity="0.9729811222179583" x1="351" y1="213" x2="561" y2="273" /><line stroke="0x47ddfa" stroke-width="5" opacity="0.9729811222179583" x1="883" y1="171" x2="527" y2="835" /><line stroke="0x4a9997" stroke-width="4" opacity="0.9729811222179583" x1="628" y1="473" x2="1081" y2="47" /><line stroke="rgb(80,57,20)" stroke-width="5" opacity="0.9729811222179583" x1="55" y1="97" x2="285" y2="382" /><line stroke="#4f3c98" stroke-width="4" opacity="0.9729811222179583" x1="1074" y1="627" x2="347" y2="436" /><line stroke="0xe7ab4b" stroke-width="5" opacity="0.9729811222179583" x1="1000" y1="889" x2="31" y2="754" /><line stroke="#398" stroke-width="2" opacity="0.9729811222179583" x1="641" y1="50" x2="1058" y2="437" /><line stroke="#d71e77" stroke-width="2" opacity="0.9729811222179583" x1="66" y1="1038" x2="499" y2="816" /><line stroke="rgb(21,110,12)" stroke-width="2" opacity="0.9729811222179583" x1="1067" y1="321" x2="873" y2="301" /><line stroke="#ef3e69" stroke-width="4" opacity="0.9729811222179583" x1="799" y1="323" x2="679" y2="172" /><line stroke="rgba(237,193,229,0.8647)" stroke-width="4" opacity="0.9729811222179583" x1="361" y1="488" x2="-41" y2="766" /><line stroke="#b16be2" stroke-width="2" opacity="0.9729811222179583" x1="999" y1="970" x2="189" y2="67" /><line stroke="rgb(173,121,238)" stroke-width="2" opacity="0.9729811222179583" x1="305" y1="579" x2="964" y2="719" /><line stroke="0xc243d3" stroke-width="1" opacity="0.9729811222179583" x1="460" y1="948" x2="1025" y2="61" /><line stroke="CadetBlue" stroke-width="1" opacity="0.9729811222179583" x1="619" y1="347" x2="234" y2="645" /><line stroke="rgba(211,203,66,0.9079)" stroke-width="4" opacity="0.9729811222179583" x1="597" y1="757" x2="1054" y2="893" /><line stroke="#025" stroke-width="1" opacity="0.9729811222179583" x1="897" y1="24" x2="392" y2="309" /><line stroke="rgba(10,116,125,0.4391)" stroke-width="1" opacity="0.9729811222179583" x1="-89" y1="630" x2="555" y2="647" /><line stroke="Blue" stroke-width="5" opacity="0.9729811222179583" x1="801" y1="419" x2="534" y2="458" /><line stroke="rgb(243,139,210)" stroke-width="2" opacity="0.9729811222179583" x1="127" y1="-77" x2="669" y2="524" /><line stroke="#c299de" stroke-width="1" opacity="0.9729811222179583" x1="656" y1="301" x2="257" y2="671" /><line stroke="#7f6" stroke-width="5" opacity="0.9729811222179583" x1="1038" y1="880" x2="-18" y2="207" /><line stroke="MediumSpringGreen" stroke-width="4" opacity="0.9729811222179583" x1="632" y1="1023" x2="762" y2="589" /><line stroke="#d855a7" stroke-width="3" opacity="0.9729811222179583" x1="196" y1="-47" x2="-1" y2="813" /><line stroke="rgb(89,254,10)" stroke-width="5" opacity="0.9729811222179583" x1="1038" y1="532" x2="373" y2="863" /><line stroke="#5459a2" stroke-width="1" opacity="0.9729811222179583" x1="-2" y1="82" x2="467" y2="722" /><line stroke="rgba(18,188,47,0.9832)" stroke-width="3" opacity="0.9729811222179583" x1="147" y1="50" x2="532" y2="521" /><line stroke="rgb(126,205,125)" stroke-width="4" opacity="0.9729811222179583" x1="908" y1="916" x2="696" y2="847" /><circle cx="358" cy="171" r="727" opacity="0.9729811222179583" fill="#5b715f"/><polygon fill="rgba(158,3,50,0.1455)" points="1046,574 1231,1373 1093,594" opacity="0.9729811222179583"/> <polygon fill="rgba(103,105,54,0.668)" points="256,0 939,875 709,422" opacity="0.9729811222179583"/> <polygon fill="0x2212b4" points="567,-2 687,56 567,177" opacity="0.9729811222179583"/> <polygon fill="rgb(33,16,215)" points="705,281 967,1356 925,1152" opacity="0.9729811222179583"/> <polygon fill="#5c20f1" points="631,137 1107,757 848,512" opacity="0.9729811222179583"/> <polygon fill="#e11" points="554,784 885,1603 1414,821" opacity="0.9729811222179583"/> <polygon fill="rgb(152,117,108)" points="597,1044 695,1430 798,1044" opacity="0.9729811222179583"/> </svg>