<svg version="1.1" width="1000" height="1000" xmlns="http://www.w3.org/2000/svg" style="background-color:Chocolate"><line stroke="0x6d1fa5" stroke-width="5" opacity="0.3" x1="836" y1="735" x2="235" y2="4" /><line stroke="#714f45" stroke-width="3" opacity="0.3" x1="181" y1="867" x2="289" y2="631" /><line stroke="#7a1d82" stroke-width="3" opacity="0.3" x1="977" y1="576" x2="538" y2="1028" /><line stroke="OliveDrab" stroke-width="5" opacity="0.3" x1="54" y1="245" x2="319" y2="66" /><line stroke="#b82625" stroke-width="1" opacity="0.3" x1="691" y1="464" x2="-64" y2="-10" /><line stroke="#49c44e" stroke-width="2" opacity="0.3" x1="270" y1="299" x2="445" y2="31" /><line stroke="0xdd3af1" stroke-width="5" opacity="0.3" x1="1003" y1="827" x2="232" y2="711" /><line stroke="Olive" stroke-width="1" opacity="0.3" x1="916" y1="-33" x2="902" y2="450" /><line stroke="rgba(199,242,2,0.2485)" stroke-width="1" opacity="0.3" x1="-87" y1="172" x2="422" y2="26" /><line stroke="#f8b" stroke-width="3" opacity="0.3" x1="381" y1="877" x2="288" y2="243" /><line stroke="#96d3dc" stroke-width="1" opacity="0.3" x1="537" y1="990" x2="824" y2="570" /><line stroke="rgb(220,45,112)" stroke-width="5" opacity="0.3" x1="857" y1="583" x2="1081" y2="287" /><circle cx="14" cy="509" r="1085" opacity="0.3" fill="0xd1a256"/><circle cx="1063" cy="169" r="738" opacity="0.3" fill="#1cfee0"/><circle cx="921" cy="891" r="619" opacity="0.3" fill="DarkGoldenRod"/><polygon fill="0xd92046" points="41,-78 49,747 913,613" opacity="0.3"/> <polygon fill="#668" points="976,706 1607,791 1960,1075" opacity="0.3"/> <polygon fill="#5b6" points="-29,914 619,1719 230,1019" opacity="0.3"/> <polygon fill="#b10" points="299,745 697,919 702,1317" opacity="0.3"/> <polygon fill="rgb(63,254,236)" points="986,882 1010,1007 2042,1748" opacity="0.3"/> <polygon fill="#541" points="678,279 1425,1074 1519,760" opacity="0.3"/> <polygon fill="rgb(229,71,13)" points="889,641 1296,580 1100,686" opacity="0.3"/> <polygon fill="rgb(175,48,116)" points="1014,64 1716,281 1661,501" opacity="0.3"/> <polygon fill="0xf03ae7" points="987,527 1350,813 935,511" opacity="0.3"/> <polygon fill="Turquoise" points="57,1004 83,1644 695,1558" opacity="0.3"/> <polygon fill="rgba(141,209,163,0.2725)" points="22,1084 -68,1359 363,2136" opacity="0.3"/> <polygon fill="LightGoldenRodYellow" points="985,364 1317,360 1554,534" opacity="0.3"/> <polygon fill="rgba(169,134,171,0.9857)" points="166,216 396,758 895,346" opacity="0.3"/> <polygon fill="rgba(30,37,38,0.0839)" points="1095,875 1421,1908 1007,1556" opacity="0.3"/> <polygon fill="AliceBlue" points=" 11,-72 878,941 -83,297 330,970 623,-101 587,451" opacity="0.3" /></svg>