<svg version="1.1" width="1000" height="1000" xmlns="http://www.w3.org/2000/svg" style="background-color:SlateGray"><line stroke="#cf0" stroke-width="3" opacity="0.4617196718685521" x1="1022" y1="150" x2="54" y2="809" /><line stroke="rgba(93,100,226,0.158)" stroke-width="1" opacity="0.4617196718685521" x1="-5" y1="-78" x2="598" y2="270" /><line stroke="0xf4add6" stroke-width="3" opacity="0.4617196718685521" x1="1033" y1="792" x2="371" y2="267" /><line stroke="rgb(18,68,63)" stroke-width="1" opacity="0.4617196718685521" x1="1064" y1="583" x2="929" y2="310" /><line stroke="#ef640c" stroke-width="4" opacity="0.4617196718685521" x1="-59" y1="449" x2="95" y2="838" /><line stroke="#6d90ff" stroke-width="5" opacity="0.4617196718685521" x1="-10" y1="859" x2="223" y2="61" /><line stroke="rgba(184,206,41,0.9586)" stroke-width="1" opacity="0.4617196718685521" x1="506" y1="345" x2="271" y2="752" /><line stroke="rgb(189,241,165)" stroke-width="1" opacity="0.4617196718685521" x1="54" y1="-64" x2="987" y2="303" /><line stroke="#c3bbe0" stroke-width="3" opacity="0.4617196718685521" x1="900" y1="253" x2="45" y2="125" /><circle cx="317" cy="188" r="1007" opacity="0.4617196718685521" fill="DarkGreen"/><circle cx="831" cy="904" r="158" opacity="0.4617196718685521" fill="GreenYellow"/><circle cx="718" cy="249" r="465" opacity="0.4617196718685521" fill="0x153213"/><circle cx="47" cy="685" r="188" opacity="0.4617196718685521" fill="#8b9"/><circle cx="442" cy="382" r="1029" opacity="0.4617196718685521" fill="0x2f964e"/><circle cx="937" cy="751" r="1081" opacity="0.4617196718685521" fill="0x7b85cf"/><circle cx="-62" cy="653" r="368" opacity="0.4617196718685521" fill="#25e"/><circle cx="777" cy="-20" r="975" opacity="0.4617196718685521" fill="#bc352a"/><circle cx="668" cy="486" r="702" opacity="0.4617196718685521" fill="rgb(127,47,176)"/><circle cx="574" cy="606" r="618" opacity="0.4617196718685521" fill="0x24db8c"/><circle cx="671" cy="761" r="1034" opacity="0.4617196718685521" fill="rgba(145,179,121,0.909)"/><circle cx="61" cy="843" r="382" opacity="0.4617196718685521" fill="0xb8f24c"/><circle cx="533" cy="688" r="34" opacity="0.4617196718685521" fill="#a59"/><circle cx="61" cy="575" r="428" opacity="0.4617196718685521" fill="#8d79a0"/><circle cx="534" cy="200" r="915" opacity="0.4617196718685521" fill="rgb(35,9,109)"/><polygon fill="#ecb" points="439,1046 699,1696 1008,1277" opacity="0.4617196718685521"/> <polygon fill="0x482852" points="1091,515 1603,1565 1809,835" opacity="0.4617196718685521"/> <polygon fill="#da5d04" points="141,197 116,1222 574,808" opacity="0.4617196718685521"/> <polygon fill="rgba(129,25,222,0.5263)" points="202,1044 1028,976 251,1688" opacity="0.4617196718685521"/> <polygon fill="rgba(128,101,172,0.5613)" points="680,256 1541,468 1064,644" opacity="0.4617196718685521"/> </svg>