<svg version="1.1" width="1000" height="1000" xmlns="http://www.w3.org/2000/svg" style="background-color:rgb(44,55,180)"><line stroke="0x18af3a" stroke-width="2" opacity="0.3" x1="940" y1="71" x2="729" y2="740" /><line stroke="rgba(196,122,185,0.5951)" stroke-width="5" opacity="0.3" x1="-6" y1="54" x2="-35" y2="627" /><line stroke="rgba(61,91,124,0.6878)" stroke-width="2" opacity="0.3" x1="212" y1="197" x2="432" y2="202" /><line stroke="#e7d0a5" stroke-width="5" opacity="0.3" x1="159" y1="917" x2="85" y2="502" /><line stroke="#be70ed" stroke-width="2" opacity="0.3" x1="22" y1="882" x2="612" y2="979" /><line stroke="#e10" stroke-width="5" opacity="0.3" x1="731" y1="862" x2="507" y2="346" /><line stroke="#1256e8" stroke-width="4" opacity="0.3" x1="784" y1="16" x2="1017" y2="544" /><line stroke="Beige" stroke-width="1" opacity="0.3" x1="982" y1="282" x2="-92" y2="787" /><line stroke="RosyBrown" stroke-width="5" opacity="0.3" x1="922" y1="-38" x2="397" y2="-77" /><line stroke="#ddd" stroke-width="2" opacity="0.3" x1="370" y1="99" x2="304" y2="-43" /><line stroke="MediumSeaGreen" stroke-width="5" opacity="0.3" x1="-61" y1="-49" x2="313" y2="758" /><line stroke="DimGray" stroke-width="5" opacity="0.3" x1="586" y1="86" x2="758" y2="984" /><line stroke="#bd8" stroke-width="3" opacity="0.3" x1="317" y1="599" x2="975" y2="274" /><line stroke="rgb(67,84,104)" stroke-width="5" opacity="0.3" x1="1002" y1="129" x2="76" y2="352" /><line stroke="#868" stroke-width="5" opacity="0.3" x1="111" y1="43" x2="132" y2="588" /><line stroke="#4d9c08" stroke-width="5" opacity="0.3" x1="117" y1="909" x2="929" y2="651" /><line stroke="#099e24" stroke-width="1" opacity="0.3" x1="410" y1="961" x2="-60" y2="904" /><line stroke="rgb(229,182,78)" stroke-width="3" opacity="0.3" x1="674" y1="883" x2="1011" y2="581" /><line stroke="rgb(99,16,8)" stroke-width="4" opacity="0.3" x1="805" y1="230" x2="549" y2="54" /><line stroke="#c91" stroke-width="5" opacity="0.3" x1="962" y1="518" x2="549" y2="919" /><line stroke="Aqua" stroke-width="1" opacity="0.3" x1="-16" y1="1009" x2="-89" y2="680" /><line stroke="#bc2" stroke-width="3" opacity="0.3" x1="895" y1="194" x2="134" y2="482" /><line stroke="rgb(80,5,59)" stroke-width="2" opacity="0.3" x1="1062" y1="1071" x2="693" y2="303" /><line stroke="rgb(23,164,184)" stroke-width="4" opacity="0.3" x1="1097" y1="920" x2="570" y2="358" /><line stroke="#5e6" stroke-width="1" opacity="0.3" x1="773" y1="720" x2="1026" y2="404" /><line stroke="0xe6700b" stroke-width="2" opacity="0.3" x1="560" y1="16" x2="797" y2="877" /><line stroke="0xca4f63" stroke-width="2" opacity="0.3" x1="560" y1="587" x2="951" y2="197" /><circle cx="447" cy="-28" r="883" opacity="0.3" fill="rgb(48,152,108)"/><circle cx="87" cy="281" r="544" opacity="0.3" fill="#cd3"/><circle cx="570" cy="-79" r="325" opacity="0.3" fill="0xa696ba"/><circle cx="784" cy="36" r="15" opacity="0.3" fill="#c23"/><circle cx="685" cy="570" r="736" opacity="0.3" fill="rgba(167,47,26,0.8164)"/><circle cx="590" cy="754" r="305" opacity="0.3" fill="#333d1d"/><polygon fill="0xcd82ce" points="134,855 624,833 1199,1319" opacity="0.3"/> <polygon fill="#da6" points="262,41 920,200 248,272" opacity="0.3"/> <polygon fill="#b55964" points="877,730 1925,1068 980,1721" opacity="0.3"/> <polygon fill="rgba(190,76,35,0.1046)" points="1081,262 1686,708 1740,594" opacity="0.3"/> <polygon fill="rgba(170,78,30,0.0639)" points="-35,924 137,1509 334,1418" opacity="0.3"/> <polygon fill="rgba(248,49,102,0.703)" points="892,-74 1098,393 1117,493" opacity="0.3"/> <polygon fill="rgb(34,15,7)" points="370,901 1363,1956 525,1122" opacity="0.3"/> <polygon fill="#eb3575" points="218,901 318,1651 1309,902" opacity="0.3"/> <polygon fill="rgba(12,19,238,0.3552)" points="-24,711 327,1123 1002,837" opacity="0.3"/> <polygon fill="rgb(75,7,174)" points="403,455 1174,679 1172,1015" opacity="0.3"/> <polygon fill="rgb(187,233,36)" points="507,222 651,970 884,754" opacity="0.3"/> <polygon fill="rgba(230,104,82,0.1707)" points="245,332 1209,930 1119,569" opacity="0.3"/> <polygon fill="rgba(107,162,39,0.6468)" points="171,864 513,804 1111,1880" opacity="0.3"/> <polygon fill="#753df8" points="932,-7 1203,582 1971,482" opacity="0.3"/> <polygon fill="rgba(201,89,91,0.9193)" points="222,569 383,497 835,969" opacity="0.3"/> </svg>