<svg version="1.1" width="1000" height="1000" xmlns="http://www.w3.org/2000/svg" style="background-color:White"><line stroke="rgb(220,255,23)" stroke-width="5" opacity="0.39453388577358806" x1="464" y1="345" x2="201" y2="550" /><line stroke="#10b5c8" stroke-width="2" opacity="0.39453388577358806" x1="177" y1="403" x2="304" y2="902" /><line stroke="#bbff06" stroke-width="1" opacity="0.39453388577358806" x1="875" y1="-85" x2="862" y2="156" /><line stroke="LightSkyBlue" stroke-width="4" opacity="0.39453388577358806" x1="799" y1="561" x2="906" y2="314" /><line stroke="rgb(42,66,35)" stroke-width="5" opacity="0.39453388577358806" x1="865" y1="1094" x2="43" y2="533" /><line stroke="#120" stroke-width="3" opacity="0.39453388577358806" x1="80" y1="775" x2="334" y2="832" /><line stroke="#f94" stroke-width="4" opacity="0.39453388577358806" x1="380" y1="481" x2="377" y2="686" /><line stroke="OldLace" stroke-width="3" opacity="0.39453388577358806" x1="362" y1="341" x2="1017" y2="16" /><line stroke="rgba(17,168,176,0.697)" stroke-width="1" opacity="0.39453388577358806" x1="602" y1="323" x2="661" y2="-6" /><line stroke="#489bc3" stroke-width="2" opacity="0.39453388577358806" x1="766" y1="679" x2="26" y2="468" /><line stroke="#c83" stroke-width="5" opacity="0.39453388577358806" x1="-41" y1="461" x2="50" y2="810" /><line stroke="#e24" stroke-width="4" opacity="0.39453388577358806" x1="822" y1="526" x2="983" y2="934" /><line stroke="rgba(116,72,233,0.9342)" stroke-width="5" opacity="0.39453388577358806" x1="-57" y1="355" x2="564" y2="767" /><line stroke="#049" stroke-width="5" opacity="0.39453388577358806" x1="988" y1="1037" x2="885" y2="-8" /><line stroke="0xaec56d" stroke-width="4" opacity="0.39453388577358806" x1="182" y1="895" x2="854" y2="851" /><line stroke="0x915697" stroke-width="5" opacity="0.39453388577358806" x1="65" y1="82" x2="846" y2="774" /><line stroke="rgb(214,195,210)" stroke-width="2" opacity="0.39453388577358806" x1="1034" y1="203" x2="829" y2="348" /><line stroke="#b6c" stroke-width="2" opacity="0.39453388577358806" x1="964" y1="814" x2="729" y2="581" /><line stroke="rgba(210,252,238,0.1946)" stroke-width="5" opacity="0.39453388577358806" x1="877" y1="64" x2="186" y2="31" /><line stroke="0xb0af75" stroke-width="2" opacity="0.39453388577358806" x1="121" y1="53" x2="1095" y2="216" /><line stroke="rgb(252,130,149)" stroke-width="4" opacity="0.39453388577358806" x1="142" y1="729" x2="262" y2="683" /><line stroke="#3d8651" stroke-width="2" opacity="0.39453388577358806" x1="520" y1="856" x2="306" y2="59" /><line stroke="#689362" stroke-width="2" opacity="0.39453388577358806" x1="392" y1="1073" x2="676" y2="27" /><line stroke="#3e9" stroke-width="5" opacity="0.39453388577358806" x1="-53" y1="656" x2="-92" y2="606" /><line stroke="0x8c6a7b" stroke-width="5" opacity="0.39453388577358806" x1="968" y1="252" x2="635" y2="730" /><line stroke="#20b" stroke-width="1" opacity="0.39453388577358806" x1="489" y1="604" x2="259" y2="909" /><line stroke="DarkViolet" stroke-width="5" opacity="0.39453388577358806" x1="869" y1="4" x2="158" y2="473" /><line stroke="0x0bdbd1" stroke-width="3" opacity="0.39453388577358806" x1="951" y1="124" x2="311" y2="1049" /><line stroke="CornflowerBlue" stroke-width="4" opacity="0.39453388577358806" x1="942" y1="321" x2="982" y2="910" /><line stroke="#a78f1d" stroke-width="4" opacity="0.39453388577358806" x1="852" y1="807" x2="658" y2="898" /><circle cx="509" cy="119" r="1043" opacity="0.39453388577358806" fill="Lime"/><circle cx="59" cy="714" r="410" opacity="0.39453388577358806" fill="#02c71d"/><circle cx="694" cy="1046" r="170" opacity="0.39453388577358806" fill="0x2b1af5"/><circle cx="401" cy="442" r="291" opacity="0.39453388577358806" fill="SteelBlue"/><circle cx="1012" cy="576" r="386" opacity="0.39453388577358806" fill="rgba(42,125,50,0.6631)"/><circle cx="1009" cy="-34" r="137" opacity="0.39453388577358806" fill="#97e"/><circle cx="238" cy="-46" r="442" opacity="0.39453388577358806" fill="0x81fe2b"/><circle cx="6" cy="799" r="820" opacity="0.39453388577358806" fill="rgba(71,249,28,0.4894)"/><circle cx="636" cy="355" r="661" opacity="0.39453388577358806" fill="MistyRose"/><polygon fill="rgba(26,200,140,0.5511)" points="3,130 531,403 -34,645" opacity="0.39453388577358806"/> <polygon fill="0x447edf" points="671,46 689,517 1223,547" opacity="0.39453388577358806"/> <polygon fill="#092" points="442,755 1012,886 678,916" opacity="0.39453388577358806"/> <polygon fill="#f5c" points="138,-47 704,678 381,-25" opacity="0.39453388577358806"/> <polygon fill="#88b" points="243,352 1336,433 578,629" opacity="0.39453388577358806"/> <polygon fill="0xb6913c" points="85,444 245,864 1114,699" opacity="0.39453388577358806"/> </svg>