<svg version="1.1" width="1000" height="1000" xmlns="http://www.w3.org/2000/svg" style="background-color:0x39cbcd"><line stroke="GreenYellow" stroke-width="5" opacity="0.8948224931468853" x1="488" y1="132" x2="1063" y2="249" /><line stroke="0xf214c1" stroke-width="2" opacity="0.8948224931468853" x1="1037" y1="184" x2="817" y2="814" /><line stroke="rgba(241,181,250,0.5709)" stroke-width="5" opacity="0.8948224931468853" x1="225" y1="322" x2="355" y2="948" /><line stroke="rgba(38,252,38,0.1095)" stroke-width="4" opacity="0.8948224931468853" x1="870" y1="246" x2="52" y2="421" /><line stroke="0xfae90a" stroke-width="3" opacity="0.8948224931468853" x1="596" y1="219" x2="664" y2="1057" /><line stroke="rgba(246,131,94,0.5344)" stroke-width="2" opacity="0.8948224931468853" x1="111" y1="129" x2="745" y2="1002" /><line stroke="0x54858d" stroke-width="1" opacity="0.8948224931468853" x1="450" y1="273" x2="1088" y2="109" /><line stroke="#f67c02" stroke-width="1" opacity="0.8948224931468853" x1="54" y1="419" x2="50" y2="63" /><line stroke="rgba(153,16,248,0.2875)" stroke-width="1" opacity="0.8948224931468853" x1="593" y1="517" x2="583" y2="1" /><line stroke="0x88408d" stroke-width="4" opacity="0.8948224931468853" x1="567" y1="291" x2="774" y2="933" /><line stroke="rgb(31,220,82)" stroke-width="4" opacity="0.8948224931468853" x1="455" y1="-47" x2="973" y2="1100" /><line stroke="SlateGray" stroke-width="3" opacity="0.8948224931468853" x1="-92" y1="848" x2="132" y2="747" /><line stroke="rgba(207,102,146,0.9856)" stroke-width="5" opacity="0.8948224931468853" x1="172" y1="928" x2="169" y2="772" /><line stroke="0x90ee66" stroke-width="3" opacity="0.8948224931468853" x1="-10" y1="301" x2="177" y2="72" /><line stroke="0xff3d4f" stroke-width="2" opacity="0.8948224931468853" x1="927" y1="-8" x2="151" y2="548" /><line stroke="AliceBlue" stroke-width="2" opacity="0.8948224931468853" x1="269" y1="802" x2="17" y2="461" /><line stroke="#2b9" stroke-width="4" opacity="0.8948224931468853" x1="1066" y1="1019" x2="376" y2="51" /><line stroke="#cf984c" stroke-width="5" opacity="0.8948224931468853" x1="129" y1="1036" x2="932" y2="-79" /><line stroke="0x8258f6" stroke-width="5" opacity="0.8948224931468853" x1="343" y1="843" x2="850" y2="933" /><line stroke="#22e76d" stroke-width="3" opacity="0.8948224931468853" x1="119" y1="1031" x2="998" y2="309" /><line stroke="LightPink" stroke-width="1" opacity="0.8948224931468853" x1="395" y1="31" x2="21" y2="535" /><line stroke="0x71f324" stroke-width="1" opacity="0.8948224931468853" x1="617" y1="857" x2="200" y2="826" /><line stroke="rgba(129,37,82,0.5943)" stroke-width="4" opacity="0.8948224931468853" x1="480" y1="905" x2="734" y2="971" /><line stroke="#0f7d42" stroke-width="2" opacity="0.8948224931468853" x1="325" y1="-7" x2="91" y2="896" /><line stroke="0x2d7b5d" stroke-width="3" opacity="0.8948224931468853" x1="133" y1="765" x2="-50" y2="393" /><circle cx="1079" cy="-2" r="636" opacity="0.8948224931468853" fill="rgba(142,246,30,0.2198)"/><circle cx="380" cy="636" r="593" opacity="0.8948224931468853" fill="#ecd"/><circle cx="685" cy="549" r="830" opacity="0.8948224931468853" fill="LightSlateGray"/><circle cx="282" cy="599" r="1010" opacity="0.8948224931468853" fill="rgba(131,254,233,0.08)"/><circle cx="644" cy="741" r="1091" opacity="0.8948224931468853" fill="rgb(89,225,162)"/><circle cx="820" cy="728" r="349" opacity="0.8948224931468853" fill="0x8f501d"/><circle cx="196" cy="641" r="711" opacity="0.8948224931468853" fill="#44af44"/><circle cx="173" cy="831" r="488" opacity="0.8948224931468853" fill="0xfe14d7"/><circle cx="484" cy="639" r="473" opacity="0.8948224931468853" fill="LemonChiffon"/><circle cx="871" cy="657" r="16" opacity="0.8948224931468853" fill="rgba(12,138,19,0.4795)"/><circle cx="-60" cy="144" r="674" opacity="0.8948224931468853" fill="rgba(65,186,165,0.5727)"/><polygon fill="0x86e337" points="333,570 1204,1658 1393,702" opacity="0.8948224931468853"/> <polygon fill="0xf6438b" points="354,858 1436,949 391,807" opacity="0.8948224931468853"/> <polygon fill="0x1954f8" points="240,319 605,902 620,615" opacity="0.8948224931468853"/> <polygon fill="rgba(181,120,128,0.1486)" points="243,265 1241,751 888,175" opacity="0.8948224931468853"/> <polygon fill="GhostWhite" points="346,818 311,1414 369,1185" opacity="0.8948224931468853"/> <polygon fill="#03d" points="717,943 1567,1567 887,1087" opacity="0.8948224931468853"/> <polygon fill="rgb(205,78,196)" points="115,754 801,1594 796,1422" opacity="0.8948224931468853"/> <polygon fill="rgba(81,172,196,0.0997)" points="-16,444 67,1433 659,879" opacity="0.8948224931468853"/> <polygon fill="rgba(133,167,128,0.4401)" points="585,457 801,1153 1054,1471" opacity="0.8948224931468853"/> </svg>