<svg version="1.1" width="1000" height="1000" xmlns="http://www.w3.org/2000/svg" style="background-color:SlateBlue"><line stroke="#e52567" stroke-width="5" opacity="0.911763415314162" x1="436" y1="657" x2="7" y2="295" /><line stroke="0x5c9f27" stroke-width="2" opacity="0.911763415314162" x1="49" y1="114" x2="356" y2="471" /><line stroke="Fuchsia" stroke-width="2" opacity="0.911763415314162" x1="261" y1="889" x2="264" y2="442" /><line stroke="0x574209" stroke-width="4" opacity="0.911763415314162" x1="42" y1="909" x2="-35" y2="126" /><line stroke="#94d" stroke-width="2" opacity="0.911763415314162" x1="270" y1="272" x2="319" y2="24" /><line stroke="#1adeff" stroke-width="1" opacity="0.911763415314162" x1="790" y1="-65" x2="701" y2="297" /><line stroke="rgb(128,181,108)" stroke-width="2" opacity="0.911763415314162" x1="1080" y1="30" x2="989" y2="638" /><line stroke="0xd5a90f" stroke-width="5" opacity="0.911763415314162" x1="921" y1="48" x2="809" y2="101" /><line stroke="rgb(219,56,189)" stroke-width="5" opacity="0.911763415314162" x1="811" y1="777" x2="-17" y2="94" /><line stroke="#6cc" stroke-width="3" opacity="0.911763415314162" x1="803" y1="739" x2="1050" y2="689" /><line stroke="#0a40c3" stroke-width="5" opacity="0.911763415314162" x1="549" y1="391" x2="465" y2="329" /><line stroke="rgb(61,235,70)" stroke-width="3" opacity="0.911763415314162" x1="618" y1="1099" x2="729" y2="-14" /><line stroke="0xebe482" stroke-width="5" opacity="0.911763415314162" x1="-92" y1="295" x2="620" y2="1048" /><line stroke="rgb(222,94,111)" stroke-width="3" opacity="0.911763415314162" x1="1035" y1="671" x2="615" y2="464" /><line stroke="#fdb" stroke-width="2" opacity="0.911763415314162" x1="1029" y1="372" x2="1029" y2="169" /><line stroke="#565112" stroke-width="4" opacity="0.911763415314162" x1="-33" y1="123" x2="620" y2="582" /><line stroke="rgba(143,85,110,0.6916)" stroke-width="2" opacity="0.911763415314162" x1="296" y1="294" x2="689" y2="-55" /><line stroke="#e7bee7" stroke-width="2" opacity="0.911763415314162" x1="843" y1="-64" x2="916" y2="282" /><line stroke="#d8e2c1" stroke-width="1" opacity="0.911763415314162" x1="52" y1="391" x2="310" y2="-89" /><line stroke="#4c437e" stroke-width="5" opacity="0.911763415314162" x1="755" y1="299" x2="999" y2="464" /><line stroke="#b4d" stroke-width="2" opacity="0.911763415314162" x1="546" y1="335" x2="-6" y2="196" /><line stroke="Tan" stroke-width="5" opacity="0.911763415314162" x1="985" y1="1013" x2="-8" y2="347" /><circle cx="331" cy="375" r="692" opacity="0.911763415314162" fill="#d78bd4"/><circle cx="965" cy="629" r="135" opacity="0.911763415314162" fill="0xc8e27c"/><circle cx="210" cy="1029" r="518" opacity="0.911763415314162" fill="rgb(110,182,239)"/><circle cx="779" cy="567" r="46" opacity="0.911763415314162" fill="0x669483"/><circle cx="898" cy="509" r="992" opacity="0.911763415314162" fill="#f15b58"/><circle cx="820" cy="82" r="522" opacity="0.911763415314162" fill="0xfe1fcc"/><circle cx="890" cy="785" r="166" opacity="0.911763415314162" fill="rgb(118,156,35)"/><circle cx="128" cy="259" r="970" opacity="0.911763415314162" fill="0x18d0ed"/><circle cx="-22" cy="565" r="533" opacity="0.911763415314162" fill="#527278"/><circle cx="1061" cy="717" r="871" opacity="0.911763415314162" fill="rgb(119,61,237)"/><circle cx="427" cy="701" r="13" opacity="0.911763415314162" fill="rgb(153,190,251)"/><circle cx="-45" cy="48" r="707" opacity="0.911763415314162" fill="rgba(40,153,16,0.5926)"/><circle cx="-79" cy="725" r="64" opacity="0.911763415314162" fill="#33678f"/><polygon fill="Bisque" points="656,235 1162,661 1226,534" opacity="0.911763415314162"/> <polygon fill="#9b1" points="1047,232 1373,411 2010,827" opacity="0.911763415314162"/> <polygon fill="0xb71203" points="607,624 1258,554 1564,672" opacity="0.911763415314162"/> <polygon fill="rgb(133,36,170)" points="606,586 1665,670 1167,934" opacity="0.911763415314162"/> <polygon fill="#2f98c9" points="354,515 981,1263 1163,469" opacity="0.911763415314162"/> <polygon fill="SeaGreen" points="711,446 627,800 674,1138" opacity="0.911763415314162"/> <polygon fill="0xeb3e25" points="-80,876 683,1649 73,1456" opacity="0.911763415314162"/> <polygon fill="rgba(255,163,6,0.0833)" points="-59,930 -1,1860 94,1350" opacity="0.911763415314162"/> <polygon fill="#069" points="352,175 1274,93 1322,195" opacity="0.911763415314162"/> </svg>