<svg version="1.1" width="1000" height="1000" xmlns="http://www.w3.org/2000/svg" style="background-color:rgba(110,114,182,0.6377)"><circle cx="982" cy="404" r="498" opacity="0.8282396429133394" fill="PaleTurquoise"/><circle cx="666" cy="857" r="416" opacity="0.8282396429133394" fill="rgb(131,155,204)"/><circle cx="1074" cy="389" r="1019" opacity="0.8282396429133394" fill="0x8701bb"/><circle cx="340" cy="99" r="882" opacity="0.8282396429133394" fill="rgba(200,161,67,0.9947)"/><circle cx="587" cy="832" r="89" opacity="0.8282396429133394" fill="rgba(125,173,203,0.4895)"/><circle cx="413" cy="32" r="299" opacity="0.8282396429133394" fill="0xb0a309"/><circle cx="657" cy="138" r="415" opacity="0.8282396429133394" fill="0xf13252"/><circle cx="1086" cy="939" r="546" opacity="0.8282396429133394" fill="rgb(10,249,250)"/><circle cx="-69" cy="278" r="104" opacity="0.8282396429133394" fill="PaleTurquoise"/><polygon fill="rgb(227,150,143)" points="600,872 874,1353 1607,1500" opacity="0.8282396429133394"/> <polygon fill="0x423032" points="627,1017 1602,1450 751,1289" opacity="0.8282396429133394"/> <polygon fill="#ef5c74" points="822,281 867,254 779,515" opacity="0.8282396429133394"/> <polygon fill="#2ce244" points="125,275 1004,1284 1131,332" opacity="0.8282396429133394"/> <polygon fill="rgb(67,253,120)" points="936,417 1008,325 1369,1194" opacity="0.8282396429133394"/> <polygon fill="DarkSlateGray" points="647,147 1409,850 1578,795" opacity="0.8282396429133394"/> <polygon fill="0x74065c" points=" 174,911 197,1184 610,1833 168,1620 1211,1010 597,1039" opacity="0.8282396429133394" /></svg>