<svg version="1.1" width="1000" height="1000" xmlns="http://www.w3.org/2000/svg" style="background-color:rgba(68,135,92,0.9393)"><line stroke="0x3a7c32" stroke-width="3" opacity="0.8030050573240999" x1="1001" y1="602" x2="278" y2="779" /><line stroke="0x12f896" stroke-width="2" opacity="0.8030050573240999" x1="-72" y1="520" x2="1037" y2="756" /><line stroke="0x9cefd8" stroke-width="2" opacity="0.8030050573240999" x1="447" y1="852" x2="495" y2="296" /><line stroke="#c80108" stroke-width="2" opacity="0.8030050573240999" x1="1032" y1="973" x2="770" y2="545" /><line stroke="0xb478a5" stroke-width="1" opacity="0.8030050573240999" x1="431" y1="130" x2="654" y2="189" /><line stroke="rgb(198,185,206)" stroke-width="2" opacity="0.8030050573240999" x1="922" y1="378" x2="44" y2="813" /><line stroke="#a10b61" stroke-width="4" opacity="0.8030050573240999" x1="-55" y1="849" x2="538" y2="689" /><line stroke="rgb(115,24,205)" stroke-width="1" opacity="0.8030050573240999" x1="158" y1="408" x2="413" y2="786" /><line stroke="rgba(35,80,127,0.1271)" stroke-width="2" opacity="0.8030050573240999" x1="728" y1="432" x2="114" y2="131" /><line stroke="rgb(109,183,163)" stroke-width="3" opacity="0.8030050573240999" x1="574" y1="467" x2="2" y2="642" /><line stroke="rgba(185,205,85,0.6079)" stroke-width="1" opacity="0.8030050573240999" x1="498" y1="132" x2="42" y2="900" /><polygon fill="0x780d67" points="61,74 84,81 206,306" opacity="0.8030050573240999"/> <polygon fill="#05c31f" points=" 749,483 1727,566 1152,553 1258,1450 1468,1406" opacity="0.8030050573240999" /></svg>