<svg version="1.1" width="1000" height="1000" xmlns="http://www.w3.org/2000/svg" style="background-color:0x3a24d2"><line stroke="0x2e8c34" stroke-width="2" opacity="0.3" x1="565" y1="121" x2="513" y2="826" /><line stroke="SandyBrown" stroke-width="2" opacity="0.3" x1="1032" y1="260" x2="226" y2="263" /><line stroke="#5bbcfd" stroke-width="3" opacity="0.3" x1="807" y1="301" x2="543" y2="1054" /><line stroke="rgba(218,182,119,0.4101)" stroke-width="2" opacity="0.3" x1="297" y1="315" x2="932" y2="-35" /><line stroke="#b65" stroke-width="4" opacity="0.3" x1="725" y1="953" x2="293" y2="526" /><line stroke="0xa42ab5" stroke-width="3" opacity="0.3" x1="68" y1="56" x2="-46" y2="865" /><line stroke="rgba(255,161,205,0.7963)" stroke-width="3" opacity="0.3" x1="975" y1="-69" x2="187" y2="52" /><line stroke="rgba(45,109,171,0.7193)" stroke-width="4" opacity="0.3" x1="-16" y1="899" x2="913" y2="706" /><line stroke="rgba(251,16,78,0.0011)" stroke-width="4" opacity="0.3" x1="1060" y1="414" x2="554" y2="1035" /><line stroke="rgba(58,58,197,0.2938)" stroke-width="3" opacity="0.3" x1="1066" y1="833" x2="211" y2="104" /><line stroke="Brown" stroke-width="5" opacity="0.3" x1="983" y1="180" x2="-86" y2="627" /><line stroke="0x092f2c" stroke-width="1" opacity="0.3" x1="679" y1="44" x2="1094" y2="-88" /><line stroke="FireBrick" stroke-width="4" opacity="0.3" x1="674" y1="323" x2="357" y2="329" /><line stroke="#2f0" stroke-width="2" opacity="0.3" x1="764" y1="39" x2="864" y2="508" /><line stroke="rgba(251,81,106,0.6923)" stroke-width="3" opacity="0.3" x1="521" y1="833" x2="947" y2="977" /><circle cx="343" cy="109" r="848" opacity="0.3" fill="rgba(230,64,131,0.9364)"/><circle cx="-59" cy="-82" r="790" opacity="0.3" fill="#c09"/><circle cx="232" cy="823" r="15" opacity="0.3" fill="Gainsboro"/><circle cx="408" cy="788" r="755" opacity="0.3" fill="#7d380a"/><circle cx="-5" cy="591" r="769" opacity="0.3" fill="Purple"/><circle cx="202" cy="31" r="824" opacity="0.3" fill="rgb(114,138,251)"/><circle cx="903" cy="707" r="946" opacity="0.3" fill="0x84ce71"/><circle cx="357" cy="365" r="213" opacity="0.3" fill="#88ac37"/><polygon fill="#0638fd" points="19,935 158,871 -78,1510" opacity="0.3"/> <polygon fill="#4d5" points="682,993 726,1704 844,1947" opacity="0.3"/> <polygon fill="0xe88aa9" points="534,58 1447,942 1409,149" opacity="0.3"/> <polygon fill="rgba(73,83,156,0.1669)" points="5,870 481,1945 616,1820" opacity="0.3"/> <polygon fill="BlanchedAlmond" points="1008,658 1386,1013 1824,1049" opacity="0.3"/> <polygon fill="MediumBlue" points="772,420 1747,1314 1057,348" opacity="0.3"/> </svg>