<svg version="1.1" width="1000" height="1000" xmlns="http://www.w3.org/2000/svg" style="background-color:rgba(10,113,191,0.1193)"><line stroke="DarkCyan" stroke-width="4" opacity="0.3" x1="156" y1="833" x2="902" y2="-28" /><line stroke="#c9d" stroke-width="4" opacity="0.3" x1="702" y1="790" x2="471" y2="189" /><line stroke="rgb(35,105,172)" stroke-width="4" opacity="0.3" x1="663" y1="75" x2="1094" y2="861" /><line stroke="rgba(61,161,172,0.8054)" stroke-width="1" opacity="0.3" x1="1094" y1="176" x2="473" y2="216" /><line stroke="0x27d95c" stroke-width="1" opacity="0.3" x1="186" y1="672" x2="205" y2="604" /><line stroke="#8193c8" stroke-width="1" opacity="0.3" x1="430" y1="500" x2="-29" y2="392" /><line stroke="LightYellow" stroke-width="5" opacity="0.3" x1="938" y1="679" x2="625" y2="426" /><line stroke="rgba(207,72,47,0.6225)" stroke-width="1" opacity="0.3" x1="259" y1="940" x2="755" y2="219" /><line stroke="#c7273c" stroke-width="2" opacity="0.3" x1="224" y1="300" x2="448" y2="239" /><line stroke="#86c" stroke-width="2" opacity="0.3" x1="303" y1="1023" x2="162" y2="281" /><line stroke="#9c4" stroke-width="4" opacity="0.3" x1="724" y1="182" x2="110" y2="116" /><line stroke="0x9955fd" stroke-width="4" opacity="0.3" x1="1046" y1="511" x2="940" y2="379" /><line stroke="rgba(242,235,23,0.6763)" stroke-width="4" opacity="0.3" x1="857" y1="46" x2="228" y2="156" /><line stroke="rgb(139,29,240)" stroke-width="3" opacity="0.3" x1="629" y1="662" x2="663" y2="344" /><line stroke="#5e699f" stroke-width="5" opacity="0.3" x1="-38" y1="410" x2="1018" y2="433" /><line stroke="LightGray" stroke-width="4" opacity="0.3" x1="1100" y1="982" x2="439" y2="296" /><line stroke="rgb(11,20,212)" stroke-width="2" opacity="0.3" x1="211" y1="653" x2="319" y2="725" /><line stroke="Snow" stroke-width="5" opacity="0.3" x1="519" y1="464" x2="723" y2="982" /><line stroke="rgba(160,117,110,0.6525)" stroke-width="2" opacity="0.3" x1="198" y1="255" x2="381" y2="994" /><line stroke="0xac3a4d" stroke-width="1" opacity="0.3" x1="844" y1="527" x2="198" y2="195" /><line stroke="#580" stroke-width="1" opacity="0.3" x1="823" y1="272" x2="365" y2="658" /><line stroke="#f9a1e9" stroke-width="4" opacity="0.3" x1="541" y1="11" x2="1057" y2="300" /><line stroke="0xb90173" stroke-width="2" opacity="0.3" x1="777" y1="280" x2="626" y2="131" /><line stroke="rgba(2,109,105,0.4092)" stroke-width="4" opacity="0.3" x1="213" y1="551" x2="705" y2="427" /><line stroke="rgb(13,148,168)" stroke-width="2" opacity="0.3" x1="-5" y1="197" x2="927" y2="746" /><line stroke="Cornsilk" stroke-width="4" opacity="0.3" x1="272" y1="801" x2="815" y2="428" /><line stroke="rgb(20,23,108)" stroke-width="3" opacity="0.3" x1="770" y1="1052" x2="-64" y2="695" /><circle cx="12" cy="291" r="56" opacity="0.3" fill="rgba(115,29,255,0.241)"/><circle cx="65" cy="104" r="141" opacity="0.3" fill="0x7911e4"/><circle cx="774" cy="477" r="168" opacity="0.3" fill="#4bbc0b"/><circle cx="806" cy="506" r="231" opacity="0.3" fill="rgb(43,23,34)"/><circle cx="-85" cy="196" r="619" opacity="0.3" fill="rgb(212,203,18)"/><circle cx="1053" cy="415" r="942" opacity="0.3" fill="DarkViolet"/><circle cx="404" cy="627" r="372" opacity="0.3" fill="rgba(135,187,212,0.0686)"/><circle cx="-51" cy="169" r="510" opacity="0.3" fill="rgb(21,165,154)"/><circle cx="154" cy="-84" r="192" opacity="0.3" fill="#7b5"/><circle cx="605" cy="268" r="162" opacity="0.3" fill="0x290e43"/><circle cx="878" cy="476" r="965" opacity="0.3" fill="#2d2b0d"/><circle cx="509" cy="396" r="585" opacity="0.3" fill="Teal"/><circle cx="841" cy="686" r="1094" opacity="0.3" fill="0xf1c949"/><polygon fill="MediumSeaGreen" points="622,642 751,875 740,1602" opacity="0.3"/> <polygon fill="0x2b797d" points="1087,210 1688,353 1473,670" opacity="0.3"/> <polygon fill="Green" points="13,881 507,1089 925,1931" opacity="0.3"/> <polygon fill="rgb(15,52,12)" points="942,925 1519,1672 1254,1263" opacity="0.3"/> <polygon fill="rgb(206,136,94)" points="611,670 678,1563 1570,593" opacity="0.3"/> <polygon fill="RosyBrown" points="814,163 788,84 1901,402" opacity="0.3"/> <polygon fill="Linen" points="808,1021 780,2077 1019,1979" opacity="0.3"/> <polygon fill="LightSkyBlue" points="359,1042 1171,1608 916,2061" opacity="0.3"/> <polygon fill="#07f" points="336,-100 1411,540 531,-60" opacity="0.3"/> <polygon fill="#358" points="590,0 1221,343 574,263" opacity="0.3"/> <polygon fill="#080971" points="985,670 919,729 918,1128" opacity="0.3"/> <polygon fill="#a759ab" points="818,439 1213,1163 1391,1324" opacity="0.3"/> </svg>