<svg version="1.1" width="1000" height="1000" xmlns="http://www.w3.org/2000/svg" style="background-color:0x65ce8d"><line stroke="#fc5467" stroke-width="3" opacity="0.3" x1="783" y1="588" x2="262" y2="365" /><line stroke="Chartreuse" stroke-width="3" opacity="0.3" x1="736" y1="1084" x2="868" y2="750" /><line stroke="#3fedcb" stroke-width="3" opacity="0.3" x1="415" y1="163" x2="787" y2="62" /><line stroke="LightGray" stroke-width="3" opacity="0.3" x1="718" y1="302" x2="291" y2="769" /><line stroke="rgba(34,58,185,0.3843)" stroke-width="5" opacity="0.3" x1="603" y1="259" x2="520" y2="766" /><line stroke="#e4c" stroke-width="3" opacity="0.3" x1="355" y1="899" x2="21" y2="73" /><line stroke="#608f6c" stroke-width="1" opacity="0.3" x1="835" y1="398" x2="615" y2="411" /><line stroke="rgb(140,60,243)" stroke-width="1" opacity="0.3" x1="-16" y1="295" x2="74" y2="313" /><line stroke="0xf0b91b" stroke-width="2" opacity="0.3" x1="94" y1="676" x2="894" y2="617" /><line stroke="rgb(123,86,78)" stroke-width="3" opacity="0.3" x1="500" y1="1041" x2="807" y2="391" /><line stroke="rgba(42,43,55,0.1445)" stroke-width="4" opacity="0.3" x1="418" y1="530" x2="122" y2="946" /><line stroke="#144" stroke-width="5" opacity="0.3" x1="664" y1="573" x2="759" y2="890" /><line stroke="#02fced" stroke-width="5" opacity="0.3" x1="568" y1="983" x2="930" y2="573" /><line stroke="#813" stroke-width="3" opacity="0.3" x1="371" y1="614" x2="366" y2="-3" /><line stroke="0x071c11" stroke-width="1" opacity="0.3" x1="318" y1="655" x2="487" y2="-52" /><line stroke="rgba(114,238,96,0.9925)" stroke-width="2" opacity="0.3" x1="176" y1="218" x2="973" y2="1070" /><line stroke="#629" stroke-width="4" opacity="0.3" x1="1079" y1="523" x2="474" y2="424" /><line stroke="rgba(12,84,31,0.1111)" stroke-width="4" opacity="0.3" x1="213" y1="429" x2="854" y2="608" /><line stroke="OldLace" stroke-width="5" opacity="0.3" x1="952" y1="276" x2="196" y2="340" /><line stroke="rgba(35,61,218,0.3773)" stroke-width="1" opacity="0.3" x1="934" y1="13" x2="781" y2="51" /><line stroke="DarkViolet" stroke-width="4" opacity="0.3" x1="895" y1="868" x2="605" y2="846" /><line stroke="0x44215d" stroke-width="5" opacity="0.3" x1="-1" y1="297" x2="854" y2="335" /><line stroke="0x1cbef6" stroke-width="1" opacity="0.3" x1="615" y1="327" x2="559" y2="229" /><line stroke="0x8dfe11" stroke-width="4" opacity="0.3" x1="503" y1="185" x2="1086" y2="103" /><line stroke="rgba(242,180,40,0.7973)" stroke-width="2" opacity="0.3" x1="459" y1="236" x2="255" y2="63" /><line stroke="rgb(203,20,189)" stroke-width="5" opacity="0.3" x1="-4" y1="483" x2="497" y2="-54" /><line stroke="#6da484" stroke-width="3" opacity="0.3" x1="1097" y1="1053" x2="299" y2="959" /><line stroke="#e704bb" stroke-width="4" opacity="0.3" x1="302" y1="1013" x2="977" y2="1017" /><circle cx="-55" cy="1078" r="808" opacity="0.3" fill="MediumTurquoise"/><circle cx="92" cy="274" r="561" opacity="0.3" fill="#b96"/><circle cx="267" cy="-77" r="429" opacity="0.3" fill="#529103"/><circle cx="790" cy="422" r="1085" opacity="0.3" fill="0x6295f2"/><circle cx="376" cy="192" r="1058" opacity="0.3" fill="rgb(117,107,130)"/><circle cx="182" cy="12" r="548" opacity="0.3" fill="#948"/><circle cx="672" cy="1097" r="846" opacity="0.3" fill="#42ce0f"/><circle cx="324" cy="-39" r="449" opacity="0.3" fill="#d53"/><circle cx="667" cy="532" r="404" opacity="0.3" fill="#867"/><circle cx="602" cy="947" r="729" opacity="0.3" fill="0xa8d63f"/><circle cx="882" cy="513" r="309" opacity="0.3" fill="#89aa7c"/><circle cx="701" cy="849" r="389" opacity="0.3" fill="0xce837f"/><circle cx="888" cy="417" r="1078" opacity="0.3" fill="DarkOliveGreen"/><circle cx="920" cy="892" r="71" opacity="0.3" fill="#905"/><polygon fill="0x0c82c0" points="1069,517 1011,646 1991,856" opacity="0.3"/> <polygon fill="#3f7" points="190,363 291,1452 740,648" opacity="0.3"/> <polygon fill="#91cf26" points="614,404 1568,494 630,508" opacity="0.3"/> <polygon fill="rgba(200,116,250,0.8083)" points="1072,508 1835,735 1654,420" opacity="0.3"/> <polygon fill="rgba(143,186,94,0.701)" points="644,640 1329,673 1315,1331" opacity="0.3"/> <polygon fill="rgb(97,163,216)" points="488,698 1120,879 1270,1476" opacity="0.3"/> <polygon fill="DarkSlateBlue" points="894,319 1755,343 1016,1140" opacity="0.3"/> <polygon fill="0x6d4e00" points="359,741 593,1421 746,1579" opacity="0.3"/> <polygon fill="rgba(237,251,199,0.1501)" points="-44,697 314,1427 482,1250" opacity="0.3"/> <polygon fill="#665f71" points=" -31,729 1066,926 1044,973 1067,873 58,1752" opacity="0.3" /></svg>