<svg version="1.1" width="1000" height="1000" xmlns="http://www.w3.org/2000/svg" style="background-color:0x7054ab"><line stroke="#d1f" stroke-width="1" opacity="0.40613004872371916" x1="812" y1="816" x2="721" y2="837" /><line stroke="0x606a7f" stroke-width="2" opacity="0.40613004872371916" x1="72" y1="397" x2="767" y2="-89" /><line stroke="DarkKhaki" stroke-width="1" opacity="0.40613004872371916" x1="1014" y1="4" x2="8" y2="380" /><line stroke="#922" stroke-width="3" opacity="0.40613004872371916" x1="896" y1="663" x2="-73" y2="621" /><line stroke="0x9788aa" stroke-width="1" opacity="0.40613004872371916" x1="562" y1="870" x2="-39" y2="735" /><line stroke="#e97a1c" stroke-width="5" opacity="0.40613004872371916" x1="-89" y1="479" x2="308" y2="959" /><line stroke="0x2b9e5c" stroke-width="3" opacity="0.40613004872371916" x1="1096" y1="744" x2="832" y2="840" /><line stroke="rgba(87,152,253,0.4276)" stroke-width="3" opacity="0.40613004872371916" x1="391" y1="362" x2="-56" y2="528" /><line stroke="DarkTurquoise" stroke-width="5" opacity="0.40613004872371916" x1="987" y1="741" x2="391" y2="362" /><line stroke="HotPink" stroke-width="4" opacity="0.40613004872371916" x1="667" y1="337" x2="1068" y2="248" /><line stroke="0xff30f4" stroke-width="2" opacity="0.40613004872371916" x1="1047" y1="1061" x2="904" y2="429" /><circle cx="239" cy="674" r="892" opacity="0.40613004872371916" fill="rgba(12,154,188,0.5442)"/><circle cx="26" cy="215" r="26" opacity="0.40613004872371916" fill="#fd0"/><circle cx="1097" cy="428" r="1021" opacity="0.40613004872371916" fill="#b530a5"/><polygon fill="rgb(156,74,221)" points="98,161 553,136 264,348" opacity="0.40613004872371916"/> <polygon fill="#20e76e" points="107,397 757,473 1199,831" opacity="0.40613004872371916"/> <polygon fill="Gold" points="461,34 1506,452 851,511" opacity="0.40613004872371916"/> <polygon fill="rgb(28,161,250)" points="1020,283 1687,1203 1929,1183" opacity="0.40613004872371916"/> <polygon fill="MintCream" points="620,98 911,840 792,304" opacity="0.40613004872371916"/> <polygon fill="rgb(116,61,37)" points="1000,185 1736,1277 1100,96" opacity="0.40613004872371916"/> <polygon fill="rgba(29,242,200,0.3428)" points="1074,689 1749,843 1031,1326" opacity="0.40613004872371916"/> <polygon fill="#81bb97" points="747,885 1429,1574 917,1367" opacity="0.40613004872371916"/> <polygon fill="rgb(48,35,169)" points="881,-74 972,451 1764,474" opacity="0.40613004872371916"/> <polygon fill="rgb(213,248,196)" points="280,383 465,517 1029,777" opacity="0.40613004872371916"/> <polygon fill="rgb(33,255,9)" points="798,1023 1064,954 1142,1696" opacity="0.40613004872371916"/> <polygon fill="Sienna" points="436,846 440,963 657,1638" opacity="0.40613004872371916"/> <polygon fill="#263" points="1061,59 1326,641 1730,89" opacity="0.40613004872371916"/> <polygon fill="AliceBlue" points="206,331 718,1037 495,439" opacity="0.40613004872371916"/> <polygon fill="rgb(179,231,192)" points="478,924 751,1647 682,1403" opacity="0.40613004872371916"/> <polygon fill="rgb(11,225,63)" points="-60,624 110,916 690,1545" opacity="0.40613004872371916"/> <polygon fill="0x040fd3" points="236,528 1157,1465 424,1431" opacity="0.40613004872371916"/> <polygon fill="#0b4" points="-4,17 800,110 625,756" opacity="0.40613004872371916"/> <polygon fill="0x97fcae" points="-16,1012 229,2087 -108,1028" opacity="0.40613004872371916"/> <polygon fill="0x762f62" points="281,425 1117,1406 689,560" opacity="0.40613004872371916"/> </svg>