<svg version="1.1" width="1000" height="1000" xmlns="http://www.w3.org/2000/svg" style="background-color:DarkViolet"><line stroke="rgba(128,177,42,0.6186)" stroke-width="4" opacity="0.9065625264445052" x1="44" y1="41" x2="716" y2="49" /><line stroke="Olive" stroke-width="2" opacity="0.9065625264445052" x1="613" y1="383" x2="-11" y2="939" /><line stroke="#9203e5" stroke-width="5" opacity="0.9065625264445052" x1="709" y1="149" x2="929" y2="60" /><line stroke="rgba(222,56,116,0.9384)" stroke-width="3" opacity="0.9065625264445052" x1="928" y1="648" x2="5" y2="470" /><line stroke="DimGray" stroke-width="4" opacity="0.9065625264445052" x1="16" y1="27" x2="1038" y2="1039" /><line stroke="rgb(218,94,88)" stroke-width="4" opacity="0.9065625264445052" x1="21" y1="555" x2="1090" y2="509" /><line stroke="rgba(8,129,186,0.6564)" stroke-width="1" opacity="0.9065625264445052" x1="248" y1="246" x2="582" y2="284" /><line stroke="0x2e5fd5" stroke-width="5" opacity="0.9065625264445052" x1="1036" y1="250" x2="149" y2="913" /><line stroke="0xddb14e" stroke-width="3" opacity="0.9065625264445052" x1="489" y1="289" x2="1066" y2="169" /><line stroke="0x946f14" stroke-width="5" opacity="0.9065625264445052" x1="1090" y1="116" x2="120" y2="732" /><line stroke="rgba(255,57,19,0.3133)" stroke-width="2" opacity="0.9065625264445052" x1="789" y1="-26" x2="904" y2="104" /><line stroke="Tan" stroke-width="5" opacity="0.9065625264445052" x1="1034" y1="646" x2="64" y2="368" /><line stroke="#82585b" stroke-width="2" opacity="0.9065625264445052" x1="872" y1="951" x2="735" y2="170" /><line stroke="#0d6" stroke-width="4" opacity="0.9065625264445052" x1="463" y1="306" x2="897" y2="953" /><line stroke="rgba(67,8,223,0.7687)" stroke-width="3" opacity="0.9065625264445052" x1="489" y1="764" x2="754" y2="376" /><line stroke="#dd9" stroke-width="2" opacity="0.9065625264445052" x1="567" y1="1001" x2="607" y2="465" /><line stroke="#a81" stroke-width="2" opacity="0.9065625264445052" x1="941" y1="261" x2="104" y2="910" /><line stroke="#f08" stroke-width="1" opacity="0.9065625264445052" x1="821" y1="110" x2="491" y2="804" /><line stroke="rgb(139,185,25)" stroke-width="4" opacity="0.9065625264445052" x1="312" y1="158" x2="591" y2="138" /><line stroke="rgba(140,216,201,0.574)" stroke-width="3" opacity="0.9065625264445052" x1="32" y1="7" x2="873" y2="165" /><line stroke="rgb(196,100,5)" stroke-width="5" opacity="0.9065625264445052" x1="468" y1="1029" x2="280" y2="826" /><line stroke="rgb(157,61,213)" stroke-width="2" opacity="0.9065625264445052" x1="-76" y1="482" x2="997" y2="375" /><line stroke="#557be3" stroke-width="1" opacity="0.9065625264445052" x1="-48" y1="407" x2="593" y2="924" /><circle cx="383" cy="233" r="119" opacity="0.9065625264445052" fill="rgba(92,82,182,0.2673)"/><circle cx="483" cy="182" r="863" opacity="0.9065625264445052" fill="#22f"/><circle cx="749" cy="371" r="181" opacity="0.9065625264445052" fill="0x45eda4"/><circle cx="-86" cy="792" r="1043" opacity="0.9065625264445052" fill="rgba(250,223,41,0.3482)"/><circle cx="343" cy="444" r="472" opacity="0.9065625264445052" fill="CadetBlue"/><circle cx="633" cy="624" r="870" opacity="0.9065625264445052" fill="Orange"/><circle cx="544" cy="808" r="964" opacity="0.9065625264445052" fill="FloralWhite"/><circle cx="633" cy="795" r="248" opacity="0.9065625264445052" fill="SkyBlue"/><circle cx="578" cy="581" r="155" opacity="0.9065625264445052" fill="Cyan"/><circle cx="473" cy="97" r="702" opacity="0.9065625264445052" fill="#3ea59a"/><circle cx="-30" cy="-61" r="1055" opacity="0.9065625264445052" fill="#7e7447"/><circle cx="469" cy="847" r="942" opacity="0.9065625264445052" fill="rgb(195,5,109)"/><polygon fill="LightYellow" points="73,979 893,1102 905,1341" opacity="0.9065625264445052"/> <polygon fill="rgba(209,183,113,0.0864)" points="310,158 1065,831 235,767" opacity="0.9065625264445052"/> <polygon fill="LawnGreen" points="14,272 656,1063 666,1197" opacity="0.9065625264445052"/> <polygon fill="#2d2" points=" 48,-49 389,22 219,-114 232,616 379,658 365,582 426,496 191,204" opacity="0.9065625264445052" /></svg>