<svg version="1.1" width="1000" height="1000" xmlns="http://www.w3.org/2000/svg" style="background-color:rgb(219,57,142)"><line stroke="#0e5" stroke-width="1" opacity="0.3" x1="772" y1="292" x2="659" y2="295" /><line stroke="0x9b3402" stroke-width="2" opacity="0.3" x1="844" y1="784" x2="-32" y2="251" /><line stroke="0xe57139" stroke-width="5" opacity="0.3" x1="191" y1="300" x2="339" y2="499" /><line stroke="0xb0ef58" stroke-width="1" opacity="0.3" x1="448" y1="291" x2="349" y2="394" /><line stroke="DeepPink" stroke-width="2" opacity="0.3" x1="740" y1="532" x2="1018" y2="887" /><line stroke="rgba(108,72,18,0.4873)" stroke-width="4" opacity="0.3" x1="1068" y1="456" x2="323" y2="849" /><line stroke="BlanchedAlmond" stroke-width="1" opacity="0.3" x1="927" y1="467" x2="393" y2="1014" /><line stroke="0xd021b7" stroke-width="4" opacity="0.3" x1="868" y1="384" x2="1053" y2="610" /><line stroke="rgb(21,22,215)" stroke-width="4" opacity="0.3" x1="427" y1="126" x2="273" y2="333" /><line stroke="0x520014" stroke-width="3" opacity="0.3" x1="568" y1="-88" x2="473" y2="713" /><line stroke="#286" stroke-width="5" opacity="0.3" x1="167" y1="116" x2="97" y2="104" /><line stroke="#12feb4" stroke-width="4" opacity="0.3" x1="913" y1="389" x2="823" y2="911" /><line stroke="rgb(83,6,252)" stroke-width="4" opacity="0.3" x1="942" y1="428" x2="1045" y2="1091" /><line stroke="rgba(190,90,51,0.0187)" stroke-width="3" opacity="0.3" x1="899" y1="467" x2="756" y2="724" /><line stroke="0xf5f820" stroke-width="1" opacity="0.3" x1="58" y1="179" x2="652" y2="431" /><line stroke="rgba(216,173,127,0.4589)" stroke-width="5" opacity="0.3" x1="335" y1="466" x2="1010" y2="329" /><line stroke="#76a" stroke-width="1" opacity="0.3" x1="216" y1="617" x2="300" y2="855" /><line stroke="rgb(50,197,213)" stroke-width="1" opacity="0.3" x1="153" y1="27" x2="398" y2="565" /><line stroke="AliceBlue" stroke-width="4" opacity="0.3" x1="747" y1="998" x2="-1" y2="457" /><line stroke="#831edd" stroke-width="4" opacity="0.3" x1="32" y1="20" x2="852" y2="749" /><line stroke="Chocolate" stroke-width="4" opacity="0.3" x1="634" y1="153" x2="482" y2="160" /><line stroke="#9c11f3" stroke-width="5" opacity="0.3" x1="641" y1="409" x2="99" y2="745" /><line stroke="rgb(200,1,183)" stroke-width="4" opacity="0.3" x1="379" y1="776" x2="83" y2="256" /><line stroke="0x0fcb9f" stroke-width="4" opacity="0.3" x1="117" y1="96" x2="1068" y2="601" /><line stroke="rgba(84,185,34,0.2944)" stroke-width="3" opacity="0.3" x1="-66" y1="87" x2="977" y2="976" /><line stroke="rgb(129,58,241)" stroke-width="3" opacity="0.3" x1="-86" y1="452" x2="601" y2="152" /><line stroke="0xf0545a" stroke-width="1" opacity="0.3" x1="722" y1="644" x2="285" y2="1027" /><line stroke="rgb(57,128,115)" stroke-width="3" opacity="0.3" x1="229" y1="1007" x2="559" y2="890" /><line stroke="#4e506f" stroke-width="5" opacity="0.3" x1="202" y1="466" x2="920" y2="318" /><line stroke="Peru" stroke-width="1" opacity="0.3" x1="251" y1="656" x2="459" y2="45" /><circle cx="746" cy="237" r="501" opacity="0.3" fill="#daff9c"/><circle cx="53" cy="777" r="814" opacity="0.3" fill="DarkGoldenRod"/><circle cx="272" cy="282" r="1031" opacity="0.3" fill="rgb(19,232,125)"/><circle cx="24" cy="-22" r="168" opacity="0.3" fill="#ad2"/><circle cx="573" cy="610" r="645" opacity="0.3" fill="#018"/><circle cx="486" cy="565" r="1075" opacity="0.3" fill="#bc2"/><circle cx="169" cy="819" r="150" opacity="0.3" fill="Olive"/><circle cx="1098" cy="522" r="119" opacity="0.3" fill="Olive"/><circle cx="974" cy="37" r="494" opacity="0.3" fill="rgb(142,140,44)"/><circle cx="829" cy="845" r="1060" opacity="0.3" fill="#c8a108"/><circle cx="810" cy="466" r="658" opacity="0.3" fill="#f104ee"/><circle cx="456" cy="526" r="476" opacity="0.3" fill="GoldenRod"/><polygon fill="rgba(27,203,61,0.2874)" points="981,479 1147,1123 1173,1105" opacity="0.3"/> <polygon fill="0xd918a4" points="971,316 1610,925 1716,1231" opacity="0.3"/> <polygon fill="rgba(251,128,169,0.9205)" points="1052,639 1672,965 1001,1585" opacity="0.3"/> <polygon fill="#9b5" points="641,-34 1581,-111 866,620" opacity="0.3"/> <polygon fill="Red" points="170,854 260,901 930,1786" opacity="0.3"/> </svg>