<svg version="1.1" width="1000" height="1000" xmlns="http://www.w3.org/2000/svg" style="background-color:0xd987ad"><line stroke="#64e" stroke-width="2" opacity="0.3" x1="637" y1="672" x2="811" y2="234" /><line stroke="#078" stroke-width="1" opacity="0.3" x1="1038" y1="631" x2="353" y2="857" /><line stroke="rgba(11,7,90,0.6008)" stroke-width="1" opacity="0.3" x1="989" y1="1021" x2="1078" y2="108" /><line stroke="PaleGoldenRod" stroke-width="3" opacity="0.3" x1="944" y1="-59" x2="682" y2="842" /><line stroke="MediumSpringGreen" stroke-width="4" opacity="0.3" x1="525" y1="806" x2="-70" y2="1056" /><line stroke="rgb(174,45,116)" stroke-width="4" opacity="0.3" x1="-40" y1="298" x2="732" y2="495" /><line stroke="#82b" stroke-width="1" opacity="0.3" x1="412" y1="630" x2="985" y2="857" /><line stroke="0xf2b96b" stroke-width="4" opacity="0.3" x1="115" y1="480" x2="738" y2="361" /><line stroke="DarkCyan" stroke-width="2" opacity="0.3" x1="417" y1="662" x2="1041" y2="475" /><line stroke="#c5b24a" stroke-width="3" opacity="0.3" x1="614" y1="543" x2="952" y2="109" /><line stroke="rgba(217,160,205,0.9105)" stroke-width="4" opacity="0.3" x1="318" y1="275" x2="938" y2="394" /><line stroke="rgb(17,204,220)" stroke-width="4" opacity="0.3" x1="449" y1="562" x2="384" y2="162" /><line stroke="rgba(183,67,71,0.1574)" stroke-width="4" opacity="0.3" x1="1062" y1="316" x2="1054" y2="727" /><line stroke="rgb(47,159,209)" stroke-width="5" opacity="0.3" x1="764" y1="531" x2="221" y2="93" /><line stroke="rgb(74,81,186)" stroke-width="3" opacity="0.3" x1="864" y1="1001" x2="636" y2="705" /><line stroke="#4d6e2c" stroke-width="2" opacity="0.3" x1="469" y1="-70" x2="271" y2="197" /><line stroke="rgba(223,173,137,0.5901)" stroke-width="3" opacity="0.3" x1="649" y1="-50" x2="586" y2="-3" /><line stroke="#b37db6" stroke-width="3" opacity="0.3" x1="718" y1="1052" x2="144" y2="1085" /><line stroke="Yellow" stroke-width="5" opacity="0.3" x1="49" y1="605" x2="-95" y2="365" /><circle cx="532" cy="375" r="818" opacity="0.3" fill="Purple"/><circle cx="967" cy="983" r="575" opacity="0.3" fill="#0bd993"/><circle cx="535" cy="-42" r="890" opacity="0.3" fill="rgba(240,77,246,0.1367)"/><circle cx="43" cy="455" r="773" opacity="0.3" fill="#728ad3"/><circle cx="1004" cy="297" r="526" opacity="0.3" fill="MediumOrchid"/><circle cx="408" cy="831" r="993" opacity="0.3" fill="FireBrick"/><circle cx="381" cy="20" r="209" opacity="0.3" fill="#9b5"/><circle cx="-10" cy="-78" r="779" opacity="0.3" fill="rgba(92,105,137,0.8947)"/><circle cx="-72" cy="1019" r="711" opacity="0.3" fill="#66926d"/><circle cx="165" cy="882" r="249" opacity="0.3" fill="rgb(140,70,232)"/><circle cx="55" cy="431" r="797" opacity="0.3" fill="DeepSkyBlue"/><circle cx="593" cy="607" r="735" opacity="0.3" fill="0x915d2a"/><polygon fill="Chocolate" points="-13,90 488,367 761,640" opacity="0.3"/> <polygon fill="0x9b2870" points="818,656 1619,1067 857,1220" opacity="0.3"/> <polygon fill="rgba(184,149,240,0.8799)" points="195,946 806,908 617,1428" opacity="0.3"/> <polygon fill="0x738ce9" points="545,661 507,1667 1042,1293" opacity="0.3"/> <polygon fill="#446888" points="300,605 1022,530 305,562" opacity="0.3"/> <polygon fill="PowderBlue" points="24,566 182,701 795,537" opacity="0.3"/> <polygon fill="#683" points="309,-40 994,6 667,3" opacity="0.3"/> <polygon fill="0x10b1b2" points="554,603 1196,876 1358,925" opacity="0.3"/> <polygon fill="rgb(132,197,231)" points="227,916 994,1797 745,1817" opacity="0.3"/> <polygon fill="Gray" points="610,377 1111,874 1710,1387" opacity="0.3"/> <polygon fill="Tomato" points=" 743,1005 1220,2067 1768,1644 1599,1212 806,1660 707,1654 864,1552 685,1137 719,1627" opacity="0.3" /></svg>