<svg version="1.1" width="1000" height="1000" xmlns="http://www.w3.org/2000/svg" style="background-color:#67e"><line stroke="#ab2" stroke-width="2" opacity="0.6709412907759216" x1="612" y1="42" x2="425" y2="699" /><line stroke="rgba(104,243,95,0.3631)" stroke-width="5" opacity="0.6709412907759216" x1="-92" y1="850" x2="729" y2="318" /><line stroke="rgba(213,38,58,0.6409)" stroke-width="1" opacity="0.6709412907759216" x1="412" y1="906" x2="393" y2="242" /><line stroke="rgb(66,29,73)" stroke-width="2" opacity="0.6709412907759216" x1="70" y1="1076" x2="901" y2="-45" /><line stroke="0x336797" stroke-width="3" opacity="0.6709412907759216" x1="550" y1="538" x2="431" y2="1054" /><line stroke="0xe0d569" stroke-width="4" opacity="0.6709412907759216" x1="116" y1="160" x2="462" y2="135" /><line stroke="rgb(253,27,20)" stroke-width="1" opacity="0.6709412907759216" x1="235" y1="904" x2="-69" y2="841" /><line stroke="rgb(172,37,59)" stroke-width="1" opacity="0.6709412907759216" x1="-12" y1="396" x2="27" y2="715" /><line stroke="rgb(10,249,215)" stroke-width="1" opacity="0.6709412907759216" x1="864" y1="628" x2="839" y2="237" /><line stroke="#d25" stroke-width="3" opacity="0.6709412907759216" x1="450" y1="91" x2="265" y2="722" /><line stroke="rgb(54,50,168)" stroke-width="2" opacity="0.6709412907759216" x1="337" y1="482" x2="1031" y2="870" /><line stroke="rgba(240,204,226,0.3362)" stroke-width="4" opacity="0.6709412907759216" x1="452" y1="546" x2="1027" y2="776" /><line stroke="#9b4" stroke-width="3" opacity="0.6709412907759216" x1="284" y1="158" x2="321" y2="781" /><line stroke="#842cf0" stroke-width="4" opacity="0.6709412907759216" x1="960" y1="-32" x2="1046" y2="348" /><line stroke="rgb(6,164,211)" stroke-width="3" opacity="0.6709412907759216" x1="638" y1="619" x2="50" y2="1088" /><line stroke="rgba(207,47,181,0.9329)" stroke-width="2" opacity="0.6709412907759216" x1="308" y1="788" x2="211" y2="-97" /><line stroke="#87615b" stroke-width="2" opacity="0.6709412907759216" x1="354" y1="545" x2="1046" y2="349" /><line stroke="#22af79" stroke-width="4" opacity="0.6709412907759216" x1="717" y1="524" x2="141" y2="544" /><line stroke="0xb8aaf2" stroke-width="1" opacity="0.6709412907759216" x1="20" y1="1037" x2="134" y2="-28" /><line stroke="#4ac404" stroke-width="1" opacity="0.6709412907759216" x1="60" y1="992" x2="405" y2="311" /><line stroke="0x0d34f2" stroke-width="1" opacity="0.6709412907759216" x1="595" y1="54" x2="61" y2="734" /><line stroke="0x4a9707" stroke-width="3" opacity="0.6709412907759216" x1="179" y1="251" x2="687" y2="38" /><line stroke="MintCream" stroke-width="3" opacity="0.6709412907759216" x1="557" y1="886" x2="247" y2="679" /><line stroke="#5dd" stroke-width="2" opacity="0.6709412907759216" x1="-99" y1="-1" x2="565" y2="-29" /><line stroke="rgba(140,75,25,0.1301)" stroke-width="5" opacity="0.6709412907759216" x1="343" y1="602" x2="1071" y2="-2" /><line stroke="rgba(64,191,134,0.1983)" stroke-width="4" opacity="0.6709412907759216" x1="10" y1="41" x2="243" y2="451" /><line stroke="0xebdb20" stroke-width="4" opacity="0.6709412907759216" x1="393" y1="105" x2="-13" y2="317" /><line stroke="SandyBrown" stroke-width="2" opacity="0.6709412907759216" x1="430" y1="1012" x2="291" y2="177" /><line stroke="#705" stroke-width="3" opacity="0.6709412907759216" x1="-49" y1="949" x2="775" y2="118" /><line stroke="rgba(12,221,177,0.3853)" stroke-width="4" opacity="0.6709412907759216" x1="-56" y1="971" x2="362" y2="474" /><circle cx="260" cy="836" r="308" opacity="0.6709412907759216" fill="#a8fb18"/><circle cx="325" cy="552" r="375" opacity="0.6709412907759216" fill="#2f3b86"/><circle cx="416" cy="679" r="598" opacity="0.6709412907759216" fill="#4af"/><circle cx="868" cy="556" r="749" opacity="0.6709412907759216" fill="rgba(254,180,91,0.5663)"/><circle cx="-92" cy="-82" r="439" opacity="0.6709412907759216" fill="#a6ec7b"/><polygon fill="LightSalmon" points="55,453 772,413 938,768" opacity="0.6709412907759216"/> <polygon fill="#8b9" points="413,532 585,503 840,1102" opacity="0.6709412907759216"/> <polygon fill="rgb(130,249,222)" points="-63,795 444,1798 122,907" opacity="0.6709412907759216"/> <polygon fill="rgb(243,194,97)" points="497,154 515,106 780,1117" opacity="0.6709412907759216"/> <polygon fill="0xc41836" points="896,704 1239,612 1634,1211" opacity="0.6709412907759216"/> <polygon fill="#508" points="590,8 715,50 1494,526" opacity="0.6709412907759216"/> <polygon fill="rgb(229,4,142)" points="540,-89 1206,-136 566,554" opacity="0.6709412907759216"/> <polygon fill="0x28bd58" points="426,530 712,568 1338,831" opacity="0.6709412907759216"/> <polygon fill="#d7fd09" points="-93,590 693,672 591,1192" opacity="0.6709412907759216"/> <polygon fill="MediumVioletRed" points="225,370 613,849 996,1294" opacity="0.6709412907759216"/> <polygon fill="#cfc48d" points="-71,708 776,1365 836,931" opacity="0.6709412907759216"/> <polygon fill="#085" points="929,748 834,1273 876,802" opacity="0.6709412907759216"/> <polygon fill="rgba(7,96,101,0.606)" points="796,942 973,1081 741,1031" opacity="0.6709412907759216"/> <polygon fill="rgb(123,163,74)" points="208,1029 453,1488 487,1839" opacity="0.6709412907759216"/> <polygon fill="0xd10f35" points="77,714 824,828 147,1406" opacity="0.6709412907759216"/> <polygon fill="DarkViolet" points="183,914 788,1793 961,1980" opacity="0.6709412907759216"/> <polygon fill="rgb(229,230,58)" points="1035,944 1439,2021 1650,1026" opacity="0.6709412907759216"/> <polygon fill="0xbc7168" points="285,353 659,287 1025,1117" opacity="0.6709412907759216"/> <polygon fill="#5e7d7f" points="666,294 1268,1007 1273,1113" opacity="0.6709412907759216"/> <polygon fill="DarkTurquoise" points="329,630 337,964 1410,847" opacity="0.6709412907759216"/> <polygon fill="BlueViolet" points=" 569,-12 716,-100 1494,659 1224,872 1081,744 563,268 798,637" opacity="0.6709412907759216" /></svg>