<svg version="1.1" width="1000" height="1000" xmlns="http://www.w3.org/2000/svg" style="background-color:rgba(136,220,207,0.8249)"><line stroke="rgb(162,171,174)" stroke-width="2" opacity="0.3" x1="189" y1="361" x2="550" y2="1053" /><line stroke="#89f" stroke-width="5" opacity="0.3" x1="381" y1="386" x2="177" y2="706" /><line stroke="#c81" stroke-width="3" opacity="0.3" x1="757" y1="564" x2="1060" y2="269" /><line stroke="#090" stroke-width="2" opacity="0.3" x1="8" y1="-10" x2="926" y2="430" /><line stroke="rgb(182,17,241)" stroke-width="3" opacity="0.3" x1="502" y1="463" x2="839" y2="702" /><line stroke="#90d" stroke-width="1" opacity="0.3" x1="19" y1="1027" x2="470" y2="457" /><line stroke="rgb(233,214,74)" stroke-width="3" opacity="0.3" x1="986" y1="980" x2="874" y2="942" /><line stroke="rgb(174,207,195)" stroke-width="4" opacity="0.3" x1="185" y1="74" x2="993" y2="805" /><line stroke="rgb(244,162,169)" stroke-width="2" opacity="0.3" x1="-82" y1="667" x2="214" y2="452" /><line stroke="0x4971b9" stroke-width="3" opacity="0.3" x1="518" y1="206" x2="421" y2="42" /><line stroke="rgb(89,228,108)" stroke-width="1" opacity="0.3" x1="468" y1="-34" x2="510" y2="564" /><line stroke="#603" stroke-width="4" opacity="0.3" x1="131" y1="968" x2="506" y2="394" /><line stroke="rgb(234,203,115)" stroke-width="1" opacity="0.3" x1="478" y1="-79" x2="1002" y2="778" /><line stroke="rgb(98,189,116)" stroke-width="4" opacity="0.3" x1="696" y1="96" x2="76" y2="422" /><line stroke="Gainsboro" stroke-width="1" opacity="0.3" x1="351" y1="-46" x2="601" y2="741" /><line stroke="#629ba8" stroke-width="2" opacity="0.3" x1="676" y1="349" x2="1084" y2="25" /><line stroke="0xc38a53" stroke-width="4" opacity="0.3" x1="195" y1="754" x2="168" y2="188" /><line stroke="LightSeaGreen" stroke-width="5" opacity="0.3" x1="195" y1="241" x2="378" y2="-91" /><line stroke="Snow" stroke-width="5" opacity="0.3" x1="644" y1="378" x2="645" y2="330" /><line stroke="#08b557" stroke-width="5" opacity="0.3" x1="971" y1="479" x2="84" y2="697" /><line stroke="#7a2e8f" stroke-width="3" opacity="0.3" x1="284" y1="905" x2="552" y2="269" /><line stroke="RoyalBlue" stroke-width="3" opacity="0.3" x1="687" y1="557" x2="-7" y2="133" /><line stroke="#33e" stroke-width="3" opacity="0.3" x1="558" y1="145" x2="514" y2="337" /><line stroke="rgb(166,72,175)" stroke-width="1" opacity="0.3" x1="55" y1="995" x2="1065" y2="290" /><line stroke="rgba(136,199,80,0.4278)" stroke-width="5" opacity="0.3" x1="483" y1="-11" x2="24" y2="440" /><circle cx="591" cy="150" r="180" opacity="0.3" fill="#76d"/><circle cx="1014" cy="-77" r="480" opacity="0.3" fill="#44b"/><circle cx="913" cy="404" r="581" opacity="0.3" fill="#2d0"/><circle cx="358" cy="57" r="475" opacity="0.3" fill="DarkRed"/><circle cx="655" cy="843" r="161" opacity="0.3" fill="rgb(59,175,48)"/><circle cx="245" cy="193" r="329" opacity="0.3" fill="0x3bcb7a"/><circle cx="180" cy="889" r="830" opacity="0.3" fill="#9192c8"/><circle cx="398" cy="1082" r="665" opacity="0.3" fill="DarkGray"/><polygon fill="#a51" points="512,774 1531,1101 976,1250" opacity="0.3"/> <polygon fill="#ef404a" points="622,1013 1410,1693 1681,2018" opacity="0.3"/> <polygon fill="0x3565f0" points="436,438 1372,1485 1362,960" opacity="0.3"/> <polygon fill="rgb(15,41,23)" points="1024,-56 948,637 1734,251" opacity="0.3"/> <polygon fill="ForestGreen" points="383,192 914,111 1258,679" opacity="0.3"/> <polygon fill="rgba(69,54,53,0.8472)" points="180,492 317,610 971,1440" opacity="0.3"/> <polygon fill="LightCoral" points="1077,363 1061,344 2128,700" opacity="0.3"/> <polygon fill="#647" points="185,413 700,1232 175,517" opacity="0.3"/> <polygon fill="#471" points="301,634 775,1614 282,1429" opacity="0.3"/> <polygon fill="#842f0f" points="738,384 1517,913 794,303" opacity="0.3"/> <polygon fill="rgb(230,196,51)" points="775,992 1241,958 810,1049" opacity="0.3"/> <polygon fill="#f55866" points="103,118 643,297 170,1003" opacity="0.3"/> <polygon fill="Peru" points="273,366 236,1440 795,1093" opacity="0.3"/> <polygon fill="rgb(224,200,195)" points="124,1023 1141,1025 175,2108" opacity="0.3"/> <polygon fill="0x562e85" points="775,743 1492,1167 969,1320" opacity="0.3"/> <polygon fill="Purple" points="1070,-69 1349,373 1857,-145" opacity="0.3"/> <polygon fill="GoldenRod" points="108,355 1155,923 845,1131" opacity="0.3"/> <polygon fill="rgba(112,98,196,0.8182)" points=" 937,980 1722,1205 1619,1932 1768,2014 2010,1439 1723,912 1378,1349" opacity="0.3" /></svg>