<svg version="1.1" width="1000" height="1000" xmlns="http://www.w3.org/2000/svg" style="background-color:rgb(138,122,139)"><line stroke="#f13" stroke-width="4" opacity="0.8870253163075843" x1="52" y1="563" x2="450" y2="415" /><line stroke="rgba(95,30,42,0.5603)" stroke-width="4" opacity="0.8870253163075843" x1="469" y1="753" x2="181" y2="514" /><line stroke="#f00" stroke-width="2" opacity="0.8870253163075843" x1="879" y1="43" x2="466" y2="570" /><line stroke="rgba(71,89,42,0.3767)" stroke-width="2" opacity="0.8870253163075843" x1="685" y1="606" x2="539" y2="705" /><line stroke="SaddleBrown" stroke-width="3" opacity="0.8870253163075843" x1="53" y1="338" x2="370" y2="720" /><line stroke="#31e9c5" stroke-width="1" opacity="0.8870253163075843" x1="-62" y1="-5" x2="308" y2="-98" /><line stroke="#d6f" stroke-width="2" opacity="0.8870253163075843" x1="740" y1="555" x2="165" y2="1073" /><line stroke="rgba(35,223,9,0.2214)" stroke-width="2" opacity="0.8870253163075843" x1="170" y1="937" x2="729" y2="719" /><line stroke="Azure" stroke-width="4" opacity="0.8870253163075843" x1="1011" y1="510" x2="937" y2="477" /><line stroke="0xe60ad8" stroke-width="2" opacity="0.8870253163075843" x1="802" y1="207" x2="245" y2="808" /><line stroke="rgb(222,8,164)" stroke-width="4" opacity="0.8870253163075843" x1="680" y1="470" x2="493" y2="595" /><line stroke="SteelBlue" stroke-width="4" opacity="0.8870253163075843" x1="963" y1="-21" x2="559" y2="761" /><line stroke="Green" stroke-width="3" opacity="0.8870253163075843" x1="20" y1="998" x2="56" y2="521" /><line stroke="#638" stroke-width="3" opacity="0.8870253163075843" x1="133" y1="638" x2="475" y2="672" /><line stroke="#c1d" stroke-width="1" opacity="0.8870253163075843" x1="196" y1="144" x2="105" y2="195" /><line stroke="Purple" stroke-width="4" opacity="0.8870253163075843" x1="818" y1="124" x2="213" y2="795" /><line stroke="#06f" stroke-width="5" opacity="0.8870253163075843" x1="500" y1="1022" x2="148" y2="452" /><line stroke="rgb(111,62,132)" stroke-width="2" opacity="0.8870253163075843" x1="-31" y1="861" x2="-15" y2="294" /><line stroke="rgba(246,84,190,0.6198)" stroke-width="3" opacity="0.8870253163075843" x1="417" y1="691" x2="517" y2="668" /><line stroke="rgb(118,19,134)" stroke-width="4" opacity="0.8870253163075843" x1="814" y1="811" x2="409" y2="-53" /><line stroke="#c82" stroke-width="5" opacity="0.8870253163075843" x1="683" y1="-31" x2="466" y2="157" /><line stroke="rgba(132,145,226,0.6788)" stroke-width="5" opacity="0.8870253163075843" x1="1008" y1="18" x2="615" y2="457" /><circle cx="249" cy="196" r="638" opacity="0.8870253163075843" fill="#967ffc"/><circle cx="340" cy="946" r="144" opacity="0.8870253163075843" fill="0xdd4fc9"/><circle cx="300" cy="492" r="766" opacity="0.8870253163075843" fill="MediumPurple"/><circle cx="836" cy="133" r="167" opacity="0.8870253163075843" fill="#2d06b8"/><circle cx="309" cy="156" r="442" opacity="0.8870253163075843" fill="#050"/><circle cx="459" cy="-65" r="715" opacity="0.8870253163075843" fill="rgb(206,128,220)"/><circle cx="312" cy="171" r="467" opacity="0.8870253163075843" fill="rgba(214,160,49,0.3097)"/><circle cx="472" cy="167" r="446" opacity="0.8870253163075843" fill="rgb(124,194,247)"/><circle cx="374" cy="592" r="891" opacity="0.8870253163075843" fill="rgb(185,21,242)"/><circle cx="756" cy="-64" r="113" opacity="0.8870253163075843" fill="rgb(89,4,5)"/><circle cx="1055" cy="313" r="726" opacity="0.8870253163075843" fill="#ee5"/><circle cx="-43" cy="523" r="514" opacity="0.8870253163075843" fill="Olive"/><polygon fill="0x2b8fc1" points="384,12 618,754 1242,243" opacity="0.8870253163075843"/> <polygon fill="#4b3" points="814,771 1404,1122 1846,1693" opacity="0.8870253163075843"/> </svg>