<svg version="1.1" width="1000" height="1000" xmlns="http://www.w3.org/2000/svg" style="background-color:0xe469a3"><line stroke="#40f3f3" stroke-width="4" opacity="0.8123558197435972" x1="898" y1="957" x2="774" y2="655" /><line stroke="Violet" stroke-width="5" opacity="0.8123558197435972" x1="93" y1="722" x2="994" y2="344" /><line stroke="Ivory" stroke-width="4" opacity="0.8123558197435972" x1="249" y1="160" x2="860" y2="376" /><circle cx="207" cy="2" r="708" opacity="0.8123558197435972" fill="#442a40"/><circle cx="937" cy="796" r="186" opacity="0.8123558197435972" fill="rgb(251,108,91)"/><circle cx="787" cy="518" r="513" opacity="0.8123558197435972" fill="0x1dccc4"/><circle cx="402" cy="346" r="224" opacity="0.8123558197435972" fill="#e8a"/><circle cx="210" cy="836" r="125" opacity="0.8123558197435972" fill="#bf4c00"/><circle cx="969" cy="145" r="485" opacity="0.8123558197435972" fill="0xc56327"/><circle cx="912" cy="1035" r="296" opacity="0.8123558197435972" fill="DarkViolet"/><circle cx="748" cy="783" r="268" opacity="0.8123558197435972" fill="Silver"/><circle cx="758" cy="1009" r="457" opacity="0.8123558197435972" fill="rgba(201,225,27,0.8797)"/><circle cx="837" cy="245" r="966" opacity="0.8123558197435972" fill="rgb(134,138,63)"/><circle cx="614" cy="-99" r="934" opacity="0.8123558197435972" fill="#5b0"/><circle cx="60" cy="994" r="288" opacity="0.8123558197435972" fill="FireBrick"/><polygon fill="#b67f7a" points="805,283 752,476 1220,1216" opacity="0.8123558197435972"/> <polygon fill="0xb91c6d" points=" 327,423 1242,563 287,682 1146,589 429,494 742,619 728,574 755,687" opacity="0.8123558197435972" /></svg>