<svg version="1.1" width="1000" height="1000" xmlns="http://www.w3.org/2000/svg" style="background-color:rgba(113,76,31,0.5983)"><line stroke="0xdfe3cc" stroke-width="3" opacity="0.611482308626708" x1="162" y1="711" x2="919" y2="42" /><line stroke="GreenYellow" stroke-width="2" opacity="0.611482308626708" x1="272" y1="278" x2="-92" y2="90" /><line stroke="rgba(243,86,213,0.6164)" stroke-width="4" opacity="0.611482308626708" x1="529" y1="267" x2="-92" y2="26" /><line stroke="#9e7f52" stroke-width="4" opacity="0.611482308626708" x1="949" y1="1032" x2="630" y2="338" /><line stroke="#c1acc0" stroke-width="1" opacity="0.611482308626708" x1="516" y1="673" x2="793" y2="156" /><line stroke="#32efed" stroke-width="4" opacity="0.611482308626708" x1="792" y1="479" x2="1001" y2="1043" /><line stroke="rgba(101,180,101,0.4129)" stroke-width="5" opacity="0.611482308626708" x1="971" y1="875" x2="538" y2="533" /><line stroke="rgb(115,51,157)" stroke-width="2" opacity="0.611482308626708" x1="750" y1="1026" x2="423" y2="1054" /><line stroke="#be8" stroke-width="4" opacity="0.611482308626708" x1="392" y1="949" x2="657" y2="118" /><line stroke="Green" stroke-width="4" opacity="0.611482308626708" x1="529" y1="1024" x2="818" y2="105" /><line stroke="#d93" stroke-width="1" opacity="0.611482308626708" x1="927" y1="1068" x2="94" y2="830" /><line stroke="0x6abd07" stroke-width="3" opacity="0.611482308626708" x1="962" y1="818" x2="681" y2="469" /><line stroke="#c2e" stroke-width="3" opacity="0.611482308626708" x1="516" y1="1084" x2="78" y2="52" /><line stroke="DarkOrange" stroke-width="4" opacity="0.611482308626708" x1="669" y1="240" x2="-82" y2="831" /><line stroke="#0fc" stroke-width="5" opacity="0.611482308626708" x1="841" y1="-28" x2="429" y2="471" /><circle cx="207" cy="280" r="461" opacity="0.611482308626708" fill="#4375fd"/><circle cx="928" cy="491" r="1025" opacity="0.611482308626708" fill="0x3fea50"/><circle cx="465" cy="316" r="138" opacity="0.611482308626708" fill="0x31d8b9"/><polygon fill="rgba(142,229,153,0.976)" points="1033,419 2026,366 1219,945" opacity="0.611482308626708"/> <polygon fill="#2ca" points="144,445 901,623 650,1121" opacity="0.611482308626708"/> <polygon fill="0xed84cf" points="-63,804 846,1712 165,1390" opacity="0.611482308626708"/> <polygon fill="DarkOrchid" points="117,440 728,1042 50,1024" opacity="0.611482308626708"/> <polygon fill="#0cba5c" points="201,38 819,482 344,786" opacity="0.611482308626708"/> <polygon fill="#c7769e" points="734,793 1386,828 975,1459" opacity="0.611482308626708"/> <polygon fill="Pink" points="14,404 783,1318 607,1131" opacity="0.611482308626708"/> <polygon fill="#8d5" points="575,707 888,801 1204,710" opacity="0.611482308626708"/> <polygon fill="#efc" points="38,1044 164,1288 912,1613" opacity="0.611482308626708"/> <polygon fill="MediumSlateBlue" points="869,806 1661,850 1286,1758" opacity="0.611482308626708"/> <polygon fill="0x0f5119" points="777,500 1707,1561 1363,1488" opacity="0.611482308626708"/> <polygon fill="0x45fa26" points="744,829 944,1155 1098,1174" opacity="0.611482308626708"/> <polygon fill="#42a7bd" points="717,532 1563,753 815,1471" opacity="0.611482308626708"/> <polygon fill="#d27022" points="859,777 1899,1374 1817,1752" opacity="0.611482308626708"/> <polygon fill="rgb(130,80,21)" points="210,867 573,1044 557,879" opacity="0.611482308626708"/> <polygon fill="rgba(67,108,59,0.2091)" points="249,-20 187,473 730,363" opacity="0.611482308626708"/> <polygon fill="rgba(7,246,213,0.2105)" points="379,718 700,898 859,864" opacity="0.611482308626708"/> <polygon fill="rgb(130,216,23)" points="1056,137 2011,709 1023,844" opacity="0.611482308626708"/> <polygon fill="rgba(230,188,116,0.8968)" points="308,433 476,1255 1212,1258" opacity="0.611482308626708"/> <polygon fill="#5e4" points="836,-91 1431,314 912,-187" opacity="0.611482308626708"/> </svg>