<svg version="1.1" width="1000" height="1000" xmlns="http://www.w3.org/2000/svg" style="background-color:#de1558"><line stroke="rgb(150,3,233)" stroke-width="4" opacity="0.608242421723207" x1="160" y1="1031" x2="1076" y2="1092" /><line stroke="#1ec" stroke-width="5" opacity="0.608242421723207" x1="65" y1="99" x2="1059" y2="-98" /><line stroke="#0ac" stroke-width="5" opacity="0.608242421723207" x1="796" y1="331" x2="681" y2="151" /><line stroke="#8d65ad" stroke-width="4" opacity="0.608242421723207" x1="977" y1="262" x2="-75" y2="60" /><line stroke="rgba(82,148,126,0.2558)" stroke-width="4" opacity="0.608242421723207" x1="-4" y1="502" x2="-24" y2="58" /><line stroke="0x2edb61" stroke-width="3" opacity="0.608242421723207" x1="0" y1="1080" x2="812" y2="98" /><line stroke="Chocolate" stroke-width="2" opacity="0.608242421723207" x1="622" y1="754" x2="19" y2="280" /><line stroke="#d3c110" stroke-width="2" opacity="0.608242421723207" x1="395" y1="4" x2="1047" y2="827" /><line stroke="#c37106" stroke-width="3" opacity="0.608242421723207" x1="1041" y1="361" x2="854" y2="168" /><line stroke="LightYellow" stroke-width="4" opacity="0.608242421723207" x1="364" y1="290" x2="863" y2="276" /><line stroke="SlateGray" stroke-width="3" opacity="0.608242421723207" x1="311" y1="811" x2="559" y2="4" /><line stroke="rgb(235,237,166)" stroke-width="3" opacity="0.608242421723207" x1="70" y1="818" x2="763" y2="353" /><line stroke="#39b" stroke-width="1" opacity="0.608242421723207" x1="838" y1="654" x2="638" y2="459" /><line stroke="0xae3313" stroke-width="4" opacity="0.608242421723207" x1="414" y1="632" x2="1047" y2="86" /><line stroke="#5799dc" stroke-width="1" opacity="0.608242421723207" x1="808" y1="875" x2="412" y2="849" /><line stroke="LightSteelBlue" stroke-width="5" opacity="0.608242421723207" x1="140" y1="775" x2="315" y2="158" /><line stroke="#21c" stroke-width="1" opacity="0.608242421723207" x1="58" y1="1041" x2="319" y2="760" /><line stroke="#169" stroke-width="1" opacity="0.608242421723207" x1="119" y1="1033" x2="692" y2="415" /><line stroke="0x34d3b1" stroke-width="1" opacity="0.608242421723207" x1="559" y1="989" x2="167" y2="1061" /><line stroke="BlanchedAlmond" stroke-width="4" opacity="0.608242421723207" x1="967" y1="309" x2="280" y2="731" /><line stroke="rgb(98,184,57)" stroke-width="2" opacity="0.608242421723207" x1="244" y1="1098" x2="5" y2="850" /><line stroke="#35d020" stroke-width="1" opacity="0.608242421723207" x1="-79" y1="106" x2="455" y2="452" /><line stroke="#33b" stroke-width="2" opacity="0.608242421723207" x1="-57" y1="1032" x2="421" y2="394" /><line stroke="#1db436" stroke-width="4" opacity="0.608242421723207" x1="70" y1="1039" x2="114" y2="447" /><line stroke="0x3a3b4b" stroke-width="1" opacity="0.608242421723207" x1="460" y1="1023" x2="22" y2="200" /><line stroke="Cornsilk" stroke-width="1" opacity="0.608242421723207" x1="578" y1="-99" x2="678" y2="287" /><line stroke="rgba(22,200,29,0.25)" stroke-width="1" opacity="0.608242421723207" x1="748" y1="371" x2="418" y2="496" /><line stroke="#536" stroke-width="3" opacity="0.608242421723207" x1="43" y1="214" x2="733" y2="237" /><line stroke="#adc" stroke-width="4" opacity="0.608242421723207" x1="126" y1="30" x2="214" y2="341" /><circle cx="1055" cy="408" r="760" opacity="0.608242421723207" fill="LightSlateGray"/><circle cx="423" cy="736" r="1059" opacity="0.608242421723207" fill="#817ccc"/><circle cx="314" cy="515" r="891" opacity="0.608242421723207" fill="0x4ebedc"/><circle cx="127" cy="143" r="1088" opacity="0.608242421723207" fill="0x1c23aa"/><circle cx="1042" cy="693" r="979" opacity="0.608242421723207" fill="rgba(213,13,227,0.6249)"/><circle cx="428" cy="721" r="368" opacity="0.608242421723207" fill="DarkGreen"/><circle cx="625" cy="411" r="34" opacity="0.608242421723207" fill="#1d411e"/><circle cx="527" cy="2" r="135" opacity="0.608242421723207" fill="rgb(90,5,120)"/><circle cx="273" cy="541" r="114" opacity="0.608242421723207" fill="0x2d9478"/><circle cx="515" cy="83" r="740" opacity="0.608242421723207" fill="rgba(69,13,49,0.1747)"/><circle cx="393" cy="465" r="481" opacity="0.608242421723207" fill="#9c54c7"/><polygon fill="#d2768b" points="802,722 1797,623 1749,1046" opacity="0.608242421723207"/> </svg>