<svg version="1.1" width="1000" height="1000" xmlns="http://www.w3.org/2000/svg" style="background-color:rgb(69,253,51)"><line stroke="#13d3e3" stroke-width="5" opacity="0.5568027848032715" x1="638" y1="938" x2="1078" y2="229" /><line stroke="Azure" stroke-width="2" opacity="0.5568027848032715" x1="299" y1="779" x2="137" y2="781" /><line stroke="0xf5014c" stroke-width="1" opacity="0.5568027848032715" x1="478" y1="621" x2="-53" y2="970" /><polygon fill="rgba(128,219,122,0.9072)" points="534,973 640,1406 843,1900" opacity="0.5568027848032715"/> <polygon fill="Tomato" points="66,284 374,1006 195,1337" opacity="0.5568027848032715"/> <polygon fill="#de3a42" points="815,550 860,1136 926,961" opacity="0.5568027848032715"/> <polygon fill="rgb(77,117,250)" points="569,1080 898,1355 847,1614" opacity="0.5568027848032715"/> <polygon fill="DimGray" points="190,347 416,662 972,1415" opacity="0.5568027848032715"/> <polygon fill="rgb(34,52,100)" points="554,209 1092,1288 830,1124" opacity="0.5568027848032715"/> <polygon fill="Brown" points="109,-91 11,263 785,283" opacity="0.5568027848032715"/> <polygon fill="LavenderBlush" points="8,-10 112,349 239,101" opacity="0.5568027848032715"/> <polygon fill="rgba(196,10,31,0.8008)" points=" 113,-37 494,357 1123,669 1201,836 167,581 76,43" opacity="0.5568027848032715" /></svg>