<svg version="1.1" width="1000" height="1000" xmlns="http://www.w3.org/2000/svg" style="background-color:0x7b095c"><line stroke="rgba(201,197,189,0.3615)" stroke-width="1" opacity="0.8637039265586879" x1="1020" y1="1004" x2="191" y2="828" /><line stroke="rgba(186,8,187,0.7205)" stroke-width="5" opacity="0.8637039265586879" x1="942" y1="380" x2="598" y2="-1" /><circle cx="248" cy="723" r="560" opacity="0.8637039265586879" fill="rgba(116,175,119,0.6903)"/><circle cx="283" cy="483" r="250" opacity="0.8637039265586879" fill="#e0c"/><circle cx="997" cy="37" r="196" opacity="0.8637039265586879" fill="#a943e0"/><circle cx="1007" cy="204" r="8" opacity="0.8637039265586879" fill="rgb(219,143,75)"/><circle cx="1069" cy="413" r="189" opacity="0.8637039265586879" fill="rgba(109,216,47,0.2624)"/><circle cx="652" cy="450" r="1071" opacity="0.8637039265586879" fill="rgba(157,88,10,0.19)"/><polygon fill="rgb(25,131,242)" points="635,932 1392,1125 1117,1655" opacity="0.8637039265586879"/> <polygon fill="rgba(199,244,65,0.9551)" points="194,915 938,1103 1237,938" opacity="0.8637039265586879"/> <polygon fill="#d29c18" points="214,856 589,1145 707,1731" opacity="0.8637039265586879"/> <polygon fill="0xe906aa" points="970,575 1455,675 1617,886" opacity="0.8637039265586879"/> <polygon fill="0x9cc593" points="-78,812 151,977 870,1164" opacity="0.8637039265586879"/> <polygon fill="#d69ac0" points="867,765 1012,1213 1171,1114" opacity="0.8637039265586879"/> <polygon fill="rgb(236,197,38)" points="582,531 1304,1349 683,1019" opacity="0.8637039265586879"/> <polygon fill="#df7318" points="939,319 1512,442 1461,278" opacity="0.8637039265586879"/> <polygon fill="0x6e666d" points="545,-4 1567,723 1175,719" opacity="0.8637039265586879"/> <polygon fill="rgb(206,223,61)" points="166,529 988,1381 660,1409" opacity="0.8637039265586879"/> </svg>