<svg version="1.1" width="1000" height="1000" xmlns="http://www.w3.org/2000/svg" style="background-color:0x91cd2f"><line stroke="rgba(40,84,105,0.3845)" stroke-width="5" opacity="0.838116967375063" x1="982" y1="907" x2="950" y2="977" /><line stroke="#68a470" stroke-width="1" opacity="0.838116967375063" x1="172" y1="-88" x2="418" y2="944" /><line stroke="SkyBlue" stroke-width="1" opacity="0.838116967375063" x1="225" y1="251" x2="268" y2="-78" /><line stroke="rgb(67,151,69)" stroke-width="2" opacity="0.838116967375063" x1="-24" y1="-11" x2="546" y2="613" /><line stroke="0x07ee7d" stroke-width="1" opacity="0.838116967375063" x1="465" y1="991" x2="1003" y2="823" /><line stroke="Thistle" stroke-width="4" opacity="0.838116967375063" x1="1031" y1="374" x2="190" y2="408" /><line stroke="#aea" stroke-width="5" opacity="0.838116967375063" x1="41" y1="1096" x2="913" y2="633" /><line stroke="#835d54" stroke-width="5" opacity="0.838116967375063" x1="88" y1="987" x2="-81" y2="-83" /><line stroke="PaleTurquoise" stroke-width="4" opacity="0.838116967375063" x1="573" y1="46" x2="55" y2="169" /><line stroke="rgba(53,12,129,0.039)" stroke-width="2" opacity="0.838116967375063" x1="774" y1="956" x2="682" y2="892" /><line stroke="#b24" stroke-width="5" opacity="0.838116967375063" x1="107" y1="102" x2="648" y2="842" /><line stroke="rgb(235,141,61)" stroke-width="2" opacity="0.838116967375063" x1="646" y1="585" x2="113" y2="84" /><line stroke="#282" stroke-width="3" opacity="0.838116967375063" x1="989" y1="479" x2="349" y2="584" /><line stroke="rgba(43,180,201,0.6057)" stroke-width="1" opacity="0.838116967375063" x1="608" y1="1028" x2="-39" y2="209" /><line stroke="rgba(150,78,168,0.9225)" stroke-width="1" opacity="0.838116967375063" x1="123" y1="47" x2="925" y2="33" /><line stroke="0x24d5d7" stroke-width="1" opacity="0.838116967375063" x1="1034" y1="768" x2="684" y2="527" /><line stroke="rgb(82,23,158)" stroke-width="4" opacity="0.838116967375063" x1="943" y1="958" x2="996" y2="-100" /><line stroke="rgb(43,145,57)" stroke-width="5" opacity="0.838116967375063" x1="134" y1="914" x2="645" y2="182" /><line stroke="rgb(182,191,235)" stroke-width="4" opacity="0.838116967375063" x1="636" y1="579" x2="238" y2="414" /><line stroke="#4cc" stroke-width="1" opacity="0.838116967375063" x1="629" y1="573" x2="624" y2="7" /><line stroke="rgba(248,246,102,0.8573)" stroke-width="5" opacity="0.838116967375063" x1="13" y1="149" x2="990" y2="790" /><line stroke="#08e5a9" stroke-width="5" opacity="0.838116967375063" x1="1018" y1="631" x2="483" y2="2" /><line stroke="#e6f" stroke-width="5" opacity="0.838116967375063" x1="1056" y1="259" x2="931" y2="638" /><line stroke="rgb(49,184,240)" stroke-width="3" opacity="0.838116967375063" x1="901" y1="60" x2="794" y2="205" /><line stroke="0xf4d390" stroke-width="4" opacity="0.838116967375063" x1="1100" y1="-10" x2="518" y2="875" /><line stroke="#ffb54c" stroke-width="5" opacity="0.838116967375063" x1="226" y1="242" x2="554" y2="805" /><line stroke="rgb(21,104,121)" stroke-width="1" opacity="0.838116967375063" x1="286" y1="333" x2="880" y2="424" /><circle cx="942" cy="763" r="428" opacity="0.838116967375063" fill="0xd0cb73"/><circle cx="914" cy="855" r="56" opacity="0.838116967375063" fill="#ddc902"/><polygon fill="rgb(68,217,161)" points="421,84 513,824 545,153" opacity="0.838116967375063"/> <polygon fill="#79e" points="830,914 1879,1290 1771,1092" opacity="0.838116967375063"/> <polygon fill="rgba(6,133,155,0.1295)" points="2,637 1052,746 1060,947" opacity="0.838116967375063"/> <polygon fill="rgb(23,19,13)" points="454,-83 1265,720 1044,670" opacity="0.838116967375063"/> <polygon fill="#43c" points="710,611 1080,1654 1303,721" opacity="0.838116967375063"/> <polygon fill="0x6b3fe9" points="180,980 1000,1472 260,1740" opacity="0.838116967375063"/> <polygon fill="rgba(144,87,85,0.6386)" points="749,1038 1198,2007 1335,1209" opacity="0.838116967375063"/> <polygon fill="#bc8" points="538,433 912,975 1022,471" opacity="0.838116967375063"/> <polygon fill="#407" points="1067,945 993,1445 1384,2019" opacity="0.838116967375063"/> <polygon fill="rgb(108,111,112)" points="190,529 979,655 879,1238" opacity="0.838116967375063"/> <polygon fill="0x01e847" points="77,816 1049,1543 880,1667" opacity="0.838116967375063"/> <polygon fill="#03caa0" points="1037,447 1350,389 1525,558" opacity="0.838116967375063"/> <polygon fill="0x9dec18" points="253,148 178,974 388,1236" opacity="0.838116967375063"/> <polygon fill="0x48c302" points="112,1034 768,1897 404,1130" opacity="0.838116967375063"/> <polygon fill="#efdfb0" points="960,840 1420,1106 901,1297" opacity="0.838116967375063"/> <polygon fill="0xfaeafe" points="1099,304 1780,631 2161,622" opacity="0.838116967375063"/> <polygon fill="0x82c479" points=" 766,877 1123,874 1084,849 714,1804 725,1363 979,1639 828,1801 1275,816 948,1498" opacity="0.838116967375063" /></svg>