<svg version="1.1" width="1000" height="1000" xmlns="http://www.w3.org/2000/svg" style="background-color:0x79b11c"><line stroke="#dfc" stroke-width="2" opacity="0.840659024871653" x1="590" y1="787" x2="142" y2="739" /><line stroke="rgb(155,222,156)" stroke-width="3" opacity="0.840659024871653" x1="1037" y1="738" x2="-77" y2="77" /><line stroke="rgb(183,255,81)" stroke-width="4" opacity="0.840659024871653" x1="745" y1="955" x2="493" y2="102" /><line stroke="PapayaWhip" stroke-width="2" opacity="0.840659024871653" x1="592" y1="435" x2="761" y2="1033" /><line stroke="Peru" stroke-width="2" opacity="0.840659024871653" x1="405" y1="257" x2="276" y2="662" /><line stroke="0xda5ebd" stroke-width="5" opacity="0.840659024871653" x1="112" y1="128" x2="697" y2="-88" /><line stroke="rgb(252,213,179)" stroke-width="3" opacity="0.840659024871653" x1="0" y1="243" x2="541" y2="298" /><line stroke="0xb2855c" stroke-width="3" opacity="0.840659024871653" x1="879" y1="830" x2="478" y2="590" /><line stroke="#ee7" stroke-width="2" opacity="0.840659024871653" x1="872" y1="303" x2="980" y2="3" /><line stroke="LawnGreen" stroke-width="4" opacity="0.840659024871653" x1="894" y1="81" x2="810" y2="128" /><line stroke="rgba(16,42,158,0.6915)" stroke-width="4" opacity="0.840659024871653" x1="898" y1="646" x2="782" y2="276" /><line stroke="#421172" stroke-width="2" opacity="0.840659024871653" x1="225" y1="1085" x2="542" y2="833" /><line stroke="#75010c" stroke-width="2" opacity="0.840659024871653" x1="16" y1="769" x2="610" y2="501" /><line stroke="#c7c" stroke-width="2" opacity="0.840659024871653" x1="346" y1="887" x2="1030" y2="229" /><line stroke="rgba(137,64,124,0.0684)" stroke-width="4" opacity="0.840659024871653" x1="936" y1="755" x2="456" y2="401" /><line stroke="#927484" stroke-width="5" opacity="0.840659024871653" x1="1095" y1="264" x2="125" y2="440" /><line stroke="#797" stroke-width="3" opacity="0.840659024871653" x1="44" y1="425" x2="548" y2="613" /><line stroke="#c90734" stroke-width="3" opacity="0.840659024871653" x1="415" y1="23" x2="810" y2="926" /><line stroke="rgb(31,205,160)" stroke-width="1" opacity="0.840659024871653" x1="273" y1="155" x2="364" y2="832" /><line stroke="#e2cac9" stroke-width="3" opacity="0.840659024871653" x1="-85" y1="820" x2="435" y2="305" /><line stroke="#084" stroke-width="1" opacity="0.840659024871653" x1="85" y1="766" x2="187" y2="879" /><line stroke="#f2d01e" stroke-width="2" opacity="0.840659024871653" x1="448" y1="10" x2="633" y2="392" /><line stroke="#0d962b" stroke-width="5" opacity="0.840659024871653" x1="941" y1="1040" x2="797" y2="78" /><line stroke="rgb(179,60,115)" stroke-width="1" opacity="0.840659024871653" x1="301" y1="187" x2="534" y2="704" /><line stroke="rgb(195,42,243)" stroke-width="2" opacity="0.840659024871653" x1="-75" y1="836" x2="1078" y2="985" /><line stroke="rgb(130,164,81)" stroke-width="1" opacity="0.840659024871653" x1="563" y1="647" x2="274" y2="902" /><line stroke="#57fc61" stroke-width="3" opacity="0.840659024871653" x1="1066" y1="747" x2="61" y2="942" /><line stroke="DarkBlue" stroke-width="4" opacity="0.840659024871653" x1="131" y1="952" x2="252" y2="60" /><line stroke="#4f5918" stroke-width="4" opacity="0.840659024871653" x1="498" y1="350" x2="353" y2="530" /><line stroke="#63bc64" stroke-width="1" opacity="0.840659024871653" x1="-98" y1="705" x2="1056" y2="109" /><circle cx="3" cy="143" r="246" opacity="0.840659024871653" fill="rgb(52,186,74)"/><circle cx="24" cy="1045" r="227" opacity="0.840659024871653" fill="rgb(163,6,223)"/><circle cx="164" cy="498" r="763" opacity="0.840659024871653" fill="0x223270"/><circle cx="818" cy="915" r="946" opacity="0.840659024871653" fill="0xdf0ce1"/><circle cx="-1" cy="414" r="63" opacity="0.840659024871653" fill="rgb(228,79,248)"/><polygon fill="Gray" points="-60,500 16,668 347,943" opacity="0.840659024871653"/> <polygon fill="#ebce40" points="432,456 470,809 473,651" opacity="0.840659024871653"/> <polygon fill="rgb(173,201,187)" points="840,964 1125,1398 937,2029" opacity="0.840659024871653"/> <polygon fill="Turquoise" points="1008,702 1963,818 970,996" opacity="0.840659024871653"/> <polygon fill="#a72" points="940,1097 1753,1973 988,1729" opacity="0.840659024871653"/> <polygon fill="rgb(20,36,163)" points="193,361 174,332 152,547" opacity="0.840659024871653"/> <polygon fill="#a11" points="508,249 1540,169 546,1326" opacity="0.840659024871653"/> <polygon fill="#672444" points="693,658 1384,1216 1698,607" opacity="0.840659024871653"/> <polygon fill="0xa63720" points="440,164 1393,502 1356,1229" opacity="0.840659024871653"/> <polygon fill="rgba(199,210,124,0.9225)" points="723,962 892,1844 809,1302" opacity="0.840659024871653"/> <polygon fill="#51b" points="290,1010 1078,2096 432,1580" opacity="0.840659024871653"/> <polygon fill="#27a" points="778,1043 726,1306 1042,1641" opacity="0.840659024871653"/> </svg>