<svg version="1.1" width="1000" height="1000" xmlns="http://www.w3.org/2000/svg" style="background-color:Orchid"><line stroke="Brown" stroke-width="3" opacity="0.42081346493307814" x1="468" y1="443" x2="561" y2="348" /><line stroke="0xf6cba6" stroke-width="1" opacity="0.42081346493307814" x1="599" y1="409" x2="386" y2="432" /><line stroke="LightSkyBlue" stroke-width="1" opacity="0.42081346493307814" x1="264" y1="360" x2="1073" y2="-13" /><line stroke="0x390560" stroke-width="3" opacity="0.42081346493307814" x1="810" y1="209" x2="745" y2="448" /><line stroke="#5e0" stroke-width="3" opacity="0.42081346493307814" x1="944" y1="542" x2="168" y2="370" /><line stroke="#826" stroke-width="5" opacity="0.42081346493307814" x1="595" y1="154" x2="1031" y2="386" /><line stroke="#43f" stroke-width="1" opacity="0.42081346493307814" x1="952" y1="827" x2="-11" y2="837" /><line stroke="#751" stroke-width="1" opacity="0.42081346493307814" x1="172" y1="810" x2="517" y2="584" /><line stroke="#77a" stroke-width="1" opacity="0.42081346493307814" x1="1078" y1="383" x2="479" y2="118" /><line stroke="rgba(134,64,20,0.0998)" stroke-width="2" opacity="0.42081346493307814" x1="763" y1="257" x2="1030" y2="643" /><line stroke="0x07d7e8" stroke-width="4" opacity="0.42081346493307814" x1="799" y1="728" x2="772" y2="1010" /><line stroke="Gray" stroke-width="2" opacity="0.42081346493307814" x1="270" y1="266" x2="887" y2="1012" /><line stroke="#4c87f6" stroke-width="1" opacity="0.42081346493307814" x1="1071" y1="1020" x2="163" y2="314" /><line stroke="#ecd" stroke-width="5" opacity="0.42081346493307814" x1="395" y1="260" x2="679" y2="403" /><line stroke="0xd38fcd" stroke-width="2" opacity="0.42081346493307814" x1="890" y1="1050" x2="254" y2="241" /><line stroke="#62f" stroke-width="1" opacity="0.42081346493307814" x1="134" y1="-13" x2="400" y2="1029" /><line stroke="WhiteSmoke" stroke-width="1" opacity="0.42081346493307814" x1="154" y1="268" x2="843" y2="322" /><line stroke="rgb(121,99,55)" stroke-width="2" opacity="0.42081346493307814" x1="338" y1="625" x2="568" y2="383" /><circle cx="-60" cy="626" r="887" opacity="0.42081346493307814" fill="Olive"/><circle cx="670" cy="189" r="667" opacity="0.42081346493307814" fill="0x4d92a7"/><circle cx="329" cy="870" r="603" opacity="0.42081346493307814" fill="#5d475b"/><circle cx="1039" cy="64" r="97" opacity="0.42081346493307814" fill="#e39"/><circle cx="204" cy="279" r="957" opacity="0.42081346493307814" fill="Green"/><circle cx="840" cy="648" r="4" opacity="0.42081346493307814" fill="rgb(14,134,18)"/><polygon fill="Snow" points="426,280 1421,1301 390,1151" opacity="0.42081346493307814"/> <polygon fill="0x149ae9" points="402,17 864,879 1096,168" opacity="0.42081346493307814"/> <polygon fill="rgba(2,212,131,0.5699)" points="886,694 1307,1745 1807,599" opacity="0.42081346493307814"/> <polygon fill="#ae2c16" points="387,1011 1479,1179 1467,1087" opacity="0.42081346493307814"/> <polygon fill="0x95892b" points="376,191 692,1151 593,753" opacity="0.42081346493307814"/> <polygon fill="rgb(44,214,228)" points="436,835 1330,1355 1174,894" opacity="0.42081346493307814"/> <polygon fill="rgb(115,127,44)" points="551,884 1619,967 872,1511" opacity="0.42081346493307814"/> <polygon fill="rgb(28,4,76)" points="173,186 1053,473 895,1029" opacity="0.42081346493307814"/> <polygon fill="rgb(121,232,223)" points="750,855 1302,1092 1303,1427" opacity="0.42081346493307814"/> <polygon fill="rgb(185,109,103)" points=" 17,76 305,446 919,677 822,1038 210,182 33,933" opacity="0.42081346493307814" /></svg>